STARTFONT 2.1
FONT -FontForge-Splatoon2-Regular-R-Normal--24-240-75-75-P-76-ISO10646-1
SIZE 24 75 75
FONTBOUNDINGBOX 33 33 0 -7
COMMENT "Generated by fontforge, http://fontforge.sourceforge.net"
COMMENT "Splatoon2 is a trademark of Nintendo."
STARTPROPERTIES 40
FOUNDRY "FontForge"
FAMILY_NAME "Splatoon2"
WEIGHT_NAME "Regular"
SLANT "R"
SETWIDTH_NAME "Normal"
ADD_STYLE_NAME ""
PIXEL_SIZE 24
POINT_SIZE 240
RESOLUTION_X 75
RESOLUTION_Y 75
SPACING "P"
AVERAGE_WIDTH 76
CHARSET_REGISTRY "ISO10646"
CHARSET_ENCODING "1"
FONTNAME_REGISTRY ""
CHARSET_COLLECTIONS "ISO8859-2 ISO8859-5 ISO8859-7 ISO8859-9 JISX0208.1997 ISO10646-1"
FONT_NAME "Splatoon2"
FACE_NAME "Splatoon2"
COPYRIGHT "Splatoon2 is a trademark of Nintendo."
FONT_VERSION "001.001"
FONT_ASCENT 21
FONT_DESCENT 3
UNDERLINE_POSITION -4
UNDERLINE_THICKNESS 2
X_HEIGHT 13
CAP_HEIGHT 18
DEFAULT_CHAR 1
RAW_ASCENT 880
RAW_DESCENT 120
NORM_SPACE 7
RELATIVE_WEIGHT 40
RELATIVE_SETWIDTH 50
SUPERSCRIPT_X 0
SUPERSCRIPT_Y 8
SUPERSCRIPT_SIZE 14
SUBSCRIPT_X 0
SUBSCRIPT_Y 1
SUBSCRIPT_SIZE 14
AVG_LOWERCASE_WIDTH 120
AVG_UPPERCASE_WIDTH 127
ENDPROPERTIES
CHARS 9643
STARTCHAR cid1.dup1
ENCODING 0
SWIDTH 296 0
DWIDTH 7 0
BBX 1 1 0 0
BITMAP
00
ENDCHAR
STARTCHAR uni0001
ENCODING 1
SWIDTH 296 0
DWIDTH 7 0
BBX 1 1 0 0
BITMAP
00
ENDCHAR
STARTCHAR uni0002
ENCODING 2
SWIDTH 296 0
DWIDTH 7 0
BBX 1 1 0 0
BITMAP
00
ENDCHAR
STARTCHAR uni0003
ENCODING 3
SWIDTH 296 0
DWIDTH 7 0
BBX 1 1 0 0
BITMAP
00
ENDCHAR
STARTCHAR uni0004
ENCODING 4
SWIDTH 296 0
DWIDTH 7 0
BBX 1 1 0 0
BITMAP
00
ENDCHAR
STARTCHAR uni0005
ENCODING 5
SWIDTH 296 0
DWIDTH 7 0
BBX 1 1 0 0
BITMAP
00
ENDCHAR
STARTCHAR uni0006
ENCODING 6
SWIDTH 296 0
DWIDTH 7 0
BBX 1 1 0 0
BITMAP
00
ENDCHAR
STARTCHAR uni0007
ENCODING 7
SWIDTH 296 0
DWIDTH 7 0
BBX 1 1 0 0
BITMAP
00
ENDCHAR
STARTCHAR uni0008
ENCODING 8
SWIDTH 296 0
DWIDTH 7 0
BBX 1 1 0 0
BITMAP
00
ENDCHAR
STARTCHAR uni0009
ENCODING 9
SWIDTH 296 0
DWIDTH 7 0
BBX 1 1 0 0
BITMAP
00
ENDCHAR
STARTCHAR uni000A
ENCODING 10
SWIDTH 296 0
DWIDTH 7 0
BBX 1 1 0 0
BITMAP
00
ENDCHAR
STARTCHAR uni000B
ENCODING 11
SWIDTH 296 0
DWIDTH 7 0
BBX 1 1 0 0
BITMAP
00
ENDCHAR
STARTCHAR uni000C
ENCODING 12
SWIDTH 296 0
DWIDTH 7 0
BBX 1 1 0 0
BITMAP
00
ENDCHAR
STARTCHAR CR
ENCODING 13
SWIDTH 296 0
DWIDTH 7 0
BBX 1 1 0 0
BITMAP
00
ENDCHAR
STARTCHAR uni000E
ENCODING 14
SWIDTH 296 0
DWIDTH 7 0
BBX 1 1 0 0
BITMAP
00
ENDCHAR
STARTCHAR uni000F
ENCODING 15
SWIDTH 296 0
DWIDTH 7 0
BBX 1 1 0 0
BITMAP
00
ENDCHAR
STARTCHAR uni0010
ENCODING 16
SWIDTH 296 0
DWIDTH 7 0
BBX 1 1 0 0
BITMAP
00
ENDCHAR
STARTCHAR uni0011
ENCODING 17
SWIDTH 296 0
DWIDTH 7 0
BBX 1 1 0 0
BITMAP
00
ENDCHAR
STARTCHAR uni0012
ENCODING 18
SWIDTH 296 0
DWIDTH 7 0
BBX 1 1 0 0
BITMAP
00
ENDCHAR
STARTCHAR uni0013
ENCODING 19
SWIDTH 296 0
DWIDTH 7 0
BBX 1 1 0 0
BITMAP
00
ENDCHAR
STARTCHAR uni0014
ENCODING 20
SWIDTH 296 0
DWIDTH 7 0
BBX 1 1 0 0
BITMAP
00
ENDCHAR
STARTCHAR uni0015
ENCODING 21
SWIDTH 296 0
DWIDTH 7 0
BBX 1 1 0 0
BITMAP
00
ENDCHAR
STARTCHAR uni0016
ENCODING 22
SWIDTH 296 0
DWIDTH 7 0
BBX 1 1 0 0
BITMAP
00
ENDCHAR
STARTCHAR uni0017
ENCODING 23
SWIDTH 296 0
DWIDTH 7 0
BBX 1 1 0 0
BITMAP
00
ENDCHAR
STARTCHAR uni0018
ENCODING 24
SWIDTH 296 0
DWIDTH 7 0
BBX 1 1 0 0
BITMAP
00
ENDCHAR
STARTCHAR uni0019
ENCODING 25
SWIDTH 296 0
DWIDTH 7 0
BBX 1 1 0 0
BITMAP
00
ENDCHAR
STARTCHAR uni001A
ENCODING 26
SWIDTH 296 0
DWIDTH 7 0
BBX 1 1 0 0
BITMAP
00
ENDCHAR
STARTCHAR uni001B
ENCODING 27
SWIDTH 296 0
DWIDTH 7 0
BBX 1 1 0 0
BITMAP
00
ENDCHAR
STARTCHAR uni001C
ENCODING 28
SWIDTH 296 0
DWIDTH 7 0
BBX 1 1 0 0
BITMAP
00
ENDCHAR
STARTCHAR uni001D
ENCODING 29
SWIDTH 296 0
DWIDTH 7 0
BBX 1 1 0 0
BITMAP
00
ENDCHAR
STARTCHAR uni001E
ENCODING 30
SWIDTH 296 0
DWIDTH 7 0
BBX 1 1 0 0
BITMAP
00
ENDCHAR
STARTCHAR space
ENCODING 32
SWIDTH 296 0
DWIDTH 7 0
BBX 1 1 0 0
BITMAP
00
ENDCHAR
STARTCHAR cid2
ENCODING 33
SWIDTH 388 0
DWIDTH 9 0
BBX 5 20 2 -1
BITMAP
F8
F8
F8
F8
F8
F8
F8
F8
78
78
78
78
78
78
78
00
00
70
70
70
ENDCHAR
STARTCHAR cid3
ENCODING 34
SWIDTH 535 0
DWIDTH 13 0
BBX 11 7 1 15
BITMAP
FBE0
FBE0
FBC0
FBC0
FBC0
F3C0
73C0
ENDCHAR
STARTCHAR cid4
ENCODING 35
SWIDTH 735 0
DWIDTH 18 0
BBX 16 22 1 -2
BITMAP
03CF
03DE
039E
079E
079C
3FFE
3FFE
3FFE
3FFE
3FFE
1E70
1CF0
1CE0
FFF8
FFF8
FFF8
FFF8
7380
7380
7780
F700
E700
ENDCHAR
STARTCHAR cid5
ENCODING 36
SWIDTH 597 0
DWIDTH 14 0
BBX 13 24 1 -3
BITMAP
0F00
0F00
1FC0
3FE0
7FF0
FFF8
E770
E770
E770
E770
F700
F700
FFC0
7FE0
1FF0
0770
0770
F770
F770
FFF0
3FE0
1FC0
0700
0700
ENDCHAR
STARTCHAR cid6
ENCODING 37
SWIDTH 797 0
DWIDTH 19 0
BBX 17 22 1 -2
BITMAP
001C00
003E00
003C00
387C00
7C7800
FE7800
EEF800
EEF000
7DF000
39E000
01E000
03C000
03CE00
079F00
07BF80
07BB80
0F3B80
0F1F00
1E0E00
1E0000
3E0000
040000
ENDCHAR
STARTCHAR cid7
ENCODING 38
SWIDTH 780 0
DWIDTH 19 0
BBX 17 22 1 -2
BITMAP
030000
0F8000
3FC000
3FE000
3DE000
38E000
39E000
3BC000
1F8000
1F0000
0F0F00
1F9E00
3F9E00
7FDC00
73FC00
61FF80
F0FF80
F9FF00
FFFF00
7FCF00
3F0000
020000
ENDCHAR
STARTCHAR cid8
ENCODING 39
SWIDTH 277 0
DWIDTH 7 0
BBX 5 8 1 12
BITMAP
F8
F8
F8
F8
F8
30
70
60
ENDCHAR
STARTCHAR cid9
ENCODING 40
SWIDTH 460 0
DWIDTH 11 0
BBX 9 23 1 -2
BITMAP
0E00
1F00
1F80
3F00
7E00
7C00
F800
F800
F000
F000
F000
7000
7000
7000
7000
7000
7000
7800
7C00
3E00
1F00
0F00
0600
ENDCHAR
STARTCHAR cid10
ENCODING 41
SWIDTH 463 0
DWIDTH 11 0
BBX 9 23 1 -2
BITMAP
1800
7800
FC00
7E00
3F00
1F80
0F80
0780
0780
0780
0780
0780
0780
0780
0700
0700
0700
0F00
1F00
3E00
7C00
7800
3000
ENDCHAR
STARTCHAR cid11
ENCODING 42
SWIDTH 425 0
DWIDTH 10 0
BBX 8 7 1 13
BITMAP
18
7A
FF
3C
7F
7A
18
ENDCHAR
STARTCHAR cid12
ENCODING 43
SWIDTH 662 0
DWIDTH 16 0
BBX 12 13 2 2
BITMAP
0F00
0F00
0F00
0F00
0F00
FFF0
FFF0
FFF0
0F00
0F00
0F00
0F00
0700
ENDCHAR
STARTCHAR cid13
ENCODING 44
SWIDTH 279 0
DWIDTH 7 0
BBX 5 8 1 -5
BITMAP
F8
F8
F8
F8
F0
30
70
60
ENDCHAR
STARTCHAR cid14
ENCODING 45
SWIDTH 503 0
DWIDTH 12 0
BBX 10 4 1 4
BITMAP
FFC0
FFC0
FFC0
FFC0
ENDCHAR
STARTCHAR cid15
ENCODING 46
SWIDTH 303 0
DWIDTH 7 0
BBX 5 4 1 -1
BITMAP
F8
F8
F8
F8
ENDCHAR
STARTCHAR cid16
ENCODING 47
SWIDTH 721 0
DWIDTH 17 0
BBX 12 21 2 -1
BITMAP
0070
00F0
00F0
01E0
01E0
01C0
03C0
0380
0780
0780
0700
0F00
0E00
1E00
1C00
1C00
3C00
3800
7800
7000
F000
ENDCHAR
STARTCHAR cid17
ENCODING 48
SWIDTH 599 0
DWIDTH 14 0
BBX 12 20 1 -1
BITMAP
1F80
3FC0
3FE0
7FF0
F1F0
F0F0
F0F0
F0F0
F0F0
F0F0
F0F0
F0F0
F0F0
F0F0
F0F0
F0F0
F8F0
7FE0
3FC0
1F80
ENDCHAR
STARTCHAR cid18
ENCODING 49
SWIDTH 348 0
DWIDTH 8 0
BBX 6 20 1 -1
BITMAP
FC
FC
FC
FC
1C
1C
1C
3C
3C
3C
3C
3C
3C
3C
3C
3C
3C
3C
3C
3C
ENDCHAR
STARTCHAR cid19
ENCODING 50
SWIDTH 603 0
DWIDTH 14 0
BBX 12 20 1 -1
BITMAP
1F80
3FC0
7FE0
7FF0
F0F0
F0F0
F0F0
F0E0
F0E0
00E0
01E0
1FE0
3FC0
7F80
F000
7000
7030
7FF0
7FF0
7FE0
ENDCHAR
STARTCHAR cid20
ENCODING 51
SWIDTH 569 0
DWIDTH 14 0
BBX 12 20 1 -1
BITMAP
3F00
3F80
3FC0
3FE0
00E0
00E0
00E0
00E0
0FC0
0F80
0FC0
00E0
00E0
00E0
F0E0
F0F0
E0F0
FFE0
7FC0
3F80
ENDCHAR
STARTCHAR cid21
ENCODING 52
SWIDTH 566 0
DWIDTH 14 0
BBX 12 20 1 -1
BITMAP
01C0
01C0
79C0
71C0
71C0
71C0
F1C0
F3C0
F3C0
F3C0
F3F0
FFF0
7FF0
3FF0
03C0
03C0
03C0
03C0
03C0
03C0
ENDCHAR
STARTCHAR cid22
ENCODING 53
SWIDTH 551 0
DWIDTH 13 0
BBX 11 20 1 -1
BITMAP
7FE0
7FE0
7FE0
7FE0
7000
7000
7000
7F00
FF80
3FC0
1FE0
01E0
01E0
01E0
F0E0
F0E0
F0E0
7FE0
3FC0
1F80
ENDCHAR
STARTCHAR cid23
ENCODING 54
SWIDTH 571 0
DWIDTH 14 0
BBX 12 20 1 -1
BITMAP
1F80
3FC0
7FE0
FFF0
F0F0
F0F0
F000
F000
FF80
FFC0
FFE0
F0E0
F0E0
F0E0
F0E0
F0F0
F0F0
FFE0
3FC0
1F80
ENDCHAR
STARTCHAR cid24
ENCODING 55
SWIDTH 512 0
DWIDTH 12 0
BBX 10 20 1 -1
BITMAP
FFC0
FFC0
FFC0
FFC0
FBC0
03C0
03C0
0380
0380
0780
0780
0780
0780
0700
0700
0700
0700
0F00
0F00
0F00
ENDCHAR
STARTCHAR cid25
ENCODING 56
SWIDTH 573 0
DWIDTH 14 0
BBX 12 20 1 -1
BITMAP
1F80
3FC0
7FE0
F7F0
F0F0
F0E0
F0E0
F0E0
F0E0
7FC0
3F80
7FC0
F3E0
F1E0
F1E0
F1E0
71E0
7FE0
3FC0
1F80
ENDCHAR
STARTCHAR cid26
ENCODING 57
SWIDTH 575 0
DWIDTH 14 0
BBX 12 20 1 -1
BITMAP
1F00
3F80
7FE0
FFF0
F0E0
F0E0
F0E0
70E0
70E0
70E0
70E0
7FE0
3FE0
1FE0
01E0
01E0
01E0
07E0
07C0
07C0
ENDCHAR
STARTCHAR cid27
ENCODING 58
SWIDTH 396 0
DWIDTH 10 0
BBX 5 15 2 -1
BITMAP
F8
F8
F8
F8
F8
00
00
00
00
00
F8
F8
F8
F8
F8
ENDCHAR
STARTCHAR cid28
ENCODING 59
SWIDTH 376 0
DWIDTH 9 0
BBX 5 18 2 -5
BITMAP
F8
F8
F8
F8
F0
00
00
00
00
00
F8
F8
F8
F8
78
30
30
30
ENDCHAR
STARTCHAR cid29
ENCODING 60
SWIDTH 458 0
DWIDTH 11 0
BBX 10 14 0 -1
BITMAP
0300
0780
1FC0
3F00
7E00
F800
7000
7000
7C00
3E00
1F80
0FC0
0780
0300
ENDCHAR
STARTCHAR cid30
ENCODING 61
SWIDTH 688 0
DWIDTH 17 0
BBX 12 11 2 3
BITMAP
FFF0
FFF0
FFF0
FFF0
0000
0000
0000
FFF0
FFF0
FFF0
FFF0
ENDCHAR
STARTCHAR cid31
ENCODING 62
SWIDTH 505 0
DWIDTH 12 0
BBX 10 14 1 -1
BITMAP
3800
7C00
FE00
3F00
1F80
07C0
03C0
03C0
0F80
1F00
7E00
7C00
3800
1000
ENDCHAR
STARTCHAR cid32
ENCODING 63
SWIDTH 704 0
DWIDTH 17 0
BBX 15 20 1 -1
BITMAP
1FF0
3FF8
7FFC
FFFE
F03E
F03E
F03C
F03C
003C
007C
01F8
03F0
0780
0780
0780
0000
0000
0780
0780
0780
ENDCHAR
STARTCHAR cid33
ENCODING 64
SWIDTH 858 0
DWIDTH 21 0
BBX 18 21 1 -3
BITMAP
01F800
1FFC00
1FFE00
3F0F00
3BE780
73F3C0
F3F9C0
E01DC0
E1FDC0
E3FDC0
E7F9C0
6739C0
7739C0
7739C0
773BC0
773F80
73FE00
3DE000
1E0000
0FF000
03F000
ENDCHAR
STARTCHAR cid34
ENCODING 65
SWIDTH 515 0
DWIDTH 12 0
BBX 11 20 1 -1
BITMAP
1E00
3F00
7F80
FFC0
E1E0
E1E0
E1E0
F1E0
F1C0
F1C0
F1C0
F1C0
FFC0
FFC0
7FC0
71C0
71C0
71C0
71C0
71C0
ENDCHAR
STARTCHAR cid35
ENCODING 66
SWIDTH 509 0
DWIDTH 12 0
BBX 11 20 1 -1
BITMAP
3E00
FF80
FFC0
FFE0
E1C0
E1C0
F1C0
F1C0
F1C0
F1C0
F3C0
FF00
FF80
FFC0
71C0
71C0
71C0
7FC0
7F80
7E00
ENDCHAR
STARTCHAR cid36
ENCODING 67
SWIDTH 510 0
DWIDTH 12 0
BBX 10 20 1 -1
BITMAP
3E00
3F00
7F80
FFC0
E1C0
E1C0
E1C0
E1C0
E1C0
E1C0
E000
E000
E000
E000
E3C0
E3C0
E3C0
7FC0
3F00
1E00
ENDCHAR
STARTCHAR cid37
ENCODING 68
SWIDTH 517 0
DWIDTH 12 0
BBX 11 20 1 -1
BITMAP
3F00
FF80
FFC0
FFE0
E1E0
E1E0
E1E0
E1E0
E1C0
E1C0
E1C0
E1C0
E1C0
E1C0
E1C0
E1C0
FFC0
FF80
FF00
FE00
ENDCHAR
STARTCHAR cid38
ENCODING 69
SWIDTH 468 0
DWIDTH 11 0
BBX 10 20 1 -1
BITMAP
FFC0
FFC0
FFC0
FF80
E000
E000
E000
E000
E000
E000
FF00
FF00
FF00
7800
7000
7000
7F80
7F80
7F80
7F80
ENDCHAR
STARTCHAR cid39
ENCODING 70
SWIDTH 457 0
DWIDTH 11 0
BBX 9 20 1 -1
BITMAP
7F80
FF80
FF80
FF80
FF80
F000
F000
F000
F000
F000
F000
FF00
FF00
FF00
F000
F000
7000
7000
7000
7000
ENDCHAR
STARTCHAR cid40
ENCODING 71
SWIDTH 548 0
DWIDTH 13 0
BBX 11 20 1 -1
BITMAP
1F80
1FC0
3FC0
7FE0
F1E0
F1E0
F1E0
F000
F000
F000
F000
F000
77E0
77E0
77E0
71E0
71E0
7FC0
3F80
1F00
ENDCHAR
STARTCHAR cid41
ENCODING 72
SWIDTH 518 0
DWIDTH 12 0
BBX 11 20 1 -1
BITMAP
F1E0
F1E0
F1E0
F1E0
F1E0
F1E0
F1E0
F1E0
F1E0
F1E0
F1C0
FFC0
FFC0
FFC0
F1C0
F1C0
F1C0
F1C0
F1C0
F1C0
ENDCHAR
STARTCHAR cid42
ENCODING 73
SWIDTH 237 0
DWIDTH 6 0
BBX 4 20 1 -1
BITMAP
F0
F0
F0
F0
F0
F0
F0
F0
F0
F0
F0
F0
F0
F0
F0
F0
F0
F0
F0
F0
ENDCHAR
STARTCHAR cid43
ENCODING 74
SWIDTH 524 0
DWIDTH 13 0
BBX 11 20 1 -1
BITMAP
01E0
01E0
01E0
01E0
01E0
01E0
01C0
01C0
01C0
01C0
01C0
01C0
01C0
F1C0
F1C0
F1C0
F1C0
7F80
3F80
1F00
ENDCHAR
STARTCHAR cid44
ENCODING 75
SWIDTH 498 0
DWIDTH 12 0
BBX 10 20 1 -1
BITMAP
F000
F380
F3C0
F780
F700
FF00
FE00
FE00
FC00
F800
F800
F000
F800
FC00
FC00
FE00
FFC0
77C0
77C0
73C0
ENDCHAR
STARTCHAR cid45
ENCODING 76
SWIDTH 383 0
DWIDTH 9 0
BBX 8 20 1 -1
BITMAP
F0
F0
F0
F0
F0
F0
F0
F0
F0
F0
F0
F0
F0
F0
F0
E0
FE
FE
FE
FF
ENDCHAR
STARTCHAR cid46
ENCODING 77
SWIDTH 662 0
DWIDTH 16 0
BBX 14 20 1 -1
BITMAP
F03C
F03C
F07C
F87C
F87C
F87C
F87C
FCFC
FCFC
FCFC
FCFC
EDFC
EFFC
EFBC
E7BC
E7BC
E7BC
E03C
E03C
E03C
ENDCHAR
STARTCHAR cid47
ENCODING 78
SWIDTH 563 0
DWIDTH 14 0
BBX 12 20 1 -1
BITMAP
E0F0
F0F0
F0F0
F0F0
F8F0
F8F0
FCF0
FCF0
FCE0
FEE0
FEE0
FEE0
F7E0
F7E0
F3E0
F3E0
F3E0
F1E0
F1E0
F0E0
ENDCHAR
STARTCHAR cid48
ENCODING 79
SWIDTH 532 0
DWIDTH 13 0
BBX 11 20 1 -1
BITMAP
1F00
3F80
7F80
FFC0
E3E0
E1E0
E1E0
E1E0
E1E0
F1C0
F1C0
F1C0
F1C0
F1C0
F1C0
F1C0
F1C0
7F80
3F80
1F00
ENDCHAR
STARTCHAR cid49
ENCODING 80
SWIDTH 534 0
DWIDTH 13 0
BBX 11 20 1 -1
BITMAP
FF00
FF80
FFC0
FFE0
F1E0
F1E0
F1E0
F1E0
F1E0
F1E0
F1C0
F1C0
F1C0
FFC0
FF00
F200
F000
F000
F000
F000
ENDCHAR
STARTCHAR cid50
ENCODING 81
SWIDTH 559 0
DWIDTH 13 0
BBX 12 25 1 -6
BITMAP
1F80
3F80
7FC0
7FE0
E3F0
E0F0
F0F0
F0E0
F0E0
F0E0
F0E0
F0E0
F0E0
F0E0
F0E0
F0E0
F0E0
7FC0
3F80
1F00
0700
0700
03C0
03C0
03C0
ENDCHAR
STARTCHAR cid51
ENCODING 82
SWIDTH 508 0
DWIDTH 12 0
BBX 11 20 1 -1
BITMAP
FF00
FF80
FFC0
FFE0
E1E0
E1C0
E1C0
E1C0
E1C0
E1C0
E1C0
E3C0
FFC0
FF80
FE00
EE00
F700
F7C0
F3C0
F3C0
ENDCHAR
STARTCHAR cid52
ENCODING 83
SWIDTH 544 0
DWIDTH 13 0
BBX 11 20 1 -1
BITMAP
1F00
3F80
7FC0
FFE0
F0E0
F0E0
F0E0
F0E0
F000
F000
FF00
7F80
1FC0
00E0
00E0
F0E0
F0E0
FFC0
3F80
1F00
ENDCHAR
STARTCHAR cid53
ENCODING 84
SWIDTH 524 0
DWIDTH 13 0
BBX 11 20 1 -1
BITMAP
FFE0
FFE0
FFE0
FFE0
FFE0
1E00
1E00
1E00
1E00
1E00
1E00
1E00
1E00
1E00
1E00
1E00
1E00
1E00
1E00
1E00
ENDCHAR
STARTCHAR cid54
ENCODING 85
SWIDTH 530 0
DWIDTH 13 0
BBX 11 20 1 -1
BITMAP
F000
F0E0
F0E0
F0E0
F0E0
F0E0
F0E0
F0E0
F0E0
F1E0
F1E0
F1E0
F1E0
F1E0
F1E0
F1E0
FFC0
7F80
3F80
1F00
ENDCHAR
STARTCHAR cid55
ENCODING 86
SWIDTH 546 0
DWIDTH 13 0
BBX 11 20 1 -1
BITMAP
30C0
F0E0
F0E0
F0E0
F1E0
F9E0
79C0
79C0
79C0
79C0
7BC0
3B80
3B80
3F80
3F80
3F80
1F00
1F00
1F00
1F00
ENDCHAR
STARTCHAR cid56
ENCODING 87
SWIDTH 724 0
DWIDTH 17 0
BBX 16 20 1 -1
BITMAP
F38F
F38E
F38E
F78E
F7CE
F7CE
F7CE
F7CE
77DE
7EFE
7EFE
7EFE
7EFC
7E7C
7E7C
7C7C
7C7C
7C7C
7C3C
3C3C
ENDCHAR
STARTCHAR cid57
ENCODING 88
SWIDTH 485 0
DWIDTH 12 0
BBX 10 20 1 -1
BITMAP
7380
F3C0
7380
7F80
7F00
3F00
3F00
3E00
1E00
1E00
1E00
1E00
3E00
3F00
3F00
7700
7780
7380
F380
E3C0
ENDCHAR
STARTCHAR cid58
ENCODING 89
SWIDTH 482 0
DWIDTH 12 0
BBX 10 20 1 -1
BITMAP
E3C0
E3C0
E3C0
E3C0
E3C0
E3C0
E3C0
E380
E380
E380
E380
E380
7F00
3E00
1C00
1C00
1C00
1C00
1C00
1C00
ENDCHAR
STARTCHAR cid59
ENCODING 90
SWIDTH 502 0
DWIDTH 12 0
BBX 10 20 1 -1
BITMAP
FF00
FF80
FF80
FFC0
FFC0
03C0
0380
0780
0F00
0E00
1E00
1C00
3800
7800
7000
E000
FFC0
FFC0
FFC0
7FC0
ENDCHAR
STARTCHAR cid60
ENCODING 91
SWIDTH 487 0
DWIDTH 12 0
BBX 9 24 1 -2
BITMAP
C000
FF80
FF80
FF80
7F80
7800
7800
7800
7800
7800
7800
7800
7800
7800
7800
7800
7800
7800
7800
7800
7F00
7F00
7F80
7F80
ENDCHAR
STARTCHAR cid97
ENCODING 92
SWIDTH 634 0
DWIDTH 15 0
BBX 13 23 1 -2
BITMAP
3000
F000
F800
7800
7C00
3C00
3C00
1E00
1E00
0F00
0F00
0F80
0780
0780
03C0
03C0
01E0
01E0
01E0
00F0
00F0
0078
0070
ENDCHAR
STARTCHAR cid62
ENCODING 93
SWIDTH 485 0
DWIDTH 12 0
BBX 8 23 2 -2
BITMAP
FF
FF
FF
FF
C7
07
07
07
07
07
07
07
0F
0F
0F
0F
0F
0F
0F
FF
FF
FF
FF
ENDCHAR
STARTCHAR cid63
ENCODING 94
SWIDTH 620 0
DWIDTH 15 0
BBX 13 9 1 9
BITMAP
0400
0F80
1FC0
3FE0
7DE0
FDF0
F8F8
7070
2060
ENDCHAR
STARTCHAR cid64
ENCODING 95
SWIDTH 425 0
DWIDTH 10 0
BBX 8 4 1 -1
BITMAP
FF
FF
FF
FF
ENDCHAR
STARTCHAR cid65
ENCODING 96
SWIDTH 345 0
DWIDTH 8 0
BBX 7 7 1 15
BITMAP
30
78
F8
7C
3C
3E
18
ENDCHAR
STARTCHAR cid66
ENCODING 97
SWIDTH 511 0
DWIDTH 12 0
BBX 11 15 1 -1
BITMAP
7E00
7F00
7F80
01C0
01C0
7F80
FF80
E380
E380
E380
E380
E380
EFE0
7FC0
3FC0
ENDCHAR
STARTCHAR cid67
ENCODING 98
SWIDTH 491 0
DWIDTH 12 0
BBX 10 20 1 -1
BITMAP
E000
E000
E000
E000
E000
E000
FF00
FF80
FFC0
E1C0
E1C0
E1C0
E1C0
E1C0
E1C0
E180
E180
FF80
FF00
FF00
ENDCHAR
STARTCHAR cid68
ENCODING 99
SWIDTH 478 0
DWIDTH 11 0
BBX 10 15 1 -1
BITMAP
1C00
3F00
7F80
FFC0
E1C0
E1C0
E000
E000
E000
E000
E3C0
E3C0
FF80
7F80
3F00
ENDCHAR
STARTCHAR cid69
ENCODING 100
SWIDTH 480 0
DWIDTH 12 0
BBX 10 20 1 -1
BITMAP
01C0
01C0
01C0
01C0
01C0
01C0
3FC0
7FC0
FFC0
E1C0
E1C0
E1C0
E180
E180
E180
E180
6180
7F80
7F80
3F80
ENDCHAR
STARTCHAR cid70
ENCODING 101
SWIDTH 482 0
DWIDTH 12 0
BBX 10 14 1 -1
BITMAP
3F00
7F80
FFC0
E1C0
E1C0
FFC0
FFC0
F000
E000
E3C0
E380
FF80
7F00
3E00
ENDCHAR
STARTCHAR cid71
ENCODING 102
SWIDTH 433 0
DWIDTH 10 0
BBX 9 20 1 -1
BITMAP
0F80
1F80
3F80
7F80
7B80
3800
3800
3980
FF80
FF80
FF80
3800
3800
3800
3800
3800
3800
3800
3800
3800
ENDCHAR
STARTCHAR cid72
ENCODING 103
SWIDTH 475 0
DWIDTH 11 0
BBX 10 20 1 -6
BITMAP
0600
3F00
7F80
FFC0
E3C0
E3C0
E3C0
E3C0
E380
E380
E380
E380
7F80
3F80
1F80
0380
E380
FF80
7F00
3E00
ENDCHAR
STARTCHAR cid73
ENCODING 104
SWIDTH 498 0
DWIDTH 12 0
BBX 10 20 1 -1
BITMAP
F000
F000
F000
F000
F000
EE00
EF00
FF80
FFC0
E1C0
E1C0
E1C0
E1C0
E1C0
E1C0
E1C0
E1C0
E1C0
E1C0
E3C0
ENDCHAR
STARTCHAR cid74
ENCODING 105
SWIDTH 236 0
DWIDTH 6 0
BBX 4 20 1 -1
BITMAP
F0
F0
F0
F0
00
00
F0
F0
F0
F0
F0
F0
E0
E0
E0
E0
E0
E0
E0
E0
ENDCHAR
STARTCHAR cid75
ENCODING 106
SWIDTH 292 0
DWIDTH 7 0
BBX 6 25 0 -6
BITMAP
3C
3C
3C
3C
00
00
3C
3C
3C
3C
3C
3C
3C
3C
3C
3C
3C
3C
3C
3C
3C
F8
F8
F0
E0
ENDCHAR
STARTCHAR cid76
ENCODING 107
SWIDTH 482 0
DWIDTH 12 0
BBX 10 20 1 -1
BITMAP
F000
F000
F000
F000
F000
F000
F780
F700
FF00
FE00
FC00
F800
F800
FC00
EC00
EE00
EE00
E7C0
E7C0
E3C0
ENDCHAR
STARTCHAR cid77
ENCODING 108
SWIDTH 233 0
DWIDTH 6 0
BBX 4 20 1 -1
BITMAP
F0
F0
F0
F0
F0
F0
F0
F0
F0
F0
E0
E0
E0
E0
E0
E0
E0
E0
E0
E0
ENDCHAR
STARTCHAR cid78
ENCODING 109
SWIDTH 687 0
DWIDTH 16 0
BBX 15 15 1 -1
BITMAP
1000
3CF0
7FF8
FFFC
E39E
E39E
E39E
E39E
E39C
E39C
E39C
E39C
E39C
E39C
E01C
ENDCHAR
STARTCHAR cid79
ENCODING 110
SWIDTH 475 0
DWIDTH 11 0
BBX 10 14 1 -1
BITMAP
1F00
3F00
7F80
E1C0
E1C0
E1C0
E1C0
E180
E180
E180
E180
E180
E180
E180
ENDCHAR
STARTCHAR cid80
ENCODING 111
SWIDTH 476 0
DWIDTH 11 0
BBX 10 15 1 -1
BITMAP
1E00
3F00
7F80
FFC0
E3C0
E380
E380
E380
E380
E380
E380
E380
FB80
7F00
3E00
ENDCHAR
STARTCHAR cid81
ENCODING 112
SWIDTH 464 0
DWIDTH 11 0
BBX 10 20 1 -6
BITMAP
FE00
FF00
FF80
EFC0
E3C0
E380
E380
E380
E380
E380
E380
E380
FF00
FE00
FC00
E000
E000
E000
E000
E000
ENDCHAR
STARTCHAR cid82
ENCODING 113
SWIDTH 458 0
DWIDTH 11 0
BBX 9 20 1 -6
BITMAP
3F80
7F80
7F80
FF80
E380
E380
E380
E380
E380
E380
E380
E380
7F80
3F80
1F80
0380
0380
0380
0380
0380
ENDCHAR
STARTCHAR cid83
ENCODING 114
SWIDTH 395 0
DWIDTH 9 0
BBX 8 14 1 -1
BITMAP
F7
FF
FF
F8
F0
F0
F0
F0
E0
E0
E0
E0
E0
E0
ENDCHAR
STARTCHAR cid84
ENCODING 115
SWIDTH 491 0
DWIDTH 12 0
BBX 10 15 1 -1
BITMAP
1E00
3F00
7F80
FFC0
F3C0
F040
F000
FF00
3F80
1FC0
03C0
F380
FF80
7F00
1E00
ENDCHAR
STARTCHAR cid85
ENCODING 116
SWIDTH 428 0
DWIDTH 10 0
BBX 9 18 1 -1
BITMAP
4000
3800
3800
3800
FF00
FF00
FF00
3800
3800
3800
3800
3800
3800
3800
3800
3F80
1F80
0F80
ENDCHAR
STARTCHAR cid86
ENCODING 117
SWIDTH 520 0
DWIDTH 12 0
BBX 11 14 1 -1
BITMAP
F1C0
F1C0
F1C0
F1C0
F1C0
F1C0
F1C0
F1C0
F1C0
F1C0
F7C0
7FE0
3FE0
1E60
ENDCHAR
STARTCHAR cid87
ENCODING 118
SWIDTH 512 0
DWIDTH 12 0
BBX 10 14 1 -1
BITMAP
F1C0
F1C0
71C0
71C0
73C0
7B80
3B80
3B80
3B80
3B00
1F00
1F00
1F00
1E00
ENDCHAR
STARTCHAR cid88
ENCODING 119
SWIDTH 602 0
DWIDTH 14 0
BBX 13 14 1 -1
BITMAP
E738
E738
E738
EF38
EF70
EFF0
EFF0
FFF0
FDF0
7DF0
79F0
79F0
78F0
78F0
ENDCHAR
STARTCHAR cid89
ENCODING 120
SWIDTH 462 0
DWIDTH 11 0
BBX 9 15 1 -1
BITMAP
2200
F380
F780
7700
7700
3E00
3E00
1C00
1C00
3E00
3E00
7F00
7700
E780
E380
ENDCHAR
STARTCHAR cid90
ENCODING 121
SWIDTH 481 0
DWIDTH 12 0
BBX 10 20 1 -6
BITMAP
0300
F3C0
F3C0
F3C0
F3C0
F3C0
F380
F380
F380
F380
F380
F380
FF80
3F80
1F80
0700
0700
0700
0700
0700
ENDCHAR
STARTCHAR cid91
ENCODING 122
SWIDTH 496 0
DWIDTH 12 0
BBX 10 14 1 -1
BITMAP
FF80
FFC0
FFC0
03C0
0780
0F00
1E00
1C00
3800
7000
E000
FFC0
FFC0
7F80
ENDCHAR
STARTCHAR cid92
ENCODING 123
SWIDTH 517 0
DWIDTH 12 0
BBX 8 23 2 -2
BITMAP
0C
1E
3F
7C
F8
78
78
78
38
3C
78
F0
78
3C
38
38
38
78
78
7C
3F
1E
04
ENDCHAR
STARTCHAR cid99
ENCODING 124
SWIDTH 279 0
DWIDTH 7 0
BBX 4 21 1 -1
BITMAP
F0
F0
F0
F0
F0
F0
F0
F0
F0
F0
F0
F0
F0
F0
F0
F0
F0
F0
F0
F0
F0
ENDCHAR
STARTCHAR cid94
ENCODING 125
SWIDTH 524 0
DWIDTH 13 0
BBX 7 23 4 -2
BITMAP
60
F0
F8
7C
3E
1E
3C
3C
3C
38
3C
1E
3C
38
38
3C
3C
1C
1C
7E
F8
F0
60
ENDCHAR
STARTCHAR cid100
ENCODING 126
SWIDTH 586 0
DWIDTH 14 0
BBX 11 6 2 14
BITMAP
1000
78C0
FDC0
EFE0
4780
0200
ENDCHAR
STARTCHAR cid101
ENCODING 161
SWIDTH 411 0
DWIDTH 10 0
BBX 5 19 2 -5
BITMAP
78
78
78
00
78
78
78
78
78
78
78
78
78
F8
F8
F8
F8
F8
F8
ENDCHAR
STARTCHAR cid102
ENCODING 162
SWIDTH 533 0
DWIDTH 13 0
BBX 11 17 1 -2
BITMAP
0E00
1E00
3F80
7FC0
FFE0
EEE0
EEE0
EE00
EE00
EE00
EE00
EEE0
EEE0
FFE0
7FC0
3F80
0E00
ENDCHAR
STARTCHAR cid103
ENCODING 163
SWIDTH 537 0
DWIDTH 13 0
BBX 11 21 1 -1
BITMAP
0F80
1F80
3F80
7F80
7F80
3800
3800
3800
3800
FE00
FE00
FE00
F800
3800
3800
3800
3800
3800
FFE0
FFE0
FFE0
ENDCHAR
STARTCHAR cid107
ENCODING 164
SWIDTH 645 0
DWIDTH 15 0
BBX 13 13 1 0
BITMAP
6010
FFB8
7FF8
3FF0
7870
3870
3870
38F0
38F0
3FF0
7FF8
F038
2010
ENDCHAR
STARTCHAR cid61
ENCODING 165
SWIDTH 525 0
DWIDTH 13 0
BBX 10 20 1 -1
BITMAP
11C0
F1C0
F1C0
F3C0
73C0
7380
7380
7380
7F80
3F00
1E00
0C00
3F80
3F80
1C00
1C00
3F80
3F80
1E00
1E00
ENDCHAR
STARTCHAR cid93
ENCODING 166
SWIDTH 410 0
DWIDTH 10 0
BBX 4 19 3 -1
BITMAP
F0
F0
F0
F0
F0
F0
F0
00
00
00
00
F0
F0
F0
F0
F0
F0
F0
F0
ENDCHAR
STARTCHAR cid720
ENCODING 167
SWIDTH 622 0
DWIDTH 15 0
BBX 13 21 1 -2
BITMAP
07E0
0FF0
1FF8
1C38
1C38
1C00
1FC0
3FE0
7FF0
E038
E038
E038
FFF0
3FE0
1FC0
03C0
E3C0
E3C0
FF80
7F00
3E00
ENDCHAR
STARTCHAR cid647
ENCODING 168
SWIDTH 482 0
DWIDTH 12 0
BBX 9 3 1 21
BITMAP
F380
F380
F380
ENDCHAR
STARTCHAR cid152
ENCODING 169
SWIDTH 791 0
DWIDTH 19 0
BBX 17 21 1 -2
BITMAP
001000
07F800
1FFC00
3F9E00
780700
73E380
F7F380
EFFB80
EE3B80
EE3B80
E60380
E60380
660380
763B80
763B80
77F380
73E780
780700
1C0E00
0FFC00
07F800
ENDCHAR
STARTCHAR cid140
ENCODING 170
SWIDTH 337 0
DWIDTH 8 0
BBX 6 8 1 18
BITMAP
70
78
38
F8
48
48
7C
34
ENDCHAR
STARTCHAR cid109
ENCODING 171
SWIDTH 649 0
DWIDTH 16 0
BBX 14 12 1 0
BITMAP
0C30
1E78
3EF8
7DF0
F3E0
E3C0
F3C0
79E0
3CF0
1E7C
0E38
0410
ENDCHAR
STARTCHAR cid153
ENCODING 172
SWIDTH 586 0
DWIDTH 14 0
BBX 12 7 1 2
BITMAP
FFF0
FFF0
FFF0
FFF0
00F0
00F0
00F0
ENDCHAR
STARTCHAR cid151
ENCODING 173
SWIDTH 517 0
DWIDTH 12 0
BBX 10 5 1 6
BITMAP
FFC0
FFC0
7FC0
7FC0
7FC0
ENDCHAR
STARTCHAR cid154
ENCODING 174
SWIDTH 791 0
DWIDTH 19 0
BBX 17 21 1 -2
BITMAP
001000
07F800
1FFC00
3F9E00
780700
77E380
F7F380
E63B80
E63B80
E63B80
E63B80
E63B80
663380
77E380
77C380
776380
777F80
780700
1C0E00
0FFC00
07F800
ENDCHAR
STARTCHAR cid129
ENCODING 175
SWIDTH 438 0
DWIDTH 11 0
BBX 9 4 1 21
BITMAP
F000
FF80
FF80
FF00
ENDCHAR
STARTCHAR cid707
ENCODING 176
SWIDTH 311 0
DWIDTH 7 0
BBX 6 6 1 20
BITMAP
70
F8
CC
CC
F8
70
ENDCHAR
STARTCHAR cid694
ENCODING 177
SWIDTH 736 0
DWIDTH 18 0
BBX 15 14 1 -1
BITMAP
03C0
03C0
03C0
7FFE
7FFE
7FFE
03C0
03C0
03C0
0000
C000
7FFE
7FFE
7FFE
ENDCHAR
STARTCHAR cid157
ENCODING 178
SWIDTH 261 0
DWIDTH 6 0
BBX 4 7 1 19
BITMAP
F0
90
90
10
70
80
F0
ENDCHAR
STARTCHAR cid158
ENCODING 179
SWIDTH 255 0
DWIDTH 6 0
BBX 4 7 1 19
BITMAP
F0
10
70
70
10
90
F0
ENDCHAR
STARTCHAR cid645
ENCODING 180
SWIDTH 321 0
DWIDTH 8 0
BBX 6 5 1 20
BITMAP
10
38
7C
F0
60
ENDCHAR
STARTCHAR cid159
ENCODING 181
SWIDTH 540 0
DWIDTH 13 0
BBX 11 19 1 -6
BITMAP
F1E0
F1E0
F1E0
F1E0
F1E0
F1C0
F1C0
F1C0
F1C0
F1C0
F7C0
FFE0
FFE0
FE60
F000
F000
F000
F000
F000
ENDCHAR
STARTCHAR cid778
ENCODING 182
SWIDTH 542 0
DWIDTH 13 0
BBX 11 20 1 -1
BITMAP
1FE0
7FE0
FFE0
FCE0
FCE0
FCE0
FCE0
FCE0
FCE0
3CE0
1CE0
1CE0
1CE0
1CE0
1CE0
1CE0
1CE0
1CE0
1CE0
1CE0
ENDCHAR
STARTCHAR cid117
ENCODING 183
SWIDTH 487 0
DWIDTH 12 0
BBX 5 4 3 5
BITMAP
F8
F8
F8
F8
ENDCHAR
STARTCHAR cid134
ENCODING 184
SWIDTH 252 0
DWIDTH 6 0
BBX 4 4 1 -5
BITMAP
C0
E0
30
70
ENDCHAR
STARTCHAR cid160
ENCODING 185
SWIDTH 217 0
DWIDTH 5 0
BBX 3 7 1 19
BITMAP
E0
E0
60
40
40
40
40
ENDCHAR
STARTCHAR cid144
ENCODING 186
SWIDTH 278 0
DWIDTH 7 0
BBX 5 7 1 19
BITMAP
70
F0
D8
D0
D0
D0
70
ENDCHAR
STARTCHAR cid123
ENCODING 187
SWIDTH 675 0
DWIDTH 16 0
BBX 14 12 1 0
BITMAP
20C0
71E0
FDF0
3EF8
1F7C
0F3C
0F1C
1E7C
7CF8
F9E0
71C0
2080
ENDCHAR
STARTCHAR cid161
ENCODING 188
SWIDTH 677 0
DWIDTH 16 0
BBX 14 21 1 -1
BITMAP
F070
F070
F060
30E0
30E0
31C0
31C0
3180
7380
7300
670C
06CC
0ECC
0ECC
0CCC
1CCC
18FC
387C
300C
300C
701C
ENDCHAR
STARTCHAR cid162
ENCODING 189
SWIDTH 677 0
DWIDTH 16 0
BBX 14 21 1 -1
BITMAP
F070
F070
F060
30E0
30E0
31C0
31C0
3180
7380
7300
6700
0678
0EFC
0ECC
0CCC
1C0C
183C
3878
30C0
30DC
70F8
ENDCHAR
STARTCHAR cid163
ENCODING 190
SWIDTH 741 0
DWIDTH 18 0
BBX 15 21 1 -1
BITMAP
701C
783C
4C38
0C38
1C70
3870
1CE0
0CE0
CCC0
CDC0
7D82
03A2
03B6
0336
0766
0666
0E7E
0C3E
0C06
1C06
1806
ENDCHAR
STARTCHAR cid126
ENCODING 191
SWIDTH 724 0
DWIDTH 17 0
BBX 15 20 1 -6
BITMAP
03C0
03C0
03C0
0000
03C0
03C0
03C0
0BC0
1F80
7F00
7E00
7000
F01E
F01E
F01E
F01E
7FFC
7FF8
3FF8
1FF0
ENDCHAR
STARTCHAR cid164
ENCODING 192
SWIDTH 515 0
DWIDTH 12 0
BBX 11 26 1 -1
BITMAP
0800
1E00
3F00
0F00
0600
0000
1E00
3F00
7F80
FFC0
E1E0
E1E0
E1E0
F1E0
F1C0
F1C0
F1C0
F1C0
FFC0
FFC0
7FC0
71C0
71C0
71C0
71C0
71C0
ENDCHAR
STARTCHAR cid165
ENCODING 193
SWIDTH 515 0
DWIDTH 12 0
BBX 11 26 1 -1
BITMAP
0600
0F00
1F00
3E00
1C00
0000
1E00
3F00
7F80
FFC0
E1E0
E1E0
E1E0
F1E0
F1C0
F1C0
F1C0
F1C0
FFC0
FFC0
7FC0
71C0
71C0
71C0
71C0
71C0
ENDCHAR
STARTCHAR cid166
ENCODING 194
SWIDTH 515 0
DWIDTH 12 0
BBX 11 27 1 -1
BITMAP
0E00
1E00
3F00
7380
E1C0
6180
0000
1E00
3F00
7F80
FFC0
E1E0
E1E0
E1E0
F1E0
F1C0
F1C0
F1C0
F1C0
FFC0
FFC0
7FC0
71C0
71C0
71C0
71C0
71C0
ENDCHAR
STARTCHAR cid167
ENCODING 195
SWIDTH 515 0
DWIDTH 12 0
BBX 11 26 1 -1
BITMAP
1000
78C0
FFC0
EFC0
4700
0000
1E00
3F00
7F80
FFC0
E1E0
E1E0
E1E0
F1E0
F1C0
F1C0
F1C0
F1C0
FFC0
FFC0
7FC0
71C0
71C0
71C0
71C0
71C0
ENDCHAR
STARTCHAR cid168
ENCODING 196
SWIDTH 515 0
DWIDTH 12 0
BBX 11 25 1 -1
BITMAP
7380
7380
7380
0000
0000
1E00
3F00
7F80
FFC0
E1E0
E1E0
E1E0
F1E0
F1C0
F1C0
F1C0
F1C0
FFC0
FFC0
7FC0
71C0
71C0
71C0
71C0
71C0
ENDCHAR
STARTCHAR cid169
ENCODING 197
SWIDTH 515 0
DWIDTH 12 0
BBX 11 27 1 -1
BITMAP
0E00
1F00
3300
3300
1F00
0E00
0000
1E00
3F00
7F80
FFC0
E1E0
E1E0
E1E0
F1E0
F1C0
F1C0
F1C0
F1C0
FFC0
FFC0
7FC0
71C0
71C0
71C0
71C0
71C0
ENDCHAR
STARTCHAR cid139
ENCODING 198
SWIDTH 737 0
DWIDTH 18 0
BBX 16 20 1 -1
BITMAP
0FFF
0FFF
0FFF
1FFF
1FC0
3FC0
3BC0
3BC0
73C0
73C0
F3DE
E3FE
FFFE
FFC0
FFC0
E3C0
E3FF
E3FF
F3FF
F3FF
ENDCHAR
STARTCHAR cid170
ENCODING 199
SWIDTH 510 0
DWIDTH 12 0
BBX 10 24 1 -5
BITMAP
3E00
3F00
7F80
FFC0
E1C0
E1C0
E1C0
E1C0
E1C0
E1C0
E000
E000
E000
E000
E3C0
E3C0
E3C0
7FC0
3F00
1E00
0C00
0E00
0300
0700
ENDCHAR
STARTCHAR cid171
ENCODING 200
SWIDTH 468 0
DWIDTH 11 0
BBX 10 26 1 -1
BITMAP
1800
3C00
7E00
1F00
0E00
0000
FFC0
FFC0
FFC0
FF80
E000
E000
E000
E000
E000
E000
FF00
FF00
FF00
7800
7000
7000
7F80
7F80
7F80
7F80
ENDCHAR
STARTCHAR cid172
ENCODING 201
SWIDTH 468 0
DWIDTH 11 0
BBX 10 26 1 -1
BITMAP
0400
0E00
3F00
3C00
1800
0000
FFC0
FFC0
FFC0
FF80
E000
E000
E000
E000
E000
E000
FF00
FF00
FF00
7800
7000
7000
7F80
7F80
7F80
7F80
ENDCHAR
STARTCHAR cid173
ENCODING 202
SWIDTH 468 0
DWIDTH 11 0
BBX 10 27 1 -1
BITMAP
1C00
1E00
3F00
7380
E380
4100
0000
FFC0
FFC0
FFC0
FF80
E000
E000
E000
E000
E000
E000
FF00
FF00
FF00
7800
7000
7000
7F80
7F80
7F80
7F80
ENDCHAR
STARTCHAR cid174
ENCODING 203
SWIDTH 468 0
DWIDTH 11 0
BBX 10 25 1 -1
BITMAP
7380
7380
7380
0000
0000
FFC0
FFC0
FFC0
FF80
E000
E000
E000
E000
E000
E000
FF00
FF00
FF00
7800
7000
7000
7F80
7F80
7F80
7F80
ENDCHAR
STARTCHAR cid175
ENCODING 204
SWIDTH 331 0
DWIDTH 8 0
BBX 6 26 1 -1
BITMAP
60
70
FC
7C
18
00
78
78
78
78
78
78
78
78
78
78
78
78
78
78
78
78
78
78
78
78
ENDCHAR
STARTCHAR cid176
ENCODING 205
SWIDTH 335 0
DWIDTH 8 0
BBX 6 26 1 -1
BITMAP
18
3C
7C
F8
60
00
78
78
78
78
78
78
78
78
78
78
78
78
78
78
78
78
78
78
78
78
ENDCHAR
STARTCHAR cid177
ENCODING 206
SWIDTH 442 0
DWIDTH 11 0
BBX 9 27 1 -1
BITMAP
1C00
3E00
7F00
F700
E380
4100
0000
3C00
3C00
3C00
3C00
3C00
3C00
3C00
3C00
3C00
3C00
3C00
3C00
3C00
3C00
3C00
3C00
3C00
3C00
3C00
3C00
ENDCHAR
STARTCHAR cid178
ENCODING 207
SWIDTH 395 0
DWIDTH 9 0
BBX 8 25 1 -1
BITMAP
E7
E7
E7
00
00
7C
7C
7C
7C
3C
3C
38
38
38
38
38
38
38
38
38
38
38
38
38
38
ENDCHAR
STARTCHAR cid179
ENCODING 208
SWIDTH 554 0
DWIDTH 13 0
BBX 13 20 0 -1
BITMAP
0FC0
7FE0
7FE0
7FF0
3878
3870
3870
3870
3870
FC70
7C70
7C70
3870
3870
38F0
38E0
3FE0
3FE0
3FC0
3F80
ENDCHAR
STARTCHAR cid180
ENCODING 209
SWIDTH 563 0
DWIDTH 14 0
BBX 12 26 1 -1
BITMAP
1800
3C40
FFE0
67C0
0300
0000
E0F0
F0F0
F0F0
F0F0
F8F0
F8F0
FCF0
FCF0
FCE0
FEE0
FEE0
FEE0
F7E0
F7E0
F3E0
F3E0
F3E0
F1E0
F1E0
F0E0
ENDCHAR
STARTCHAR cid181
ENCODING 210
SWIDTH 532 0
DWIDTH 13 0
BBX 11 26 1 -1
BITMAP
0800
1E00
3F00
0F00
0600
0000
1F00
3F80
7F80
FFC0
E3E0
E1E0
E1E0
E1E0
E1E0
F1C0
F1C0
F1C0
F1C0
F1C0
F1C0
F1C0
F1C0
7F80
3F80
1F00
ENDCHAR
STARTCHAR cid182
ENCODING 211
SWIDTH 532 0
DWIDTH 13 0
BBX 11 26 1 -1
BITMAP
0600
0F00
1F00
3E00
1C00
0000
1F00
3F80
7F80
FFC0
E3E0
E1E0
E1E0
E1E0
E1E0
F1C0
F1C0
F1C0
F1C0
F1C0
F1C0
F1C0
F1C0
7F80
3F80
1F00
ENDCHAR
STARTCHAR cid183
ENCODING 212
SWIDTH 532 0
DWIDTH 13 0
BBX 11 27 1 -1
BITMAP
0E00
1F00
1F80
3BC0
71C0
2080
0000
1F00
3F80
7F80
FFC0
E3E0
E1E0
E1E0
E1E0
E1E0
F1C0
F1C0
F1C0
F1C0
F1C0
F1C0
F1C0
F1C0
7F80
3F80
1F00
ENDCHAR
STARTCHAR cid184
ENCODING 213
SWIDTH 532 0
DWIDTH 13 0
BBX 11 26 1 -1
BITMAP
1800
7CC0
FFE0
6FC0
4300
0000
1F00
3F80
7F80
FFC0
E3E0
E1E0
E1E0
E1E0
E1E0
F1C0
F1C0
F1C0
F1C0
F1C0
F1C0
F1C0
F1C0
7F80
3F80
1F00
ENDCHAR
STARTCHAR cid185
ENCODING 214
SWIDTH 532 0
DWIDTH 13 0
BBX 11 25 1 -1
BITMAP
7380
7380
7380
0000
0000
1F00
3F80
7F80
FFC0
E3E0
E1E0
E1E0
E1E0
E1E0
F1C0
F1C0
F1C0
F1C0
F1C0
F1C0
F1C0
F1C0
7F80
3F80
1F00
ENDCHAR
STARTCHAR cid695
ENCODING 215
SWIDTH 573 0
DWIDTH 14 0
BBX 10 10 2 3
BITMAP
4180
E3C0
FFC0
7F80
3F00
3F00
7F80
FFC0
F3C0
6180
ENDCHAR
STARTCHAR cid142
ENCODING 216
SWIDTH 532 0
DWIDTH 13 0
BBX 12 22 1 -2
BITMAP
0070
1FF0
3FE0
7FE0
FFC0
E3E0
E3E0
E3E0
E7E0
E7C0
E7C0
EFC0
EDC0
FDC0
FDC0
F9C0
F9C0
F9C0
7F80
7F00
FF00
C000
ENDCHAR
STARTCHAR cid187
ENCODING 217
SWIDTH 530 0
DWIDTH 13 0
BBX 11 26 1 -1
BITMAP
0800
1E00
3F00
0F00
0600
0000
F000
F0E0
F0E0
F0E0
F0E0
F0E0
F0E0
F0E0
F0E0
F1E0
F1E0
F1E0
F1E0
F1E0
F1E0
F1E0
FFC0
7F80
3F80
1F00
ENDCHAR
STARTCHAR cid188
ENCODING 218
SWIDTH 530 0
DWIDTH 13 0
BBX 11 26 1 -1
BITMAP
0600
0F00
1F00
3E00
1C00
0000
F000
F0E0
F0E0
F0E0
F0E0
F0E0
F0E0
F0E0
F0E0
F1E0
F1E0
F1E0
F1E0
F1E0
F1E0
F1E0
FFC0
7F80
3F80
1F00
ENDCHAR
STARTCHAR cid189
ENCODING 219
SWIDTH 530 0
DWIDTH 13 0
BBX 11 27 1 -1
BITMAP
0E00
1F00
1F80
3BC0
71C0
2080
0000
F000
F0E0
F0E0
F0E0
F0E0
F0E0
F0E0
F0E0
F0E0
F1E0
F1E0
F1E0
F1E0
F1E0
F1E0
F1E0
FFC0
7F80
3F80
1F00
ENDCHAR
STARTCHAR cid190
ENCODING 220
SWIDTH 530 0
DWIDTH 13 0
BBX 11 25 1 -1
BITMAP
7380
7380
7380
0000
0000
F000
F0E0
F0E0
F0E0
F0E0
F0E0
F0E0
F0E0
F0E0
F1E0
F1E0
F1E0
F1E0
F1E0
F1E0
F1E0
FFC0
7F80
3F80
1F00
ENDCHAR
STARTCHAR cid191
ENCODING 221
SWIDTH 482 0
DWIDTH 12 0
BBX 10 26 1 -1
BITMAP
0600
0F00
1F00
3E00
1C00
0000
E3C0
E3C0
E3C0
E3C0
E3C0
E3C0
E3C0
E380
E380
E380
E380
E380
7F00
3E00
1C00
1C00
1C00
1C00
1C00
1C00
ENDCHAR
STARTCHAR cid192
ENCODING 222
SWIDTH 480 0
DWIDTH 12 0
BBX 10 20 1 -1
BITMAP
E000
E000
E000
E000
FF00
FF80
FFC0
E3C0
E3C0
E3C0
E380
E380
E380
E380
FF00
FE00
F800
E000
E000
E000
ENDCHAR
STARTCHAR cid150
ENCODING 223
SWIDTH 490 0
DWIDTH 12 0
BBX 10 20 1 -1
BITMAP
3E00
7F00
FF80
FFC0
E1C0
E1C0
E1C0
E1C0
E1C0
F3C0
F780
F700
F7C0
F3C0
F1C0
F1C0
F1C0
F7C0
7780
7600
ENDCHAR
STARTCHAR cid193
ENCODING 224
SWIDTH 509 0
DWIDTH 12 0
BBX 11 21 1 -1
BITMAP
0800
1C00
3E00
1F00
0600
0200
7E00
7F00
7F80
01C0
01C0
7F80
FF80
E380
E380
E380
E380
E380
EFE0
7FC0
3FC0
ENDCHAR
STARTCHAR cid194
ENCODING 225
SWIDTH 511 0
DWIDTH 12 0
BBX 11 21 1 -1
BITMAP
0600
0E00
1F00
3E00
1C00
0800
7E00
7F00
7F80
01C0
01C0
7F80
FF80
E380
E380
E380
E380
E380
EFE0
7FC0
3FC0
ENDCHAR
STARTCHAR cid195
ENCODING 226
SWIDTH 511 0
DWIDTH 12 0
BBX 11 21 1 -1
BITMAP
1E00
3F00
3B80
7380
6180
0000
7E00
7F00
7F80
01C0
01C0
7F80
FF80
E380
E380
E380
E380
E380
EFE0
7FC0
3FC0
ENDCHAR
STARTCHAR cid196
ENCODING 227
SWIDTH 511 0
DWIDTH 12 0
BBX 11 20 1 -1
BITMAP
3800
7CC0
FFE0
6780
0200
7E00
7F00
7F80
01C0
01C0
7F80
FF80
E380
E380
E380
E380
E380
EFE0
7FC0
3FC0
ENDCHAR
STARTCHAR cid197
ENCODING 228
SWIDTH 510 0
DWIDTH 12 0
BBX 11 19 1 -1
BITMAP
7380
7380
7380
0000
7E00
7F00
7F80
01C0
01C0
7F80
FF80
E380
E380
E380
E380
E380
EFE0
7FC0
3FC0
ENDCHAR
STARTCHAR cid198
ENCODING 229
SWIDTH 507 0
DWIDTH 12 0
BBX 11 21 1 -1
BITMAP
1E00
3300
3300
3300
1E00
0000
7E00
7F00
7F80
01C0
01C0
7F80
FF80
E380
E380
E380
E380
E380
EFE0
7FC0
3FC0
ENDCHAR
STARTCHAR cid145
ENCODING 230
SWIDTH 805 0
DWIDTH 19 0
BBX 18 15 1 -1
BITMAP
7E2000
7F7F00
7FFF80
03FFC0
03E3C0
7FE380
FFFF80
E3FF80
E3F000
E3E000
E3E380
E3E380
EFFF80
7FFF00
3F3E00
ENDCHAR
STARTCHAR cid199
ENCODING 231
SWIDTH 478 0
DWIDTH 11 0
BBX 10 19 1 -5
BITMAP
1C00
3F00
7F80
FFC0
E1C0
E1C0
E000
E000
E000
E000
E3C0
E3C0
FF80
7F80
3F00
1800
1C00
0300
0E00
ENDCHAR
STARTCHAR cid200
ENCODING 232
SWIDTH 482 0
DWIDTH 12 0
BBX 10 21 1 -1
BITMAP
0800
1C00
3E00
1F00
0600
0200
0000
3F00
7F80
FFC0
E1C0
E1C0
FFC0
FFC0
F000
E000
E3C0
E380
FF80
7F00
3E00
ENDCHAR
STARTCHAR cid201
ENCODING 233
SWIDTH 482 0
DWIDTH 12 0
BBX 10 21 1 -1
BITMAP
0600
0E00
1F00
3E00
1C00
0800
0000
3F00
7F80
FFC0
E1C0
E1C0
FFC0
FFC0
F000
E000
E3C0
E380
FF80
7F00
3E00
ENDCHAR
STARTCHAR cid202
ENCODING 234
SWIDTH 482 0
DWIDTH 12 0
BBX 10 21 1 -1
BITMAP
1E00
3F00
7F00
F380
6180
0000
0000
3F00
7F80
FFC0
E1C0
E1C0
FFC0
FFC0
F000
E000
E3C0
E380
FF80
7F00
3E00
ENDCHAR
STARTCHAR cid203
ENCODING 235
SWIDTH 482 0
DWIDTH 12 0
BBX 10 19 1 -1
BITMAP
7380
7380
7380
0000
0000
3F00
7F80
FFC0
E1C0
E1C0
FFC0
FFC0
F000
E000
E3C0
E380
FF80
7F00
3E00
ENDCHAR
STARTCHAR cid204
ENCODING 236
SWIDTH 352 0
DWIDTH 8 0
BBX 6 21 1 -1
BITMAP
20
70
FC
7C
1C
08
00
38
38
38
38
38
38
38
38
38
38
38
38
38
38
ENDCHAR
STARTCHAR cid205
ENCODING 237
SWIDTH 352 0
DWIDTH 8 0
BBX 6 21 1 -1
BITMAP
18
38
7C
F8
70
20
00
38
38
38
38
38
38
38
38
38
38
38
38
38
38
ENDCHAR
STARTCHAR cid206
ENCODING 238
SWIDTH 412 0
DWIDTH 10 0
BBX 9 21 0 -1
BITMAP
1E00
3F00
7F80
F380
6180
0000
0000
1E00
1E00
1E00
1C00
1C00
1C00
1C00
1C00
1C00
1C00
1C00
1C00
1C00
1C00
ENDCHAR
STARTCHAR cid207
ENCODING 239
SWIDTH 412 0
DWIDTH 10 0
BBX 8 19 1 -1
BITMAP
E7
E7
E7
00
00
3C
3C
3C
38
38
38
38
38
38
38
38
38
38
38
ENDCHAR
STARTCHAR cid208
ENCODING 240
SWIDTH 551 0
DWIDTH 13 0
BBX 11 22 1 -1
BITMAP
0800
1C00
1EC0
0FE0
07C0
1F80
3F80
33C0
01E0
3FE0
7FE0
FFE0
E0E0
E0E0
E0E0
E0E0
E0E0
F0E0
F0C0
7FC0
3F80
1F00
ENDCHAR
STARTCHAR cid209
ENCODING 241
SWIDTH 475 0
DWIDTH 11 0
BBX 10 20 1 -1
BITMAP
3000
FDC0
FFC0
CF80
0200
0000
1F00
3F00
7F80
E1C0
E1C0
E1C0
E1C0
E180
E180
E180
E180
E180
E180
E180
ENDCHAR
STARTCHAR cid210
ENCODING 242
SWIDTH 479 0
DWIDTH 12 0
BBX 10 21 1 -1
BITMAP
1800
3C00
3E00
1F00
0E00
0000
1E00
3F00
7F80
FFC0
E3C0
E380
E380
E380
E380
E380
E380
E380
FB80
7F00
3E00
ENDCHAR
STARTCHAR cid211
ENCODING 243
SWIDTH 472 0
DWIDTH 11 0
BBX 10 21 1 -1
BITMAP
0400
0E00
1F00
3E00
3800
0000
1E00
3F00
7F80
FFC0
E3C0
E380
E380
E380
E380
E380
E380
E380
FB80
7F00
3E00
ENDCHAR
STARTCHAR cid212
ENCODING 244
SWIDTH 469 0
DWIDTH 11 0
BBX 10 21 1 -1
BITMAP
1E00
3E00
7700
E380
E180
4100
1E00
3F00
7F80
FFC0
E3C0
E380
E380
E380
E380
E380
E380
E380
FB80
7F00
3E00
ENDCHAR
STARTCHAR cid213
ENCODING 245
SWIDTH 470 0
DWIDTH 11 0
BBX 11 20 0 -1
BITMAP
1840
7CE0
FFE0
6780
0300
0F00
1F80
3FC0
7FE0
71E0
71C0
71C0
71C0
71C0
71C0
71C0
71C0
7DC0
3F80
1F00
ENDCHAR
STARTCHAR cid214
ENCODING 246
SWIDTH 469 0
DWIDTH 11 0
BBX 10 19 1 -1
BITMAP
E700
E700
E700
0000
1E00
3F00
7F80
FFC0
E3C0
E380
E380
E380
E380
E380
E380
E380
FB80
7F00
3E00
ENDCHAR
STARTCHAR cid696
ENCODING 247
SWIDTH 629 0
DWIDTH 15 0
BBX 11 12 2 2
BITMAP
0E00
0E00
0E00
0E00
FFE0
FFE0
FFE0
FFE0
0E00
0E00
0E00
0E00
ENDCHAR
STARTCHAR cid148
ENCODING 248
SWIDTH 459 0
DWIDTH 11 0
BBX 9 16 1 -2
BITMAP
1D80
7F80
FF80
FF80
E780
E780
EF80
EF80
FF80
FB80
FB80
F380
FB00
7F00
FE00
C000
ENDCHAR
STARTCHAR cid216
ENCODING 249
SWIDTH 520 0
DWIDTH 12 0
BBX 11 21 1 -1
BITMAP
0800
1C00
3E00
1F00
0600
0200
0000
F1C0
F1C0
F1C0
F1C0
F1C0
F1C0
F1C0
F1C0
F1C0
F1C0
F7C0
7FE0
3FE0
1E60
ENDCHAR
STARTCHAR cid217
ENCODING 250
SWIDTH 520 0
DWIDTH 12 0
BBX 11 21 1 -1
BITMAP
0200
0700
0F80
3E00
1C00
0800
0000
F1C0
F1C0
F1C0
F1C0
F1C0
F1C0
F1C0
F1C0
F1C0
F1C0
F7C0
7FE0
3FE0
1E60
ENDCHAR
STARTCHAR cid218
ENCODING 251
SWIDTH 520 0
DWIDTH 12 0
BBX 11 21 1 -1
BITMAP
0E00
1F00
3B80
71C0
6180
0000
0000
F1C0
F1C0
F1C0
F1C0
F1C0
F1C0
F1C0
F1C0
F1C0
F1C0
F7C0
7FE0
3FE0
1E60
ENDCHAR
STARTCHAR cid219
ENCODING 252
SWIDTH 520 0
DWIDTH 12 0
BBX 11 19 1 -1
BITMAP
7380
7380
7380
0000
0000
F1C0
F1C0
F1C0
F1C0
F1C0
F1C0
F1C0
F1C0
F1C0
F1C0
F7C0
7FE0
3FE0
1E60
ENDCHAR
STARTCHAR cid220
ENCODING 253
SWIDTH 481 0
DWIDTH 12 0
BBX 10 26 1 -6
BITMAP
0400
0E00
1F00
3E00
1C00
0000
0300
F3C0
F3C0
F3C0
F3C0
F3C0
F380
F380
F380
F380
F380
F380
FF80
3F80
1F80
0700
0700
0700
0700
0700
ENDCHAR
STARTCHAR cid221
ENCODING 254
SWIDTH 481 0
DWIDTH 12 0
BBX 10 23 1 -6
BITMAP
E000
E000
E000
E000
FE00
FF00
FF80
FBC0
E3C0
E3C0
E3C0
E3C0
E380
E380
E380
FF80
FF00
FE00
E000
E000
E000
E000
E000
ENDCHAR
STARTCHAR cid222
ENCODING 255
SWIDTH 481 0
DWIDTH 12 0
BBX 10 24 1 -6
BITMAP
7380
7380
7380
0000
0300
F3C0
F3C0
F3C0
F3C0
F3C0
F380
F380
F380
F380
F380
F380
FF80
3F80
1F80
0700
0700
0700
0700
0700
ENDCHAR
STARTCHAR Amacron
ENCODING 256
SWIDTH 515 0
DWIDTH 12 0
BBX 11 25 1 -1
BITMAP
FE00
FFC0
FFC0
FFC0
0000
1E00
3F00
7F80
FFC0
E1E0
E1E0
E1E0
F1E0
F1C0
F1C0
F1C0
F1C0
FFC0
FFC0
7FC0
71C0
71C0
71C0
71C0
71C0
ENDCHAR
STARTCHAR amacron
ENCODING 257
SWIDTH 513 0
DWIDTH 12 0
BBX 11 19 1 -1
BITMAP
FFC0
FFC0
FFC0
0000
7E00
7F00
7F80
01C0
01C0
7F80
FF80
E380
E380
E380
E380
E380
EFE0
7FC0
3FC0
ENDCHAR
STARTCHAR Abreve
ENCODING 258
SWIDTH 515 0
DWIDTH 12 0
BBX 11 25 1 -1
BITMAP
6180
FFC0
FFC0
3F00
0000
1E00
3F00
7F80
FFC0
E1E0
E1E0
E1E0
F1E0
F1C0
F1C0
F1C0
F1C0
FFC0
FFC0
7FC0
71C0
71C0
71C0
71C0
71C0
ENDCHAR
STARTCHAR abreve
ENCODING 259
SWIDTH 513 0
DWIDTH 12 0
BBX 11 20 1 -1
BITMAP
4080
E3C0
FFC0
7F80
0200
7E00
7F00
7F80
01C0
01C0
7F80
FF80
E380
E380
E380
E380
E380
EFE0
7FC0
3FC0
ENDCHAR
STARTCHAR Aogonek
ENCODING 260
SWIDTH 515 0
DWIDTH 12 0
BBX 11 24 1 -5
BITMAP
1E00
3F00
7F80
FFC0
E1E0
E1E0
E1E0
F1E0
F1C0
F1C0
F1C0
F1C0
FFC0
FFC0
7FC0
71C0
71C0
71C0
71C0
71C0
0180
0300
01C0
0080
ENDCHAR
STARTCHAR aogonek
ENCODING 261
SWIDTH 511 0
DWIDTH 12 0
BBX 11 19 1 -5
BITMAP
7E00
7F00
7F80
01C0
01C0
7F80
FF80
E380
E380
E380
E380
E380
EFE0
7FC0
3FC0
0180
0300
03C0
0080
ENDCHAR
STARTCHAR Cacute
ENCODING 262
SWIDTH 510 0
DWIDTH 12 0
BBX 10 26 1 -1
BITMAP
0400
0E00
3F00
3C00
1800
0000
3E00
3F00
7F80
FFC0
E1C0
E1C0
E1C0
E1C0
E1C0
E1C0
E000
E000
E000
E000
E3C0
E3C0
E3C0
7FC0
3F00
1E00
ENDCHAR
STARTCHAR cacute
ENCODING 263
SWIDTH 478 0
DWIDTH 11 0
BBX 10 21 1 -1
BITMAP
0400
0E00
1F00
3E00
1C00
0000
1C00
3F00
7F80
FFC0
E1C0
E1C0
E000
E000
E000
E000
E3C0
E3C0
FF80
7F80
3F00
ENDCHAR
STARTCHAR Cdotaccent
ENCODING 266
SWIDTH 510 0
DWIDTH 12 0
BBX 10 25 1 -1
BITMAP
1E00
1E00
1E00
1E00
0000
3E00
3F00
7F80
FFC0
E1C0
E1C0
E1C0
E1C0
E1C0
E1C0
E000
E000
E000
E000
E3C0
E3C0
E3C0
7FC0
3F00
1E00
ENDCHAR
STARTCHAR cdotaccent
ENCODING 267
SWIDTH 478 0
DWIDTH 11 0
BBX 10 19 1 -1
BITMAP
1E00
1E00
1E00
0000
1C00
3F00
7F80
FFC0
E1C0
E1C0
E000
E000
E000
E000
E3C0
E3C0
FF80
7F80
3F00
ENDCHAR
STARTCHAR Ccaron
ENCODING 268
SWIDTH 510 0
DWIDTH 12 0
BBX 10 26 1 -1
BITMAP
6180
F3C0
7380
3F00
1E00
0000
3E00
3F00
7F80
FFC0
E1C0
E1C0
E1C0
E1C0
E1C0
E1C0
E000
E000
E000
E000
E3C0
E3C0
E3C0
7FC0
3F00
1E00
ENDCHAR
STARTCHAR ccaron
ENCODING 269
SWIDTH 478 0
DWIDTH 11 0
BBX 10 21 1 -1
BITMAP
6180
E380
7700
3E00
1C00
0000
1C00
3F00
7F80
FFC0
E1C0
E1C0
E000
E000
E000
E000
E3C0
E3C0
FF80
7F80
3F00
ENDCHAR
STARTCHAR Dcaron
ENCODING 270
SWIDTH 517 0
DWIDTH 12 0
BBX 11 26 1 -1
BITMAP
6180
F3C0
7380
3F00
1E00
0000
3F00
FF80
FFC0
FFE0
E1E0
E1E0
E1E0
E1E0
E1C0
E1C0
E1C0
E1C0
E1C0
E1C0
E1C0
E1C0
FFC0
FF80
FF00
FE00
ENDCHAR
STARTCHAR dcaron
ENCODING 271
SWIDTH 480 0
DWIDTH 12 0
BBX 10 26 1 -1
BITMAP
6180
E3C0
7780
3E00
1C00
0000
01C0
01C0
01C0
01C0
01C0
01C0
3FC0
7FC0
FFC0
E1C0
E1C0
E1C0
E180
E180
E180
E180
6180
7F80
7F80
3F80
ENDCHAR
STARTCHAR Emacron
ENCODING 274
SWIDTH 468 0
DWIDTH 11 0
BBX 10 25 1 -1
BITMAP
FC00
FFC0
FFC0
FFC0
0000
FFC0
FFC0
FFC0
FF80
E000
E000
E000
E000
E000
E000
FF00
FF00
FF00
7800
7000
7000
7F80
7F80
7F80
7F80
ENDCHAR
STARTCHAR emacron
ENCODING 275
SWIDTH 482 0
DWIDTH 12 0
BBX 10 19 1 -1
BITMAP
FFC0
FFC0
FF80
0000
0000
3F00
7F80
FFC0
E1C0
E1C0
FFC0
FFC0
F000
E000
E3C0
E380
FF80
7F00
3E00
ENDCHAR
STARTCHAR Edotaccent
ENCODING 278
SWIDTH 468 0
DWIDTH 11 0
BBX 10 25 1 -1
BITMAP
1E00
1E00
1C00
1C00
0000
FFC0
FFC0
FFC0
FF80
E000
E000
E000
E000
E000
E000
FF00
FF00
FF00
7800
7000
7000
7F80
7F80
7F80
7F80
ENDCHAR
STARTCHAR edotaccent
ENCODING 279
SWIDTH 482 0
DWIDTH 12 0
BBX 10 19 1 -1
BITMAP
1E00
1E00
1E00
0000
0000
3F00
7F80
FFC0
E1C0
E1C0
FFC0
FFC0
F000
E000
E3C0
E380
FF80
7F00
3E00
ENDCHAR
STARTCHAR Eogonek
ENCODING 280
SWIDTH 468 0
DWIDTH 11 0
BBX 10 24 1 -5
BITMAP
FFC0
FFC0
FFC0
FF80
E000
E000
E000
E000
E000
E000
FF00
FF00
FF00
7800
7000
7000
7F80
7F80
7F80
7F80
0300
0600
0380
0100
ENDCHAR
STARTCHAR eogonek
ENCODING 281
SWIDTH 482 0
DWIDTH 12 0
BBX 10 18 1 -5
BITMAP
3F00
7F80
FFC0
E1C0
E1C0
FFC0
FFC0
F000
E000
E3C0
E380
FF80
7F00
3E00
0C00
0C00
0F00
0600
ENDCHAR
STARTCHAR Ecaron
ENCODING 282
SWIDTH 468 0
DWIDTH 11 0
BBX 10 26 1 -1
BITMAP
6180
F3C0
7380
3F00
1E00
0000
FFC0
FFC0
FFC0
FF80
E000
E000
E000
E000
E000
E000
FF00
FF00
FF00
7800
7000
7000
7F80
7F80
7F80
7F80
ENDCHAR
STARTCHAR ecaron
ENCODING 283
SWIDTH 482 0
DWIDTH 12 0
BBX 10 21 1 -1
BITMAP
6180
E380
7700
3E00
1C00
0000
0000
3F00
7F80
FFC0
E1C0
E1C0
FFC0
FFC0
F000
E000
E3C0
E380
FF80
7F00
3E00
ENDCHAR
STARTCHAR Gbreve
ENCODING 286
SWIDTH 548 0
DWIDTH 13 0
BBX 11 25 1 -1
BITMAP
60C0
FFC0
7FE0
3F00
0000
1F80
1FC0
3FC0
7FE0
F1E0
F1E0
F1E0
F000
F000
F000
F000
F000
73E0
73E0
73E0
71E0
71E0
7FC0
3F80
1F00
ENDCHAR
STARTCHAR gbreve
ENCODING 287
SWIDTH 490 0
DWIDTH 12 0
BBX 10 25 1 -6
BITMAP
4080
E3C0
FFC0
7F80
0200
0600
3F00
7F80
FFC0
E3C0
E3C0
E3C0
E3C0
E380
E380
E380
E380
7F80
3F80
1F80
0380
E380
FF80
7F00
3E00
ENDCHAR
STARTCHAR Gdotaccent
ENCODING 288
SWIDTH 548 0
DWIDTH 13 0
BBX 11 25 1 -1
BITMAP
0E00
0E00
0E00
0E00
0000
1F80
1FC0
3FC0
7FE0
F1E0
F1E0
F1E0
F000
F000
F000
F000
F000
73E0
73E0
73E0
71E0
71E0
7FC0
3F80
1F00
ENDCHAR
STARTCHAR gdotaccent
ENCODING 289
SWIDTH 490 0
DWIDTH 12 0
BBX 10 24 1 -6
BITMAP
1E00
1E00
1E00
0000
0600
3F00
7F80
FFC0
E3C0
E3C0
E3C0
E3C0
E380
E380
E380
E380
7F80
3F80
1F80
0380
E380
FF80
7F00
3E00
ENDCHAR
STARTCHAR uni0122
ENCODING 290
SWIDTH 548 0
DWIDTH 13 0
BBX 11 26 1 -7
BITMAP
1F80
1FC0
3FC0
7FE0
F1E0
F1E0
F1E0
F000
F000
F000
F000
F000
73E0
73E0
73E0
71E0
71E0
7FC0
3F80
1F00
0000
0000
0E00
0E00
0E00
0400
ENDCHAR
STARTCHAR uni0123
ENCODING 291
SWIDTH 490 0
DWIDTH 12 0
BBX 10 26 1 -6
BITMAP
0800
1800
1C00
1C00
0000
0000
0600
3F00
7F80
FFC0
E3C0
E3C0
E3C0
E3C0
E380
E380
E380
E380
7F80
3F80
1F80
0380
E380
FF80
7F00
3E00
ENDCHAR
STARTCHAR Hbar
ENCODING 294
SWIDTH 637 0
DWIDTH 15 0
BBX 14 20 1 -1
BITMAP
78F0
78F0
FFFC
FFFC
FFFC
78F0
78F0
78F0
78F0
78F0
78F0
3FF0
3FF0
3FF0
38F0
38F0
38E0
38E0
38E0
38E0
ENDCHAR
STARTCHAR hbar
ENCODING 295
SWIDTH 527 0
DWIDTH 13 0
BBX 12 20 0 -1
BITMAP
3800
B800
FF00
FF00
3800
3B80
3FC0
3FE0
3FF0
38F0
38F0
38F0
38F0
38F0
38F0
38F0
38F0
38F0
38F0
38F0
ENDCHAR
STARTCHAR Imacron
ENCODING 298
SWIDTH 438 0
DWIDTH 11 0
BBX 10 25 0 -1
BITMAP
FE00
FFC0
FFC0
FFC0
0000
1E00
1E00
1E00
1E00
0E00
0E00
0E00
0E00
0E00
0E00
0E00
0E00
0E00
0E00
0E00
0E00
0E00
0E00
0E00
0E00
ENDCHAR
STARTCHAR imacron
ENCODING 299
SWIDTH 417 0
DWIDTH 10 0
BBX 8 19 1 -1
BITMAP
FF
FF
FF
00
30
3C
3C
3C
3C
3C
3C
3C
3C
3C
3C
3C
3C
3C
3C
ENDCHAR
STARTCHAR Iogonek
ENCODING 302
SWIDTH 233 0
DWIDTH 6 0
BBX 4 24 1 -5
BITMAP
F0
F0
F0
F0
F0
F0
F0
F0
F0
F0
E0
E0
E0
E0
E0
E0
E0
E0
E0
E0
C0
C0
F0
60
ENDCHAR
STARTCHAR iogonek
ENCODING 303
SWIDTH 236 0
DWIDTH 6 0
BBX 4 18 1 -5
BITMAP
F0
F0
F0
F0
F0
F0
E0
E0
E0
E0
E0
E0
E0
E0
C0
C0
F0
60
ENDCHAR
STARTCHAR Idotaccent
ENCODING 304
SWIDTH 233 0
DWIDTH 6 0
BBX 4 25 1 -1
BITMAP
F0
F0
F0
F0
00
F0
F0
F0
F0
F0
F0
F0
F0
F0
F0
E0
E0
E0
E0
E0
E0
E0
E0
E0
E0
ENDCHAR
STARTCHAR dotlessi
ENCODING 305
SWIDTH 236 0
DWIDTH 6 0
BBX 4 14 1 -1
BITMAP
F0
F0
F0
F0
F0
F0
E0
E0
E0
E0
E0
E0
E0
E0
ENDCHAR
STARTCHAR IJ
ENCODING 306
SWIDTH 711 0
DWIDTH 17 0
BBX 15 20 1 -1
BITMAP
F01E
F01E
F01E
F01E
F01E
F01E
F01E
F01E
F01C
F01C
F01C
F01C
E01C
EF1C
EF1C
EF1C
EF1C
E7FC
E3F8
E1F0
ENDCHAR
STARTCHAR ij
ENCODING 307
SWIDTH 487 0
DWIDTH 12 0
BBX 10 25 1 -6
BITMAP
F7C0
F780
F780
F780
0000
0000
F780
F780
F780
F780
F780
F380
F380
F380
F380
E380
E380
E380
E380
E380
0380
1F80
1F00
1E00
1C00
ENDCHAR
STARTCHAR uni0136
ENCODING 310
SWIDTH 498 0
DWIDTH 12 0
BBX 10 26 1 -7
BITMAP
F000
F380
F3C0
F780
F700
FF00
FE00
FE00
FC00
F800
F800
F000
F800
FC00
FC00
FE00
FFC0
77C0
77C0
73C0
0000
0000
1C00
0C00
0C00
0400
ENDCHAR
STARTCHAR uni0137
ENCODING 311
SWIDTH 482 0
DWIDTH 12 0
BBX 10 26 1 -7
BITMAP
F000
F000
F000
F000
F000
F000
F780
F700
FF00
FE00
FC00
F800
F800
FC00
EC00
EE00
EE00
E7C0
E7C0
E3C0
0000
0000
1C00
1C00
1C00
0C00
ENDCHAR
STARTCHAR Lacute
ENCODING 313
SWIDTH 383 0
DWIDTH 9 0
BBX 8 26 1 -1
BITMAP
18
3C
7C
F8
70
00
F0
F0
F0
F0
F0
F0
F0
F0
F0
F0
F0
F0
F0
F0
F0
E0
FE
FE
FE
FF
ENDCHAR
STARTCHAR lacute
ENCODING 314
SWIDTH 336 0
DWIDTH 8 0
BBX 6 26 1 -1
BITMAP
18
3C
7C
F8
60
00
78
78
78
78
78
78
78
78
78
78
78
78
78
78
38
38
38
38
30
30
ENDCHAR
STARTCHAR uni013B
ENCODING 315
SWIDTH 383 0
DWIDTH 9 0
BBX 7 26 1 -7
BITMAP
10
F0
F0
F0
F0
E0
E0
E0
E0
E0
E0
E0
E0
E0
E0
E0
FE
FE
FE
FE
00
00
38
38
38
18
ENDCHAR
STARTCHAR cid296
ENCODING 316
SWIDTH 223 0
DWIDTH 5 0
BBX 4 26 1 -7
BITMAP
F0
F0
F0
F0
F0
E0
E0
E0
E0
E0
E0
E0
E0
E0
E0
E0
E0
E0
E0
E0
00
00
E0
E0
E0
20
ENDCHAR
STARTCHAR Lcaron
ENCODING 317
SWIDTH 427 0
DWIDTH 10 0
BBX 9 26 1 -1
BITMAP
C300
E380
E700
7E00
3C00
0000
F000
F000
F000
F000
F000
F000
F000
F000
F000
F000
F000
F000
F000
F000
F000
E000
FE00
FE00
FE00
FF00
ENDCHAR
STARTCHAR lcaron
ENCODING 318
SWIDTH 429 0
DWIDTH 10 0
BBX 9 26 1 -1
BITMAP
C300
E380
E700
7E00
3C00
0000
3C00
3C00
3C00
3C00
3C00
3C00
3C00
3C00
3C00
3C00
3C00
3C00
3C00
3C00
3C00
3C00
3800
3800
3800
3800
ENDCHAR
STARTCHAR Lslash
ENCODING 321
SWIDTH 459 0
DWIDTH 11 0
BBX 10 20 0 -1
BITMAP
1E00
1E00
1E00
1E00
1E00
1E00
1F00
1F80
1FC0
3F00
FE00
7E00
3E00
1E00
1C00
1C00
1FC0
1FC0
1FC0
1FC0
ENDCHAR
STARTCHAR lslash
ENCODING 322
SWIDTH 420 0
DWIDTH 10 0
BBX 9 20 1 -1
BITMAP
3C00
3C00
3C00
3C00
3C00
3C00
3F00
3F00
3F80
7E00
FC00
FC00
7C00
3C00
3C00
3800
3800
3800
3800
3800
ENDCHAR
STARTCHAR Nacute
ENCODING 323
SWIDTH 563 0
DWIDTH 14 0
BBX 12 26 1 -1
BITMAP
0600
0F00
1F00
3E00
1C00
0000
E0F0
F0F0
F0F0
F0F0
F8F0
F8F0
FCF0
FCF0
FCE0
FEE0
FEE0
FEE0
F7E0
F7E0
F3E0
F3E0
F3E0
F1E0
F1E0
F0E0
ENDCHAR
STARTCHAR nacute
ENCODING 324
SWIDTH 475 0
DWIDTH 11 0
BBX 10 21 1 -1
BITMAP
0400
0E00
3F00
7C00
3800
1000
0000
1F00
3F00
7F80
E1C0
E1C0
E1C0
E1C0
E180
E180
E180
E180
E180
E180
E180
ENDCHAR
STARTCHAR uni0145
ENCODING 325
SWIDTH 571 0
DWIDTH 14 0
BBX 12 26 1 -7
BITMAP
E0F0
F0F0
F0F0
F0F0
F8F0
F8F0
FCF0
FCF0
FCE0
FEE0
FEE0
FEE0
F7E0
F7E0
F3E0
F3E0
F3E0
F1E0
F1E0
F0E0
0000
0000
0E00
0E00
0E00
0400
ENDCHAR
STARTCHAR uni0146
ENCODING 326
SWIDTH 471 0
DWIDTH 11 0
BBX 10 20 1 -7
BITMAP
1F00
3F00
7F80
E1C0
E1C0
E1C0
E1C0
E180
E180
E180
E180
E180
E180
E180
0000
0000
1C00
1C00
1C00
0800
ENDCHAR
STARTCHAR Ncaron
ENCODING 327
SWIDTH 572 0
DWIDTH 14 0
BBX 12 26 1 -1
BITMAP
30C0
71C0
3B80
1F00
0E00
0000
E0F0
F0F0
F0F0
F0F0
F8F0
F8F0
FCF0
FCF0
FCE0
FEE0
FEE0
FEE0
F7E0
F7E0
F3E0
F3E0
F3E0
F1E0
F1E0
F0E0
ENDCHAR
STARTCHAR ncaron
ENCODING 328
SWIDTH 475 0
DWIDTH 11 0
BBX 10 21 1 -1
BITMAP
6180
E3C0
7780
3F00
1C00
0000
0000
1F00
3F00
7F80
E1C0
E1C0
E1C0
E1C0
E180
E180
E180
E180
E180
E180
E180
ENDCHAR
STARTCHAR Ohungarumlaut
ENCODING 336
SWIDTH 528 0
DWIDTH 13 0
BBX 11 26 1 -1
BITMAP
3180
39C0
7BC0
7380
F380
0000
1F00
3F80
7F80
FFC0
E3E0
E1E0
E1E0
E1E0
E1E0
F1C0
F1C0
F1C0
F1C0
F1C0
F1C0
F1C0
F1C0
7F80
3F80
1F00
ENDCHAR
STARTCHAR ohungarumlaut
ENCODING 337
SWIDTH 468 0
DWIDTH 11 0
BBX 10 21 1 -1
BITMAP
7380
7380
F380
E700
E700
0000
1E00
3F00
7F80
FFC0
E3C0
E380
E380
E380
E380
E380
E380
E380
FB80
7F00
3E00
ENDCHAR
STARTCHAR OE
ENCODING 338
SWIDTH 841 0
DWIDTH 20 0
BBX 19 20 1 -1
BITMAP
1F7FE0
3FFFC0
7FFFC0
FFFFC0
E3F000
E1F000
E1F000
E1F000
E1F000
E1F000
E1FF80
E1FF80
E1FF80
F1FC00
F1F000
F1F800
F1FFC0
7FBFC0
3F3FC0
1F3FC0
ENDCHAR
STARTCHAR oe
ENCODING 339
SWIDTH 795 0
DWIDTH 19 0
BBX 18 15 1 -1
BITMAP
0E2000
3F7F00
7FFF80
FFFFC0
E3E380
E3E380
E3FF80
E3FF80
E3F000
E3E000
E3E380
E3E380
FBFF80
7F7F00
1E3E00
ENDCHAR
STARTCHAR Racute
ENCODING 340
SWIDTH 508 0
DWIDTH 12 0
BBX 11 26 1 -1
BITMAP
0600
0F00
1F00
3E00
1C00
0000
FF00
FF80
FFC0
FFE0
E1E0
E1C0
E1C0
E1C0
E1C0
E1C0
E1C0
E3C0
FFC0
FF80
FF00
EE00
F700
F7C0
F3C0
F3C0
ENDCHAR
STARTCHAR racute
ENCODING 341
SWIDTH 395 0
DWIDTH 9 0
BBX 8 21 1 -1
BITMAP
08
1C
3E
FC
70
00
00
F7
FF
FF
F8
F0
F0
F0
F0
E0
E0
E0
E0
E0
E0
ENDCHAR
STARTCHAR Rcaron
ENCODING 344
SWIDTH 508 0
DWIDTH 12 0
BBX 11 26 1 -1
BITMAP
6180
F3C0
7380
3F00
1E00
0000
FF00
FF80
FFC0
FFE0
E1E0
E1C0
E1C0
E1C0
E1C0
E1C0
E1C0
E3C0
FFC0
FF80
FF00
EE00
F700
F7C0
F3C0
F3C0
ENDCHAR
STARTCHAR rcaron
ENCODING 345
SWIDTH 430 0
DWIDTH 10 0
BBX 9 21 1 -1
BITMAP
C300
E780
7700
7E00
3C00
0000
0000
F700
FF00
FF00
F800
F000
F000
F000
F000
F000
F000
F000
F000
F000
F000
ENDCHAR
STARTCHAR Sacute
ENCODING 346
SWIDTH 538 0
DWIDTH 13 0
BBX 11 26 1 -1
BITMAP
0600
0F00
1F00
3E00
1C00
0000
1F00
3F80
7FC0
FFE0
F0E0
F0E0
F0E0
F0E0
F000
F000
FF00
7F80
1FC0
00E0
00E0
F0E0
F0E0
FFC0
3F80
1F00
ENDCHAR
STARTCHAR sacute
ENCODING 347
SWIDTH 484 0
DWIDTH 12 0
BBX 10 21 1 -1
BITMAP
0400
0E00
1F00
7C00
3800
0000
1E00
3F00
7F80
FFC0
F3C0
F040
F000
FF00
3F80
1FC0
03C0
F380
FF80
7F00
1E00
ENDCHAR
STARTCHAR Scedilla
ENCODING 350
SWIDTH 544 0
DWIDTH 13 0
BBX 11 24 1 -5
BITMAP
1F00
3F80
7FC0
FFE0
F0E0
F0E0
F0E0
F0E0
F000
F000
FF00
7F80
1FC0
00E0
00E0
F0E0
F0E0
FFC0
3F80
1F00
0C00
0E00
0180
0700
ENDCHAR
STARTCHAR scedilla
ENCODING 351
SWIDTH 491 0
DWIDTH 12 0
BBX 10 19 1 -5
BITMAP
1E00
3F00
7F80
FFC0
F3C0
F040
F000
FF00
3F80
1FC0
03C0
F380
FF80
7F00
1E00
1800
1E00
0300
0F00
ENDCHAR
STARTCHAR cid330
ENCODING 352
SWIDTH 544 0
DWIDTH 13 0
BBX 11 26 1 -1
BITMAP
20C0
71C0
3B80
1F00
0E00
0000
1F00
3F80
7FC0
FFE0
F0E0
F0E0
F0E0
F0E0
F000
F000
FF00
7F80
1FC0
00E0
00E0
F0E0
F0E0
FFC0
3F80
1F00
ENDCHAR
STARTCHAR scaron
ENCODING 353
SWIDTH 491 0
DWIDTH 12 0
BBX 10 21 1 -1
BITMAP
6180
F380
7700
3E00
1C00
0000
1E00
3F00
7F80
FFC0
F3C0
F040
F000
FF00
3F80
1FC0
03C0
F380
FF80
7F00
1E00
ENDCHAR
STARTCHAR cid334
ENCODING 356
SWIDTH 524 0
DWIDTH 13 0
BBX 11 26 1 -1
BITMAP
6080
71C0
3B80
1F00
1E00
0000
FFE0
FFE0
FFE0
FFE0
FFE0
1E00
1E00
1E00
1E00
1E00
1E00
1E00
1E00
1E00
1E00
1E00
1E00
1E00
1E00
1E00
ENDCHAR
STARTCHAR tcaron
ENCODING 357
SWIDTH 428 0
DWIDTH 10 0
BBX 9 24 1 -1
BITMAP
4100
C380
E700
7E00
3C00
1800
4000
3800
3800
3800
FF00
FF00
FF00
3800
3800
3800
3800
3800
3800
3800
3800
3F80
1F80
0F80
ENDCHAR
STARTCHAR cid340
ENCODING 362
SWIDTH 530 0
DWIDTH 13 0
BBX 11 25 1 -1
BITMAP
7E00
7FC0
7FC0
7FC0
0000
F000
F0E0
F0E0
F0E0
F0E0
F0E0
F0E0
F0E0
F0E0
F1E0
F1E0
F1E0
F1E0
F1E0
F1E0
F1E0
FFC0
7F80
3F80
1F00
ENDCHAR
STARTCHAR umacron
ENCODING 363
SWIDTH 520 0
DWIDTH 12 0
BBX 11 19 1 -1
BITMAP
7FC0
7FC0
7FC0
0000
0000
F1C0
F1C0
F1C0
F1C0
F1C0
F1C0
F1C0
F1C0
F1C0
F1C0
F7C0
7FE0
3FE0
1E60
ENDCHAR
STARTCHAR cid344
ENCODING 366
SWIDTH 530 0
DWIDTH 13 0
BBX 11 27 1 -1
BITMAP
0E00
1F00
3300
1300
1F00
0E00
0000
F000
F0E0
F0E0
F0E0
F0E0
F0E0
F0E0
F0E0
F0E0
F1E0
F1E0
F1E0
F1E0
F1E0
F1E0
F1E0
FFC0
7F80
3F80
1F00
ENDCHAR
STARTCHAR cid345
ENCODING 367
SWIDTH 520 0
DWIDTH 12 0
BBX 11 21 1 -1
BITMAP
1E00
3300
3300
3300
1E00
0000
0000
F1C0
F1C0
F1C0
F1C0
F1C0
F1C0
F1C0
F1C0
F1C0
F1C0
F7C0
7FE0
3FE0
1E60
ENDCHAR
STARTCHAR cid346
ENCODING 368
SWIDTH 530 0
DWIDTH 13 0
BBX 11 26 1 -1
BITMAP
3180
39C0
7BC0
7380
F380
0000
F000
F0E0
F0E0
F0E0
F0E0
F0E0
F0E0
F0E0
F0E0
F1E0
F1E0
F1E0
F1E0
F1E0
F1E0
F1E0
FFC0
7F80
3F80
1F00
ENDCHAR
STARTCHAR cid347
ENCODING 369
SWIDTH 520 0
DWIDTH 12 0
BBX 11 21 1 -1
BITMAP
39C0
7BC0
7380
7380
E780
0000
0000
F1C0
F1C0
F1C0
F1C0
F1C0
F1C0
F1C0
F1C0
F1C0
F1C0
F7C0
7FE0
3FE0
1E60
ENDCHAR
STARTCHAR cid348
ENCODING 370
SWIDTH 530 0
DWIDTH 13 0
BBX 11 24 1 -5
BITMAP
F000
F0E0
F0E0
F0E0
F0E0
F0E0
F0E0
F0E0
F0E0
F1E0
F1E0
F1E0
F1E0
F1E0
F1E0
F1E0
FFC0
7F80
3F80
1F00
0600
0C00
0700
0200
ENDCHAR
STARTCHAR cid349
ENCODING 371
SWIDTH 520 0
DWIDTH 12 0
BBX 11 18 1 -5
BITMAP
F1C0
F1C0
F1C0
F1C0
F1C0
F1C0
F1C0
F1C0
F1C0
F1C0
F7C0
7FE0
3FE0
1EE0
00C0
0180
00E0
0040
ENDCHAR
STARTCHAR cid354
ENCODING 376
SWIDTH 482 0
DWIDTH 12 0
BBX 10 25 1 -1
BITMAP
7380
7380
7380
0000
0000
E3C0
E3C0
E3C0
E3C0
E3C0
E3C0
E3C0
E380
E380
E380
E380
E380
7F00
3E00
1C00
1C00
1C00
1C00
1C00
1C00
ENDCHAR
STARTCHAR cid355
ENCODING 377
SWIDTH 502 0
DWIDTH 12 0
BBX 10 26 1 -1
BITMAP
0400
0E00
3F00
3C00
1800
0000
FF00
FF80
FF80
FFC0
FFC0
03C0
0380
0780
0F00
0E00
1E00
1C00
3800
7800
7000
E000
FFC0
FFC0
FFC0
7FC0
ENDCHAR
STARTCHAR cid356
ENCODING 378
SWIDTH 496 0
DWIDTH 12 0
BBX 10 21 1 -1
BITMAP
0600
0E00
1F00
3E00
1C00
0800
0000
FF80
FFC0
FFC0
03C0
0780
0F00
1E00
1C00
3800
7000
E000
FFC0
FFC0
7F80
ENDCHAR
STARTCHAR cid357
ENCODING 379
SWIDTH 502 0
DWIDTH 12 0
BBX 10 25 1 -1
BITMAP
1E00
1E00
1E00
1E00
0000
FF00
FF80
FF80
FFC0
FFC0
03C0
0380
0780
0F00
0E00
1E00
1C00
3800
7800
7000
E000
FFC0
FFC0
FFC0
7FC0
ENDCHAR
STARTCHAR cid358
ENCODING 380
SWIDTH 496 0
DWIDTH 12 0
BBX 10 19 1 -1
BITMAP
1E00
1E00
1E00
0000
0000
FF80
FFC0
FFC0
03C0
0780
0F00
1E00
1C00
3800
7000
E000
FFC0
FFC0
7F80
ENDCHAR
STARTCHAR cid359
ENCODING 381
SWIDTH 502 0
DWIDTH 12 0
BBX 10 26 1 -1
BITMAP
6180
F3C0
7380
3F00
1E00
0000
FF00
FF80
FF80
FFC0
FFC0
03C0
0380
0780
0F00
0E00
1E00
1C00
3800
7800
7000
E000
FFC0
FFC0
FFC0
7FC0
ENDCHAR
STARTCHAR cid360
ENCODING 382
SWIDTH 496 0
DWIDTH 12 0
BBX 10 21 1 -1
BITMAP
6180
E3C0
7780
3F00
1C00
0000
0000
FF80
FFC0
FFC0
03C0
0780
0F00
1E00
1C00
3800
7000
E000
FFC0
FFC0
7F80
ENDCHAR
STARTCHAR cid364
ENCODING 402
SWIDTH 631 0
DWIDTH 15 0
BBX 13 23 1 -5
BITMAP
00F8
01F8
03F8
03F8
0780
0780
0780
2780
3FF0
3FF0
3FF0
3FF0
0780
0700
0700
0700
0700
0700
0F00
DE00
FC00
F800
F800
ENDCHAR
STARTCHAR cid383
ENCODING 453
SWIDTH 1009 0
DWIDTH 24 0
BBX 22 21 1 -1
BITMAP
000618
1F0E3C
FF8778
FFC3F0
FFE1E0
E0E000
E0E000
E0EFF8
F1EFFC
F1EFFC
F1E03C
F1E078
F1E0F0
F1C0E0
71C1C0
71C380
71C700
7FCE00
7F8FFC
7F0FFC
7E07FC
ENDCHAR
STARTCHAR cid384
ENCODING 454
SWIDTH 953 0
DWIDTH 23 0
BBX 21 21 1 -1
BITMAP
000820
01DC70
01CEE0
01C7C0
01C380
01C000
01C000
3FDFF0
7FDFF0
FFDFF8
E1C070
E1C0E0
E1C1E0
E183C0
E18780
E18F00
E19E00
61BC00
7FBFF0
7F9FF0
3F9FF0
ENDCHAR
STARTCHAR cid396
ENCODING 498
SWIDTH 875 0
DWIDTH 21 0
BBX 19 20 1 -1
BITMAP
3E0000
FF0000
FF8000
FFC000
E1C000
E3C000
E3DFC0
F3DFE0
F3DFE0
F3C1E0
F3C1C0
F383C0
F38780
738700
738F00
739E00
7F9C00
7F1FE0
7E1FC0
7C0FC0
ENDCHAR
STARTCHAR cid397
ENCODING 499
SWIDTH 800 0
DWIDTH 19 0
BBX 17 20 1 -1
BITMAP
038000
038000
038000
038000
038000
038000
3FFF00
7FFF80
FFFF80
E38780
E30700
E30F00
E30E00
E31E00
E33C00
E33800
637800
7F7F80
7F7F80
3F3F80
ENDCHAR
STARTCHAR cid420
ENCODING 538
SWIDTH 502 0
DWIDTH 12 0
BBX 11 26 1 -7
BITMAP
FFE0
FFE0
FFE0
FFE0
FFE0
1E00
1E00
1E00
1E00
1E00
1E00
1E00
1E00
1E00
1E00
1E00
1E00
1E00
1E00
1E00
0000
0000
0E00
0E00
0E00
0400
ENDCHAR
STARTCHAR cid421
ENCODING 539
SWIDTH 459 0
DWIDTH 11 0
BBX 9 24 1 -7
BITMAP
4000
3800
3800
3800
FF00
FF00
FF00
3800
3800
3800
3800
3800
3800
3800
3800
3F80
1F80
0F80
0000
0000
1C00
1C00
1C00
0800
ENDCHAR
STARTCHAR cid98
ENCODING 699
SWIDTH 291 0
DWIDTH 7 0
BBX 5 8 1 12
BITMAP
30
60
60
F8
F8
F8
F8
F8
ENDCHAR
STARTCHAR cid96
ENCODING 700
SWIDTH 277 0
DWIDTH 7 0
BBX 5 8 1 12
BITMAP
F8
F8
F8
F8
F8
30
70
60
ENDCHAR
STARTCHAR cid128
ENCODING 710
SWIDTH 502 0
DWIDTH 12 0
BBX 10 6 1 16
BITMAP
1E00
3F00
7F80
FBC0
F1C0
4080
ENDCHAR
STARTCHAR cid433
ENCODING 711
SWIDTH 449 0
DWIDTH 11 0
BBX 9 5 1 20
BITMAP
4100
E380
7700
3E00
3C00
ENDCHAR
STARTCHAR cid450
ENCODING 728
SWIDTH 502 0
DWIDTH 12 0
BBX 10 4 1 20
BITMAP
6180
FFC0
FFC0
3F00
ENDCHAR
STARTCHAR cid451
ENCODING 729
SWIDTH 283 0
DWIDTH 7 0
BBX 4 4 1 20
BITMAP
F0
70
70
70
ENDCHAR
STARTCHAR cid133
ENCODING 730
SWIDTH 311 0
DWIDTH 7 0
BBX 6 6 1 20
BITMAP
70
F8
CC
CC
F8
70
ENDCHAR
STARTCHAR cid453
ENCODING 731
SWIDTH 252 0
DWIDTH 6 0
BBX 4 4 1 -5
BITMAP
60
C0
F0
20
ENDCHAR
STARTCHAR cid454
ENCODING 732
SWIDTH 515 0
DWIDTH 12 0
BBX 10 5 1 20
BITMAP
1000
78C0
FFC0
EFC0
4700
ENDCHAR
STARTCHAR gravecomb
ENCODING 768
SWIDTH 345 0
DWIDTH 8 0
BBX 7 8 1 14
BITMAP
10
F8
F8
7C
7C
3E
3C
10
ENDCHAR
STARTCHAR cid127
ENCODING 769
SWIDTH 321 0
DWIDTH 8 0
BBX 6 5 1 20
BITMAP
10
38
7C
F0
60
ENDCHAR
STARTCHAR uni0302
ENCODING 770
SWIDTH 296 0
DWIDTH 7 0
BBX 1 1 0 0
BITMAP
00
ENDCHAR
STARTCHAR tildecomb
ENCODING 771
SWIDTH 586 0
DWIDTH 14 0
BBX 11 6 2 14
BITMAP
1000
7840
FDC0
EFE0
4700
0200
ENDCHAR
STARTCHAR uni0304
ENCODING 772
SWIDTH 464 0
DWIDTH 11 0
BBX 9 4 1 21
BITMAP
FF80
FF80
FF80
FF80
ENDCHAR
STARTCHAR cid226
ENCODING 773
SWIDTH 438 0
DWIDTH 11 0
BBX 9 3 1 20
BITMAP
FF80
FF80
FF80
ENDCHAR
STARTCHAR cid130
ENCODING 774
SWIDTH 502 0
DWIDTH 12 0
BBX 10 4 1 20
BITMAP
6180
FFC0
FFC0
3F00
ENDCHAR
STARTCHAR cid131
ENCODING 775
SWIDTH 283 0
DWIDTH 7 0
BBX 4 4 1 20
BITMAP
F0
70
70
70
ENDCHAR
STARTCHAR cid132
ENCODING 776
SWIDTH 451 0
DWIDTH 11 0
BBX 8 3 1 21
BITMAP
E7
E7
E7
ENDCHAR
STARTCHAR uni030A
ENCODING 778
SWIDTH 296 0
DWIDTH 7 0
BBX 1 1 0 0
BITMAP
00
ENDCHAR
STARTCHAR cid135
ENCODING 779
SWIDTH 501 0
DWIDTH 12 0
BBX 10 5 1 20
BITMAP
7180
7BC0
7380
F380
E700
ENDCHAR
STARTCHAR cid137
ENCODING 780
SWIDTH 449 0
DWIDTH 11 0
BBX 9 5 1 20
BITMAP
4100
E380
7700
3E00
3C00
ENDCHAR
STARTCHAR uni0327
ENCODING 807
SWIDTH 252 0
DWIDTH 6 0
BBX 4 4 1 -5
BITMAP
C0
E0
30
70
ENDCHAR
STARTCHAR cid136
ENCODING 808
SWIDTH 252 0
DWIDTH 6 0
BBX 4 4 1 -5
BITMAP
60
C0
F0
20
ENDCHAR
STARTCHAR uni0332
ENCODING 818
SWIDTH 433 0
DWIDTH 10 0
BBX 8 4 1 -1
BITMAP
FF
FF
FF
FF
ENDCHAR
STARTCHAR cid138
ENCODING 822
SWIDTH 755 0
DWIDTH 18 0
BBX 15 5 2 6
BITMAP
FFFE
FFFE
FFFE
FFFE
FFF0
ENDCHAR
STARTCHAR cid458
ENCODING 894
SWIDTH 376 0
DWIDTH 9 0
BBX 5 18 2 -5
BITMAP
F8
F8
F8
F8
F0
00
00
00
00
00
F8
F8
F8
F8
78
30
30
30
ENDCHAR
STARTCHAR cid459
ENCODING 900
SWIDTH 353 0
DWIDTH 8 0
BBX 3 4 3 20
BITMAP
E0
E0
E0
E0
ENDCHAR
STARTCHAR cid460
ENCODING 901
SWIDTH 353 0
DWIDTH 8 0
BBX 8 9 0 15
BITMAP
1C
1C
1C
1C
00
E7
E7
E7
E7
ENDCHAR
STARTCHAR cid461
ENCODING 902
SWIDTH 690 0
DWIDTH 17 0
BBX 15 22 1 -1
BITMAP
7000
7000
70C0
77C0
0FC0
0FE0
0FE0
0EE0
1EE0
1EF0
1CF0
1C70
3C70
3C78
3878
3FF8
7FF8
7FFC
703C
F03C
F03E
F010
ENDCHAR
STARTCHAR cid462
ENCODING 903
SWIDTH 303 0
DWIDTH 7 0
BBX 5 4 1 5
BITMAP
F8
F8
F8
F8
ENDCHAR
STARTCHAR cid463
ENCODING 904
SWIDTH 589 0
DWIDTH 14 0
BBX 14 22 0 -1
BITMAP
E000
E000
EFFC
EFF8
0FF8
0FF8
0E00
0E00
0E00
0E00
0E00
0E00
0FF0
0FF0
0FF0
0F80
0E00
0700
07F8
07F8
07F8
07F8
ENDCHAR
STARTCHAR cid464
ENCODING 905
SWIDTH 653 0
DWIDTH 16 0
BBX 14 22 1 -1
BITMAP
C000
C000
DE3C
DE3C
1E3C
1E3C
1E3C
1E3C
1E3C
1E3C
1E3C
1E3C
1E3C
1FFC
1FFC
1FF8
1E38
0E38
0E38
0E38
0E38
0E38
ENDCHAR
STARTCHAR cid465
ENCODING 906
SWIDTH 366 0
DWIDTH 9 0
BBX 7 22 1 -1
BITMAP
C0
C0
DE
DE
1E
1E
1E
1E
1E
1E
1E
1E
1E
1E
1E
1E
1E
1E
1E
1E
1E
1E
ENDCHAR
STARTCHAR cid467
ENCODING 908
SWIDTH 600 0
DWIDTH 14 0
BBX 12 22 1 -1
BITMAP
C000
C000
CFC0
CFC0
1FE0
3FF0
38F0
3870
3870
3870
3870
3870
3870
3870
3870
3870
3870
3870
3C70
1FE0
0FC0
0780
ENDCHAR
STARTCHAR cid469
ENCODING 910
SWIDTH 685 0
DWIDTH 16 0
BBX 16 22 0 -1
BITMAP
E000
E000
6F0F
6F0E
0F0E
070E
079E
079C
079C
039C
03BC
03F8
03F8
01F8
01F0
01F0
01F0
00F0
00F0
00F0
00F0
00F0
ENDCHAR
STARTCHAR cid470
ENCODING 911
SWIDTH 718 0
DWIDTH 17 0
BBX 17 22 0 -1
BITMAP
E00000
E00000
63F000
67F800
1FFC00
3FFE00
3C0E00
3C0F00
380F00
780F00
780F00
780700
700700
780780
780F00
3C1E00
1E3C00
0E3800
7F7F00
7F7F00
7F3F00
7F3F00
ENDCHAR
STARTCHAR cid471
ENCODING 912
SWIDTH 413 0
DWIDTH 10 0
BBX 9 25 1 -1
BITMAP
3800
3800
1800
1800
0000
E700
E700
E700
E700
0000
3C00
3C00
3C00
3C00
3C00
3C00
3C00
3C00
3C00
3C00
3C00
3C00
1F80
0F80
0780
ENDCHAR
STARTCHAR cid1011
ENCODING 913
SWIDTH 707 0
DWIDTH 17 0
BBX 15 20 1 -1
BITMAP
00C0
07C0
0FC0
0FE0
0EE0
0EE0
1CE0
1CF0
1C70
1C70
3870
3878
3838
3FF8
7FFC
7FFC
703C
701C
E01E
E018
ENDCHAR
STARTCHAR cid1012
ENCODING 914
SWIDTH 489 0
DWIDTH 12 0
BBX 10 20 1 -1
BITMAP
FE00
FF00
FF80
FFC0
E3C0
E3C0
E3C0
E380
E380
FF00
FF00
FFC0
E3C0
E3C0
E3C0
E3C0
E3C0
E3C0
FF80
FE00
ENDCHAR
STARTCHAR cid1013
ENCODING 915
SWIDTH 472 0
DWIDTH 11 0
BBX 9 19 1 -1
BITMAP
FF80
FF80
FF80
E000
E000
E000
E000
E000
E000
E000
E000
E000
E000
E000
E000
E000
E000
E000
E000
ENDCHAR
STARTCHAR cid1014
ENCODING 916
SWIDTH 647 0
DWIDTH 16 0
BBX 14 19 1 -1
BITMAP
0F80
0F80
0FC0
1FC0
1DC0
1DE0
3CE0
38E0
38F0
3870
7070
7078
7078
F038
E03C
E03C
FFFC
FFF8
7FF8
ENDCHAR
STARTCHAR cid1015
ENCODING 917
SWIDTH 468 0
DWIDTH 11 0
BBX 10 20 1 -1
BITMAP
FFC0
FFC0
FFC0
FF80
E000
E000
E000
E000
E000
E000
FF00
FF00
FF00
7800
7000
7000
7F80
7F80
7F80
7F80
ENDCHAR
STARTCHAR cid1016
ENCODING 918
SWIDTH 502 0
DWIDTH 12 0
BBX 10 20 1 -1
BITMAP
FF00
FF80
FF80
FFC0
FFC0
03C0
0380
0780
0F00
0E00
1E00
1C00
3800
7800
7000
E000
FFC0
FFC0
FFC0
7FC0
ENDCHAR
STARTCHAR cid1017
ENCODING 919
SWIDTH 518 0
DWIDTH 12 0
BBX 11 20 1 -1
BITMAP
F1E0
F1E0
F1E0
F1E0
F1E0
F1E0
F1E0
F1E0
F1E0
F1E0
F1C0
FFC0
FFC0
FFC0
F1C0
F1C0
F1C0
F1C0
F1C0
F1C0
ENDCHAR
STARTCHAR cid1018
ENCODING 920
SWIDTH 575 0
DWIDTH 14 0
BBX 12 20 1 -1
BITMAP
1F80
3FC0
7FE0
FFE0
E1F0
E0F0
E0F0
E0F0
E0F0
FFF0
FFF0
FFF0
F0F0
F0F0
F0E0
F0E0
F8E0
7FE0
3FC0
1F80
ENDCHAR
STARTCHAR cid1019
ENCODING 921
SWIDTH 237 0
DWIDTH 6 0
BBX 4 20 1 -1
BITMAP
F0
F0
F0
F0
F0
F0
F0
F0
F0
F0
F0
F0
F0
F0
F0
F0
F0
F0
F0
F0
ENDCHAR
STARTCHAR cid1020
ENCODING 922
SWIDTH 498 0
DWIDTH 12 0
BBX 10 20 1 -1
BITMAP
F000
F380
F3C0
F780
F700
FF00
FE00
FE00
FC00
F800
F800
F000
F800
FC00
FC00
FE00
FFC0
77C0
77C0
73C0
ENDCHAR
STARTCHAR cid1021
ENCODING 923
SWIDTH 692 0
DWIDTH 17 0
BBX 15 20 1 -1
BITMAP
07C0
0FC0
0FC0
0FC0
0FE0
1FE0
1FE0
1EF0
1CF0
3CF0
3CF0
3C78
3C78
7878
7878
783C
783C
F83C
F03C
F01E
ENDCHAR
STARTCHAR cid1022
ENCODING 924
SWIDTH 662 0
DWIDTH 16 0
BBX 14 20 1 -1
BITMAP
F03C
F03C
F07C
F87C
F87C
F87C
F87C
FCFC
FCFC
FCFC
FCFC
EDFC
EFFC
EFBC
E7BC
E7BC
E7BC
E03C
E03C
E03C
ENDCHAR
STARTCHAR cid1023
ENCODING 925
SWIDTH 563 0
DWIDTH 14 0
BBX 12 20 1 -1
BITMAP
E0F0
F0F0
F0F0
F0F0
F8F0
F8F0
FCF0
FCF0
FCE0
FEE0
FEE0
FEE0
F7E0
F7E0
F3E0
F3E0
F3E0
F1E0
F1E0
F0E0
ENDCHAR
STARTCHAR cid1024
ENCODING 926
SWIDTH 595 0
DWIDTH 14 0
BBX 11 20 2 -1
BITMAP
FFE0
FFE0
FFE0
FFE0
0000
0000
0000
0000
FFE0
FFE0
FFE0
FFE0
0000
0000
0000
0000
FFE0
FFE0
FFE0
FFE0
ENDCHAR
STARTCHAR cid1025
ENCODING 927
SWIDTH 532 0
DWIDTH 13 0
BBX 11 20 1 -1
BITMAP
1F00
3F80
7F80
FFC0
E3E0
E1E0
E1E0
E1E0
E1E0
F1C0
F1C0
F1C0
F1C0
F1C0
F1C0
F1C0
F1C0
7F80
3F80
1F00
ENDCHAR
STARTCHAR cid1026
ENCODING 928
SWIDTH 550 0
DWIDTH 13 0
BBX 12 20 1 -1
BITMAP
FFF0
FFF0
FFF0
FFF0
F0E0
F0E0
F0E0
F0E0
F0E0
F0E0
F0E0
F0E0
F0E0
F0E0
F0E0
F0E0
F0E0
F0E0
F0E0
F1E0
ENDCHAR
STARTCHAR cid1027
ENCODING 929
SWIDTH 534 0
DWIDTH 13 0
BBX 11 20 1 -1
BITMAP
FF00
FF80
FFC0
FFE0
F1E0
F1E0
F1E0
F1E0
F1E0
F1E0
F1C0
F1C0
F1C0
FFC0
FF00
F200
F000
F000
F000
F000
ENDCHAR
STARTCHAR cid1028
ENCODING 931
SWIDTH 541 0
DWIDTH 13 0
BBX 11 20 1 -1
BITMAP
FFE0
FFE0
FFE0
FFE0
7800
7800
3C00
1E00
0F00
0F00
0700
0F00
1F00
3E00
3C00
7800
FFE0
FFE0
FFE0
FFE0
ENDCHAR
STARTCHAR cid1029
ENCODING 932
SWIDTH 524 0
DWIDTH 13 0
BBX 11 20 1 -1
BITMAP
FFE0
FFE0
FFE0
FFE0
FFE0
1E00
1E00
1E00
1E00
1E00
1E00
1E00
1E00
1E00
1E00
1E00
1E00
1E00
1E00
1E00
ENDCHAR
STARTCHAR cid1030
ENCODING 933
SWIDTH 561 0
DWIDTH 13 0
BBX 12 20 1 -1
BITMAP
F0F0
F0E0
F0E0
70E0
79E0
79C0
79C0
39C0
3BC0
3F80
3F80
1F80
1F00
1F00
1F00
0F00
0F00
0F00
0F00
0F00
ENDCHAR
STARTCHAR cid1031
ENCODING 934
SWIDTH 631 0
DWIDTH 15 0
BBX 15 20 0 -1
BITMAP
0380
0380
0380
1FF8
3FFC
7FFC
F38E
738C
738C
738C
738C
739C
739C
739C
7FFC
3FF8
1FF0
0380
0380
0380
ENDCHAR
STARTCHAR cid1032
ENCODING 935
SWIDTH 485 0
DWIDTH 12 0
BBX 10 20 1 -1
BITMAP
7380
F3C0
7380
7F80
7F00
3F00
3F00
3E00
1E00
1E00
1E00
1E00
3E00
3F00
3F00
7700
7780
7380
F380
E3C0
ENDCHAR
STARTCHAR cid1033
ENCODING 936
SWIDTH 693 0
DWIDTH 17 0
BBX 15 20 1 -1
BITMAP
E39E
E39E
E39E
E39E
E39E
E39C
E39C
E39C
E39C
E39C
E39C
E39C
FFFC
7FF8
3FF0
1FE0
0380
0380
0300
0300
ENDCHAR
STARTCHAR cid1034
ENCODING 937
SWIDTH 718 0
DWIDTH 17 0
BBX 16 20 1 -1
BITMAP
07E0
0FF0
3FF8
7FFC
781C
781E
701E
F01E
F01E
F00E
E00E
F00F
F01E
783C
3C78
1C70
FEFE
FEFE
FE7E
FE7E
ENDCHAR
STARTCHAR cid472
ENCODING 938
SWIDTH 372 0
DWIDTH 9 0
BBX 8 25 0 -1
BITMAP
E7
E7
E7
00
00
1C
1C
1C
1C
1C
1C
1C
1C
1C
1C
1C
1C
1C
1C
1C
1C
1C
1C
1C
1C
ENDCHAR
STARTCHAR cid473
ENCODING 939
SWIDTH 545 0
DWIDTH 13 0
BBX 11 25 1 -1
BITMAP
39C0
39C0
39C0
0000
0000
E0E0
F0E0
F1E0
F1C0
71C0
71C0
79C0
3B80
3B80
3B80
3B00
1F00
1F00
1F00
1E00
0E00
0E00
0E00
0E00
0E00
ENDCHAR
STARTCHAR cid474
ENCODING 940
SWIDTH 625 0
DWIDTH 15 0
BBX 13 20 1 -1
BITMAP
0300
0300
0300
0300
0000
2000
7E00
FF10
FF38
E778
E770
E3F0
E3E0
E3C0
E7C0
EFE0
FFF8
FCF8
7878
2000
ENDCHAR
STARTCHAR cid475
ENCODING 941
SWIDTH 513 0
DWIDTH 12 0
BBX 11 20 1 -1
BITMAP
0C00
0C00
0C00
0C00
0000
1F00
3FC0
FFE0
E1C0
E080
E000
7E00
3E00
7E00
E000
E080
E1C0
7FC0
3FC0
1F00
ENDCHAR
STARTCHAR cid476
ENCODING 942
SWIDTH 553 0
DWIDTH 13 0
BBX 13 25 0 -6
BITMAP
0700
0700
0700
0700
0000
E7C0
FFE0
FFF0
3FF8
3C78
3C78
3C78
3C78
3C78
3C78
3C78
3C78
3C78
3C78
3C78
0078
0078
0078
0078
0078
ENDCHAR
STARTCHAR cid477
ENCODING 943
SWIDTH 330 0
DWIDTH 8 0
BBX 6 20 1 -1
BITMAP
E0
E0
E0
E0
00
F0
F0
F0
F0
F0
F0
F0
F0
F0
F0
F0
F0
FC
3C
1C
ENDCHAR
STARTCHAR cid478
ENCODING 944
SWIDTH 492 0
DWIDTH 12 0
BBX 10 25 1 -1
BITMAP
0C00
0C00
0C00
0C00
0000
7380
7380
7380
7380
0000
E3C0
E3C0
E1C0
E1C0
E1C0
E1C0
E1C0
E1C0
E1C0
E1C0
E1C0
E1C0
FF80
3F00
1E00
ENDCHAR
STARTCHAR cid1035
ENCODING 945
SWIDTH 625 0
DWIDTH 15 0
BBX 13 15 1 -1
BITMAP
2000
7E00
FF10
FF38
E778
E770
E3E0
E3E0
E3C0
E7C0
EFE0
FFF8
FCF8
7878
2000
ENDCHAR
STARTCHAR cid1036
ENCODING 946
SWIDTH 534 0
DWIDTH 13 0
BBX 11 25 1 -6
BITMAP
0F00
7F80
FFC0
FDC0
E1C0
E1C0
E3C0
E3C0
E3C0
E3C0
E7C0
EF00
E7C0
E3E0
E1E0
E1E0
F1E0
FFE0
FFC0
E780
E100
E000
E000
E000
E000
ENDCHAR
STARTCHAR cid1037
ENCODING 947
SWIDTH 609 0
DWIDTH 15 0
BBX 13 20 1 -6
BITMAP
F078
F078
F870
FC70
1EF0
0EF0
0EE0
0EE0
0FE0
07C0
07C0
07C0
07C0
0780
0380
0380
0380
0380
0380
0380
ENDCHAR
STARTCHAR cid1038
ENCODING 948
SWIDTH 564 0
DWIDTH 14 0
BBX 12 20 1 -1
BITMAP
7FE0
FFE0
FFE0
FFE0
F800
3C00
1F00
1F80
3FE0
39F0
70F0
F070
E070
E0E0
F0E0
70E0
70E0
7FC0
3FC0
1F00
ENDCHAR
STARTCHAR cid1039
ENCODING 949
SWIDTH 513 0
DWIDTH 12 0
BBX 11 15 1 -1
BITMAP
1F00
3FC0
FFE0
E1C0
E080
E000
7E00
3E00
7E00
E000
E080
E1C0
7FC0
3FC0
1F00
ENDCHAR
STARTCHAR cid1040
ENCODING 950
SWIDTH 649 0
DWIDTH 16 0
BBX 13 26 1 -7
BITMAP
3FF0
3FF8
3FF8
3FF8
01F0
03E0
07C0
0780
0F00
1E00
3C00
7C00
F800
F000
F000
F000
F7C0
FFF0
FFF0
3F78
0078
01F8
07F8
07E0
0380
0200
ENDCHAR
STARTCHAR cid1041
ENCODING 951
SWIDTH 553 0
DWIDTH 13 0
BBX 12 20 0 -6
BITMAP
E7C0
FFE0
FFF0
3FF0
3C70
3C70
3C70
3C70
3C70
3C70
3C70
3C70
3C70
3C70
3C70
0070
0070
0070
0070
0070
ENDCHAR
STARTCHAR cid1042
ENCODING 952
SWIDTH 512 0
DWIDTH 12 0
BBX 10 20 1 -1
BITMAP
1F00
3F00
7F80
7FC0
E3C0
E1C0
E1C0
E1C0
E1C0
FFC0
FFC0
FFC0
E1C0
E1C0
E1C0
E1C0
F1C0
7F80
3F00
1E00
ENDCHAR
STARTCHAR cid1043
ENCODING 953
SWIDTH 330 0
DWIDTH 8 0
BBX 6 15 1 -1
BITMAP
F0
F0
F0
F0
F0
F0
F0
F0
F0
F0
F0
F0
FC
7C
3C
ENDCHAR
STARTCHAR cid1044
ENCODING 954
SWIDTH 505 0
DWIDTH 12 0
BBX 11 15 0 -1
BITMAP
F080
70E0
71E0
73C0
73C0
7780
7700
7F00
7F00
7F80
73C0
73C0
71E0
70E0
7080
ENDCHAR
STARTCHAR cid1045
ENCODING 955
SWIDTH 611 0
DWIDTH 15 0
BBX 13 20 1 -1
BITMAP
F000
F800
FC00
3E00
1E00
0E00
0E00
0F00
1F00
1F00
1F00
3F00
3B80
3B80
7B80
7380
73C0
F1F8
E0F8
E078
ENDCHAR
STARTCHAR cid1046
ENCODING 956
SWIDTH 540 0
DWIDTH 13 0
BBX 11 19 1 -6
BITMAP
F1C0
F1C0
F1C0
F1C0
F1C0
F1C0
F1C0
F1C0
F1C0
F1C0
F7C0
FFE0
FFE0
FE60
E000
E000
E000
E000
E000
ENDCHAR
STARTCHAR cid1047
ENCODING 957
SWIDTH 512 0
DWIDTH 12 0
BBX 10 14 1 -1
BITMAP
F1C0
F1C0
71C0
71C0
73C0
7B80
3B80
3B80
3B80
3B00
1F00
1F00
1F00
1E00
ENDCHAR
STARTCHAR cid1048
ENCODING 958
SWIDTH 660 0
DWIDTH 16 0
BBX 14 25 1 -6
BITMAP
FFF8
FFF8
FFF8
CFF8
3F80
7C00
7800
7800
3FC0
1FC0
1FC0
3DC0
7800
F000
F000
7000
73E0
7FF8
3FF8
1F38
003C
00FC
03F8
03E0
0180
ENDCHAR
STARTCHAR cid1049
ENCODING 959
SWIDTH 476 0
DWIDTH 11 0
BBX 10 15 1 -1
BITMAP
1E00
3F00
7F80
FFC0
E3C0
E380
E380
E380
E380
E380
E380
E380
FB80
7F00
3E00
ENDCHAR
STARTCHAR cid1050
ENCODING 960
SWIDTH 724 0
DWIDTH 17 0
BBX 15 15 1 -1
BITMAP
FFFE
FFFE
FFFE
FFFE
1EF0
1CF0
1CF0
1CF0
1CF0
1CF0
1CF0
1CF0
1CFE
383E
381E
ENDCHAR
STARTCHAR cid1051
ENCODING 961
SWIDTH 498 0
DWIDTH 12 0
BBX 10 20 1 -6
BITMAP
3E00
3F00
7F80
FFC0
F1C0
F1C0
F1C0
F3C0
F3C0
F3C0
F3C0
F380
FF80
FF00
FE00
F000
F000
F000
E000
E000
ENDCHAR
STARTCHAR cid479
ENCODING 962
SWIDTH 531 0
DWIDTH 13 0
BBX 11 20 1 -6
BITMAP
0300
3F80
7FE0
FFE0
E0C0
E000
E000
F000
F000
F000
F000
F600
7F80
3FC0
1FE0
01C0
01C0
1FC0
0F80
0400
ENDCHAR
STARTCHAR cid1052
ENCODING 963
SWIDTH 565 0
DWIDTH 14 0
BBX 12 15 1 -1
BITMAP
1FC0
3FF0
FFF0
FFC0
E1C0
E1C0
E1C0
E1C0
E1C0
E1C0
E1C0
E1C0
FF80
7F00
1E00
ENDCHAR
STARTCHAR cid1053
ENCODING 964
SWIDTH 411 0
DWIDTH 10 0
BBX 8 15 1 -1
BITMAP
FF
FF
FF
3B
38
38
38
38
38
38
38
38
3F
3F
0F
ENDCHAR
STARTCHAR cid1054
ENCODING 965
SWIDTH 511 0
DWIDTH 12 0
BBX 10 15 1 -1
BITMAP
F1C0
F1C0
F1C0
F1C0
F1C0
F1C0
F1C0
F1C0
F1C0
F1C0
F1C0
F1C0
7FC0
3F80
1F00
ENDCHAR
STARTCHAR cid1055
ENCODING 966
SWIDTH 668 0
DWIDTH 16 0
BBX 14 24 1 -6
BITMAP
0780
0780
0780
0780
1FE0
3FF0
7FF8
E7FC
E79C
E79C
E79C
E79C
E79C
E79C
E79C
7FF8
3FF0
1FE0
0380
0380
0380
0380
0380
0380
ENDCHAR
STARTCHAR cid1056
ENCODING 967
SWIDTH 594 0
DWIDTH 14 0
BBX 12 20 1 -6
BITMAP
E0E0
F0F0
F8E0
3DE0
1DC0
0FC0
0F80
0F80
0F00
0700
0700
0E00
0E00
1F00
1F00
1F80
3FC0
39F0
78F0
70F0
ENDCHAR
STARTCHAR cid1057
ENCODING 968
SWIDTH 706 0
DWIDTH 17 0
BBX 15 20 1 -6
BITMAP
E388
E38E
E38E
E38E
E38E
E38E
E39E
E39E
E39C
E39C
E39C
FFFC
7FF8
3FF0
1FE0
0380
0380
0380
0380
0380
ENDCHAR
STARTCHAR cid1058
ENCODING 969
SWIDTH 828 0
DWIDTH 20 0
BBX 18 15 1 -1
BITMAP
200000
380700
7C0F80
F80780
F003C0
E001C0
E1E1C0
E1E1C0
E1E3C0
E1C3C0
E1C380
FFF380
7FFF80
3F7F00
3E3E00
ENDCHAR
STARTCHAR cid480
ENCODING 970
SWIDTH 413 0
DWIDTH 10 0
BBX 9 19 1 -1
BITMAP
E700
E700
E700
0000
3C00
3C00
3C00
3C00
3C00
3C00
3C00
3C00
3C00
3C00
3C00
3C00
1F80
0F80
0780
ENDCHAR
STARTCHAR cid481
ENCODING 971
SWIDTH 489 0
DWIDTH 12 0
BBX 10 19 1 -1
BITMAP
7380
7380
7380
0000
E3C0
E3C0
E1C0
E1C0
E1C0
E1C0
E1C0
E1C0
E1C0
E1C0
E1C0
E1C0
FF80
3F00
1E00
ENDCHAR
STARTCHAR cid482
ENCODING 972
SWIDTH 459 0
DWIDTH 11 0
BBX 10 20 1 -1
BITMAP
1C00
1C00
1C00
1C00
0000
1E00
3F00
7F80
FFC0
E3C0
E380
E380
E380
E380
E380
E380
E380
FB80
7F00
3E00
ENDCHAR
STARTCHAR cid483
ENCODING 973
SWIDTH 475 0
DWIDTH 11 0
BBX 10 20 1 -1
BITMAP
1C00
1C00
1C00
1C00
0000
0000
E3C0
E3C0
E3C0
E3C0
E3C0
E3C0
E3C0
E3C0
E3C0
E3C0
E3C0
FF80
7F00
1E00
ENDCHAR
STARTCHAR cid484
ENCODING 974
SWIDTH 828 0
DWIDTH 20 0
BBX 18 20 1 -1
BITMAP
01C000
01C000
01C000
01C000
000000
200000
380700
7C0F80
F80780
F003C0
E001C0
E1E1C0
E1E1C0
E1E3C0
E1C3C0
E1C380
F1C380
7FFF80
3F7F00
3E3E00
ENDCHAR
STARTCHAR cid486
ENCODING 1025
SWIDTH 468 0
DWIDTH 11 0
BBX 10 25 1 -1
BITMAP
7380
7380
7380
0000
0000
FFC0
FFC0
FFC0
FF80
E000
E000
E000
E000
E000
E000
FF00
FF00
FF00
7800
7000
7000
7F80
7F80
7F80
7F80
ENDCHAR
STARTCHAR cid1059
ENCODING 1040
SWIDTH 707 0
DWIDTH 17 0
BBX 15 20 1 -1
BITMAP
00C0
07C0
0FC0
0FE0
0EE0
0EE0
1CE0
1CF0
1C70
1C70
3870
3878
3838
3FF8
7FFC
7FFC
703C
701C
E01E
E018
ENDCHAR
STARTCHAR cid1060
ENCODING 1041
SWIDTH 495 0
DWIDTH 12 0
BBX 10 20 1 -1
BITMAP
FFC0
FFC0
FFC0
E000
E000
E000
E000
E000
FE00
FF00
FFC0
E1C0
E1C0
E1C0
E1C0
E1C0
E180
7F80
7F00
7E00
ENDCHAR
STARTCHAR cid1061
ENCODING 1042
SWIDTH 509 0
DWIDTH 12 0
BBX 11 20 1 -1
BITMAP
3E00
FF80
FFC0
FFE0
E1C0
E1C0
F1C0
F1C0
F1C0
F1C0
F3C0
FF00
FF80
FFC0
71C0
71C0
71C0
7FC0
7F80
7E00
ENDCHAR
STARTCHAR cid1062
ENCODING 1043
SWIDTH 453 0
DWIDTH 11 0
BBX 9 19 1 -1
BITMAP
FF80
FF80
FF80
E000
E000
E000
E000
E000
E000
E000
E000
E000
E000
E000
E000
E000
E000
E000
E000
ENDCHAR
STARTCHAR cid1063
ENCODING 1044
SWIDTH 707 0
DWIDTH 17 0
BBX 15 22 1 -4
BITMAP
0FFC
0FFC
0FFC
0E1C
0E1C
0E1C
0E1C
0E1C
0E1C
0E1C
0E1C
1C1C
1C1C
1C1C
381C
F81C
FFFE
FFFE
FFFE
E01E
E01E
E01E
ENDCHAR
STARTCHAR cid1064
ENCODING 1045
SWIDTH 468 0
DWIDTH 11 0
BBX 10 20 1 -1
BITMAP
FFC0
FFC0
FFC0
FF80
E000
E000
E000
E000
E000
E000
FF00
FF00
FF00
7800
7000
7000
7F80
7F80
7F80
7F80
ENDCHAR
STARTCHAR cid1066
ENCODING 1046
SWIDTH 745 0
DWIDTH 18 0
BBX 16 20 1 -1
BITMAP
F1CF
F1CF
F9DF
F9DF
3DD8
1DB8
1DB8
0FF0
0FF0
0FE0
07E0
0FF0
0FF0
1FF8
3FFC
3FFC
7BDE
7BDE
F3CF
73CE
ENDCHAR
STARTCHAR cid1067
ENCODING 1047
SWIDTH 510 0
DWIDTH 12 0
BBX 11 20 1 -1
BITMAP
1C00
7F00
FFC0
FFC0
61E0
01E0
01E0
01E0
01E0
0FC0
0F80
0FC0
01C0
01C0
01C0
01E0
61E0
FFC0
FF80
3F00
ENDCHAR
STARTCHAR cid1068
ENCODING 1048
SWIDTH 563 0
DWIDTH 14 0
BBX 12 20 1 -1
BITMAP
F0F0
F0F0
F1F0
F1F0
F1F0
F3F0
F3F0
F3F0
F7F0
F7F0
FFF0
EEF0
EEF0
FCF0
FCE0
F8E0
F8E0
F8E0
F0E0
F0E0
ENDCHAR
STARTCHAR cid1069
ENCODING 1049
SWIDTH 563 0
DWIDTH 14 0
BBX 12 25 1 -1
BITMAP
20C0
7FE0
7FE0
1F80
0000
F0F0
F0F0
F1F0
F1F0
F1F0
F3F0
F3F0
F3F0
F7F0
F7F0
FFF0
EEF0
EEF0
FCF0
FCE0
F8E0
F8E0
F8E0
F0E0
F0E0
ENDCHAR
STARTCHAR cid1070
ENCODING 1050
SWIDTH 514 0
DWIDTH 12 0
BBX 11 20 1 -1
BITMAP
F3E0
F3E0
F7C0
F7C0
FF00
FE00
FC00
FC00
F800
F800
FC00
FC00
FE00
EE00
EE00
EF00
E700
F780
F780
F380
ENDCHAR
STARTCHAR cid1071
ENCODING 1051
SWIDTH 724 0
DWIDTH 17 0
BBX 15 20 1 -1
BITMAP
07FE
07FE
07FE
07FE
070E
070E
070E
070E
070E
070E
0F0E
0F0E
0F0E
0F0E
0E0E
0E0E
1E0E
FC0E
F80E
F80E
ENDCHAR
STARTCHAR cid1072
ENCODING 1052
SWIDTH 662 0
DWIDTH 16 0
BBX 14 20 1 -1
BITMAP
F03C
F03C
F07C
F87C
F87C
F87C
F87C
FCFC
FCFC
FCFC
FCFC
EDFC
EFFC
EFBC
E7BC
E7BC
E7BC
E03C
E03C
E03C
ENDCHAR
STARTCHAR cid1073
ENCODING 1053
SWIDTH 518 0
DWIDTH 12 0
BBX 11 20 1 -1
BITMAP
F1E0
F1E0
F1E0
F1E0
F1E0
F1E0
F1E0
F1E0
F1E0
F1E0
F1C0
FFC0
FFC0
FFC0
F1C0
F1C0
F1C0
F1C0
F1C0
F1C0
ENDCHAR
STARTCHAR cid1074
ENCODING 1054
SWIDTH 532 0
DWIDTH 13 0
BBX 11 20 1 -1
BITMAP
1F00
3F80
7F80
FFC0
E3E0
E1E0
E1E0
E1E0
E1E0
F1C0
F1C0
F1C0
F1C0
F1C0
F1C0
F1C0
F1C0
7F80
3F80
1F00
ENDCHAR
STARTCHAR cid1075
ENCODING 1055
SWIDTH 550 0
DWIDTH 13 0
BBX 12 20 1 -1
BITMAP
FFF0
FFF0
FFF0
FFF0
F0E0
F0E0
F0E0
F0E0
F0E0
F0E0
F0E0
F0E0
F0E0
F0E0
F0E0
F0E0
F0E0
F0E0
F0E0
F1E0
ENDCHAR
STARTCHAR cid1076
ENCODING 1056
SWIDTH 534 0
DWIDTH 13 0
BBX 11 20 1 -1
BITMAP
FF00
FF80
FFC0
FFE0
F1E0
F1E0
F1E0
F1E0
F1E0
F1E0
F1C0
F1C0
F1C0
FFC0
FF00
F200
F000
F000
F000
F000
ENDCHAR
STARTCHAR cid1077
ENCODING 1057
SWIDTH 510 0
DWIDTH 12 0
BBX 10 20 1 -1
BITMAP
3E00
3F00
7F80
FFC0
E1C0
E1C0
E1C0
E1C0
E1C0
E1C0
E000
E000
E000
E000
E3C0
E3C0
E3C0
7FC0
3F00
1E00
ENDCHAR
STARTCHAR cid1078
ENCODING 1058
SWIDTH 524 0
DWIDTH 13 0
BBX 11 20 1 -1
BITMAP
FFE0
FFE0
FFE0
FFE0
FFE0
1E00
1E00
1E00
1E00
1E00
1E00
1E00
1E00
1E00
1E00
1E00
1E00
1E00
1E00
1E00
ENDCHAR
STARTCHAR cid1079
ENCODING 1059
SWIDTH 517 0
DWIDTH 12 0
BBX 11 20 1 -1
BITMAP
71E0
F3C0
F3C0
73C0
7BC0
7B80
3F80
3F80
3F00
1F00
1F00
1F00
1E00
0E00
1E00
1C00
1C00
1C00
3C00
3800
ENDCHAR
STARTCHAR cid1080
ENCODING 1060
SWIDTH 631 0
DWIDTH 15 0
BBX 15 20 0 -1
BITMAP
0380
0380
0380
1FF8
3FFC
7FFC
F38E
738C
738C
738C
738C
739C
739C
739C
7FFC
3FF8
1FF0
0380
0380
0380
ENDCHAR
STARTCHAR cid1081
ENCODING 1061
SWIDTH 485 0
DWIDTH 12 0
BBX 10 20 1 -1
BITMAP
7380
F3C0
7380
7F80
7F00
3F00
3F00
3E00
1E00
1E00
1E00
1E00
3E00
3F00
3F00
7700
7780
7380
F380
E3C0
ENDCHAR
STARTCHAR cid1082
ENCODING 1062
SWIDTH 563 0
DWIDTH 14 0
BBX 12 22 1 -4
BITMAP
F1E0
F1E0
F1C0
F1C0
F1C0
F1C0
F1C0
F1C0
F1C0
F1C0
F1C0
F1C0
F1C0
F1C0
F1C0
E1C0
FFF0
FFF0
FFF0
00F0
00F0
00F0
ENDCHAR
STARTCHAR cid1083
ENCODING 1063
SWIDTH 510 0
DWIDTH 12 0
BBX 10 19 1 -1
BITMAP
E3C0
E3C0
E3C0
E3C0
E3C0
E3C0
E3C0
E3C0
EFC0
FFC0
7FC0
3DC0
01C0
01C0
01C0
03C0
03C0
03C0
03C0
ENDCHAR
STARTCHAR cid1084
ENCODING 1064
SWIDTH 801 0
DWIDTH 19 0
BBX 17 20 1 -1
BITMAP
F10000
F1E780
F1E780
F1C780
F1C780
F1C780
F1C780
F1C780
F1C780
F1C780
F1C780
F1C780
F1C780
F1C780
F1C780
F1C780
F9C780
FFFF80
FFFF80
FFFF80
ENDCHAR
STARTCHAR cid1085
ENCODING 1065
SWIDTH 843 0
DWIDTH 20 0
BBX 18 23 1 -4
BITMAP
F1E780
F1E780
F1E780
F1E780
F1E780
F1E780
F1E780
F1E780
F1E780
F1E780
F1E780
E1E780
E1C780
E1C780
E1C780
E1C780
FFFF80
FFFFC0
FFFFC0
FFFFC0
0001C0
0001C0
0001C0
ENDCHAR
STARTCHAR cid1086
ENCODING 1066
SWIDTH 592 0
DWIDTH 14 0
BBX 14 20 0 -1
BITMAP
FC00
FC00
FC00
FC00
1C00
1C00
1C00
1C00
1FE0
1FF0
1FF8
1C3C
1C3C
1C3C
1C3C
1C38
1C38
1FF8
1FF0
1FE0
ENDCHAR
STARTCHAR cid1087
ENCODING 1067
SWIDTH 721 0
DWIDTH 17 0
BBX 16 20 1 -1
BITMAP
E00F
E00F
E00E
E00E
E00E
E00E
E00E
E00E
FF0E
FF8E
FFCE
E1EE
E1EE
E1EE
E1EE
E1EE
E1CE
FFCE
FF8E
FF0E
ENDCHAR
STARTCHAR cid1088
ENCODING 1068
SWIDTH 519 0
DWIDTH 12 0
BBX 11 20 1 -1
BITMAP
E000
E000
E000
E000
E000
E000
E000
E000
FF00
FF80
FFC0
E1E0
E1E0
E1E0
E1E0
E1E0
E1C0
FFC0
FF80
FF00
ENDCHAR
STARTCHAR cid1089
ENCODING 1069
SWIDTH 567 0
DWIDTH 14 0
BBX 12 20 1 -1
BITMAP
1C00
7F80
FFC0
FFE0
61E0
00E0
00F0
00F0
00F0
07F0
07F0
07F0
0470
00F0
00F0
00E0
60E0
FFE0
FFC0
3F00
ENDCHAR
STARTCHAR cid1090
ENCODING 1070
SWIDTH 712 0
DWIDTH 17 0
BBX 15 20 1 -1
BITMAP
F0F8
E1FC
E3FC
E3FE
E78E
E78E
E78E
E78E
E78E
FF8E
FF8E
FF8E
E78E
E78E
E38E
E38E
E38E
E3FC
E1F8
E0F8
ENDCHAR
STARTCHAR cid1091
ENCODING 1071
SWIDTH 488 0
DWIDTH 12 0
BBX 10 20 1 -1
BITMAP
3FC0
7FC0
7FC0
FFC0
E1C0
E1C0
E1C0
E1C0
E1C0
E1C0
E1C0
F1C0
FFC0
7FC0
3FC0
1DC0
1DC0
F9C0
F9C0
F1C0
ENDCHAR
STARTCHAR cid1092
ENCODING 1072
SWIDTH 493 0
DWIDTH 12 0
BBX 11 15 1 -1
BITMAP
7E00
7F80
7FC0
01C0
1B80
7F80
FF80
E380
E380
E380
E380
E380
FFE0
7FC0
1E40
ENDCHAR
STARTCHAR cid1093
ENCODING 1073
SWIDTH 478 0
DWIDTH 11 0
BBX 10 20 1 -1
BITMAP
0F00
3F00
7F00
FC00
E000
E000
FE00
FF00
FF80
E3C0
E1C0
E1C0
E3C0
E380
E380
E380
E380
FF80
7F00
3E00
ENDCHAR
STARTCHAR cid1094
ENCODING 1074
SWIDTH 462 0
DWIDTH 11 0
BBX 9 15 1 -1
BITMAP
FE00
FF00
FF80
C380
E380
E380
FF00
FE00
FF00
E380
E380
E380
FF80
FF00
FE00
ENDCHAR
STARTCHAR cid1095
ENCODING 1075
SWIDTH 415 0
DWIDTH 10 0
BBX 9 15 1 -1
BITMAP
FF80
FF80
FF80
FF80
E000
E000
E000
E000
E000
E000
E000
E000
E000
E000
E000
ENDCHAR
STARTCHAR cid1096
ENCODING 1076
SWIDTH 590 0
DWIDTH 14 0
BBX 13 18 1 -4
BITMAP
0FE0
1FE0
1FE0
1CE0
1CE0
1CE0
1CE0
1CE0
18E0
38E0
38E0
78E0
FFF8
FFF8
FFF8
E070
E070
E070
ENDCHAR
STARTCHAR cid1097
ENCODING 1077
SWIDTH 482 0
DWIDTH 12 0
BBX 10 15 1 -1
BITMAP
3F00
7F80
FFC0
E1C0
E1C0
E1C0
FFC0
FF80
E000
E000
E3C0
E380
FF80
7F00
3E00
ENDCHAR
STARTCHAR cid1099
ENCODING 1078
SWIDTH 731 0
DWIDTH 18 0
BBX 15 15 1 -1
BITMAP
F38E
F39E
FB9E
BBB8
1FB8
1FF0
0FF0
0FE0
0FF0
1FB8
3FB8
3BBC
7B9E
F39E
F38E
ENDCHAR
STARTCHAR cid1100
ENCODING 1079
SWIDTH 513 0
DWIDTH 12 0
BBX 11 15 1 -1
BITMAP
3F00
7F80
FFC0
F1E0
41E0
01E0
0FC0
0F80
0F80
01E0
41E0
61E0
FFC0
FF80
3F00
ENDCHAR
STARTCHAR cid1101
ENCODING 1080
SWIDTH 516 0
DWIDTH 12 0
BBX 11 15 1 -1
BITMAP
E0E0
E1E0
E1E0
E3E0
E3E0
E7E0
EFE0
EFE0
FDE0
FDE0
F9E0
F9E0
F1E0
F1E0
E1E0
ENDCHAR
STARTCHAR cid1102
ENCODING 1081
SWIDTH 516 0
DWIDTH 12 0
BBX 11 21 1 -1
BITMAP
0080
61C0
FFC0
7FC0
3F00
0000
E0E0
E1E0
E1E0
E3E0
E3E0
E7E0
EFE0
EFE0
FDE0
FDE0
F9E0
F9E0
F1E0
F1E0
E1E0
ENDCHAR
STARTCHAR cid1103
ENCODING 1082
SWIDTH 456 0
DWIDTH 11 0
BBX 9 15 1 -1
BITMAP
E780
EF80
EF80
EC00
FC00
F800
F800
F800
FC00
FC00
EE00
EE00
EF00
E700
E700
ENDCHAR
STARTCHAR cid1104
ENCODING 1083
SWIDTH 592 0
DWIDTH 14 0
BBX 13 15 1 -1
BITMAP
1FF8
1FF8
1FF8
1C78
1C78
1C78
1C78
1C78
1C78
1C78
3878
3878
F878
F078
E078
ENDCHAR
STARTCHAR cid1105
ENCODING 1084
SWIDTH 673 0
DWIDTH 16 0
BBX 14 15 1 -1
BITMAP
F03C
F03C
F83C
F87C
F87C
FC7C
FCFC
FCFC
EEDC
EFDC
E7DC
E79C
E79C
E39C
E31C
ENDCHAR
STARTCHAR cid1106
ENCODING 1085
SWIDTH 526 0
DWIDTH 13 0
BBX 11 15 1 -1
BITMAP
F1E0
F1E0
F1E0
F1E0
F1E0
F1E0
F1E0
FFE0
FFE0
FFC0
F1C0
F1C0
F1C0
F1C0
F1C0
ENDCHAR
STARTCHAR cid1107
ENCODING 1086
SWIDTH 459 0
DWIDTH 11 0
BBX 10 15 1 -1
BITMAP
3E00
7F00
FF80
E3C0
E380
E380
E380
E380
E380
E380
E380
E380
FB80
7F00
3E00
ENDCHAR
STARTCHAR cid1108
ENCODING 1087
SWIDTH 500 0
DWIDTH 12 0
BBX 10 15 1 -1
BITMAP
FFC0
FFC0
FFC0
E1C0
E1C0
E1C0
E1C0
E1C0
E1C0
E1C0
E1C0
E1C0
E1C0
E1C0
F1C0
ENDCHAR
STARTCHAR cid1109
ENCODING 1088
SWIDTH 464 0
DWIDTH 11 0
BBX 10 20 1 -6
BITMAP
FE00
FF00
FF80
E3C0
E3C0
E380
E380
E380
E380
E380
E380
E380
FF00
FE00
FC00
E000
E000
E000
E000
E000
ENDCHAR
STARTCHAR cid1110
ENCODING 1089
SWIDTH 478 0
DWIDTH 11 0
BBX 10 15 1 -1
BITMAP
1E00
3F00
7F80
FFC0
E1C0
E1C0
E000
E000
E000
E000
E3C0
E3C0
FF80
7F80
3F00
ENDCHAR
STARTCHAR cid1111
ENCODING 1090
SWIDTH 483 0
DWIDTH 12 0
BBX 10 15 1 -1
BITMAP
FFC0
FFC0
FFC0
FFC0
1C00
1C00
1C00
1C00
1C00
1C00
1C00
1C00
1C00
1C00
1C00
ENDCHAR
STARTCHAR cid1112
ENCODING 1091
SWIDTH 491 0
DWIDTH 12 0
BBX 11 20 0 -6
BITMAP
F9E0
79E0
79E0
79C0
39C0
3FC0
3FC0
1F80
1F80
1F80
0F00
0F00
0F00
0F00
0F00
0E00
0E00
1E00
1E00
0400
ENDCHAR
STARTCHAR cid1113
ENCODING 1092
SWIDTH 668 0
DWIDTH 16 0
BBX 14 24 1 -6
BITMAP
0780
0780
0780
0780
1FE0
3FF0
7FF8
E7FC
E79C
E79C
E79C
E79C
E79C
E79C
E79C
7FF8
3FF0
1FE0
0380
0380
0380
0380
0380
0380
ENDCHAR
STARTCHAR cid1114
ENCODING 1093
SWIDTH 462 0
DWIDTH 11 0
BBX 9 15 1 -1
BITMAP
F380
F380
F700
7700
7F00
3E00
3E00
3C00
3E00
3E00
3F00
7700
7700
E780
E300
ENDCHAR
STARTCHAR cid1115
ENCODING 1094
SWIDTH 529 0
DWIDTH 13 0
BBX 11 18 1 -4
BITMAP
E1C0
E1C0
E1C0
E1C0
E1C0
E1C0
E1C0
E1C0
E1C0
E1C0
E1C0
E1C0
FFE0
FFE0
FFE0
00E0
00E0
00E0
ENDCHAR
STARTCHAR cid1116
ENCODING 1095
SWIDTH 476 0
DWIDTH 11 0
BBX 10 15 1 -1
BITMAP
E3C0
E3C0
E3C0
E3C0
E3C0
E3C0
E3C0
EFC0
7FC0
7FC0
3DC0
01C0
01C0
01C0
0380
ENDCHAR
STARTCHAR cid1117
ENCODING 1096
SWIDTH 740 0
DWIDTH 18 0
BBX 17 15 0 -1
BITMAP
F1E380
71E380
71E380
71E380
71E380
71E380
71E380
71E380
71E380
71E380
71E380
71E380
7FFF80
7FFF80
7FFF80
ENDCHAR
STARTCHAR cid1118
ENCODING 1097
SWIDTH 790 0
DWIDTH 19 0
BBX 18 18 0 -4
BITMAP
F1E780
F1E380
F1E380
71E380
71E380
71E380
71E380
71E380
71E380
71E380
71E380
71C380
7FFFC0
7FFFC0
7FFFC0
0001C0
0001C0
0001C0
ENDCHAR
STARTCHAR cid1119
ENCODING 1098
SWIDTH 503 0
DWIDTH 12 0
BBX 10 15 1 -1
BITMAP
F800
F800
F800
F800
3800
3800
3F80
3FC0
3FC0
38C0
38C0
30C0
3FC0
3F80
3F00
ENDCHAR
STARTCHAR cid1120
ENCODING 1099
SWIDTH 590 0
DWIDTH 14 0
BBX 13 15 1 -1
BITMAP
E078
E078
E078
E078
E078
E078
FC78
FE78
FF78
E370
E370
E770
FF70
FE70
FC70
ENDCHAR
STARTCHAR cid1121
ENCODING 1100
SWIDTH 485 0
DWIDTH 12 0
BBX 10 15 1 -1
BITMAP
E000
E000
E000
E000
E000
E000
FF00
FF80
FFC0
E1C0
E1C0
E1C0
FF80
FF80
FF00
ENDCHAR
STARTCHAR cid1122
ENCODING 1101
SWIDTH 545 0
DWIDTH 13 0
BBX 11 15 1 -1
BITMAP
3F00
FF80
FFC0
61E0
40E0
00E0
07E0
07E0
07E0
00E0
60E0
71E0
FFC0
7F80
1F00
ENDCHAR
STARTCHAR cid1123
ENCODING 1102
SWIDTH 679 0
DWIDTH 16 0
BBX 14 15 1 -1
BITMAP
E0F0
E3F8
E7FC
E7FC
E71C
E71C
E71C
FF1C
FF1C
E71C
E71C
E71C
E7DC
E3F8
E1F0
ENDCHAR
STARTCHAR cid1124
ENCODING 1103
SWIDTH 474 0
DWIDTH 11 0
BBX 10 15 1 -1
BITMAP
3FC0
7FC0
FFC0
E1C0
E1C0
E1C0
E1C0
E1C0
FFC0
7FC0
1DC0
19C0
F9C0
F9C0
F1C0
ENDCHAR
STARTCHAR cid487
ENCODING 1105
SWIDTH 482 0
DWIDTH 12 0
BBX 10 19 1 -1
BITMAP
7380
7380
7380
0000
0000
3F00
7F80
FFC0
E1C0
E1C0
FFC0
FFC0
F000
E000
E3C0
E380
FF80
7F00
3E00
ENDCHAR
STARTCHAR cid633
ENCODING 8195
SWIDTH 296 0
DWIDTH 7 0
BBX 1 1 0 0
BITMAP
00
ENDCHAR
STARTCHAR uni2011
ENCODING 8209
SWIDTH 503 0
DWIDTH 12 0
BBX 10 4 1 4
BITMAP
FFC0
FFC0
FFC0
FFC0
ENDCHAR
STARTCHAR cid114
ENCODING 8210
SWIDTH 517 0
DWIDTH 12 0
BBX 9 5 2 6
BITMAP
FF80
FF80
FF80
FF80
FC00
ENDCHAR
STARTCHAR endash
ENCODING 8211
SWIDTH 543 0
DWIDTH 13 0
BBX 11 4 1 4
BITMAP
FFE0
FFE0
FFE0
FFE0
ENDCHAR
STARTCHAR emdash
ENCODING 8212
SWIDTH 754 0
DWIDTH 18 0
BBX 15 5 2 3
BITMAP
FFFE
FFFE
FFFE
FFFE
FFFE
ENDCHAR
STARTCHAR cid661
ENCODING 8213
SWIDTH 755 0
DWIDTH 18 0
BBX 16 4 1 6
BITMAP
FFFF
FFFF
7FFF
7FC0
ENDCHAR
STARTCHAR cid666
ENCODING 8214
SWIDTH 470 0
DWIDTH 11 0
BBX 9 21 1 -1
BITMAP
F780
F780
F780
F780
F780
F780
F780
F780
F780
F780
F780
F780
F780
F780
F780
F780
F780
F780
F780
F780
F780
ENDCHAR
STARTCHAR quoteleft
ENCODING 8216
SWIDTH 291 0
DWIDTH 7 0
BBX 5 8 1 12
BITMAP
30
60
60
F8
F8
F8
F8
F8
ENDCHAR
STARTCHAR quoteright
ENCODING 8217
SWIDTH 277 0
DWIDTH 7 0
BBX 5 8 1 12
BITMAP
F8
F8
F8
F8
F8
30
70
60
ENDCHAR
STARTCHAR cid120
ENCODING 8218
SWIDTH 285 0
DWIDTH 7 0
BBX 5 8 1 -5
BITMAP
F8
F8
F8
F8
F0
30
70
60
ENDCHAR
STARTCHAR cid105
ENCODING 8219
SWIDTH 276 0
DWIDTH 7 0
BBX 5 8 1 12
BITMAP
F8
F8
F8
F8
F8
E0
60
70
ENDCHAR
STARTCHAR cid108
ENCODING 8220
SWIDTH 541 0
DWIDTH 13 0
BBX 11 8 1 12
BITMAP
3180
6180
6380
FBE0
FBE0
FBE0
FBE0
FBE0
ENDCHAR
STARTCHAR cid122
ENCODING 8221
SWIDTH 527 0
DWIDTH 13 0
BBX 10 8 1 12
BITMAP
FBC0
FBC0
FBC0
FBC0
FBC0
31C0
7180
6180
ENDCHAR
STARTCHAR cid121
ENCODING 8222
SWIDTH 541 0
DWIDTH 13 0
BBX 11 8 1 -5
BITMAP
FBE0
FBE0
FBE0
FBE0
7BE0
30C0
31C0
2180
ENDCHAR
STARTCHAR cid776
ENCODING 8224
SWIDTH 520 0
DWIDTH 12 0
BBX 9 21 2 -2
BITMAP
3C00
3C00
3C00
3C00
3C00
FF80
FF80
FF80
FF80
3C00
3C00
3C00
3C00
3C00
1C00
1C00
1C00
1C00
1C00
1C00
1C00
ENDCHAR
STARTCHAR cid777
ENCODING 8225
SWIDTH 520 0
DWIDTH 12 0
BBX 9 21 2 -2
BITMAP
3C00
3C00
3C00
3C00
3C00
FF80
FF80
FF80
FF80
3C00
3C00
3C00
3C00
FF80
FF80
FF80
FF80
1C00
1C00
1C00
1C00
ENDCHAR
STARTCHAR cid119
ENCODING 8226
SWIDTH 517 0
DWIDTH 12 0
BBX 5 5 4 6
BITMAP
F8
F8
F0
F0
F0
ENDCHAR
STARTCHAR cid668
ENCODING 8230
SWIDTH 823 0
DWIDTH 20 0
BBX 17 4 1 -1
BITMAP
FBE780
FBE780
FBE780
FBE780
ENDCHAR
STARTCHAR cid772
ENCODING 8240
SWIDTH 983 0
DWIDTH 24 0
BBX 22 21 1 -1
BITMAP
003800
007800
007800
78F000
FCF000
CCE000
CDE000
CDC000
7BC000
3BC000
038000
078000
073870
0F7CF8
0EEFDC
0EEFDC
1EEFD8
1C7CF8
3C3870
380000
780000
ENDCHAR
STARTCHAR cid708
ENCODING 8242
SWIDTH 257 0
DWIDTH 6 0
BBX 5 7 1 15
BITMAP
F8
F8
F0
F0
F0
F0
F0
ENDCHAR
STARTCHAR cid709
ENCODING 8243
SWIDTH 629 0
DWIDTH 15 0
BBX 11 7 2 15
BITMAP
7FE0
7BE0
7BE0
7BE0
7BC0
F3C0
F3C0
ENDCHAR
STARTCHAR cid110
ENCODING 8249
SWIDTH 410 0
DWIDTH 10 0
BBX 7 12 1 0
BITMAP
0C
1E
3E
7C
F0
E0
F0
78
3C
1E
0E
04
ENDCHAR
STARTCHAR cid111
ENCODING 8250
SWIDTH 410 0
DWIDTH 10 0
BBX 8 12 1 0
BITMAP
30
78
7C
3E
1F
0F
0F
1E
3C
F8
70
20
ENDCHAR
STARTCHAR cid734
ENCODING 8251
SWIDTH 862 0
DWIDTH 21 0
BBX 19 18 1 0
BITMAP
00E000
00E000
0CE400
1E0E00
3F1F00
1FBE00
0FFC00
07F800
E3F1E0
E3F9E0
E7FDC0
0FFE00
1F3F00
3E1F80
1C0E00
0CE400
00E000
00E000
ENDCHAR
STARTCHAR uni203E
ENCODING 8254
SWIDTH 296 0
DWIDTH 7 0
BBX 1 1 0 0
BITMAP
00
ENDCHAR
STARTCHAR cid104
ENCODING 8260
SWIDTH 721 0
DWIDTH 17 0
BBX 12 21 2 -1
BITMAP
0070
00F0
00F0
01E0
01E0
01C0
03C0
0380
0780
0780
0700
0F00
0E00
1E00
1C00
1C00
3C00
3800
7800
7000
F000
ENDCHAR
STARTCHAR cid8721
ENCODING 8364
SWIDTH 583 0
DWIDTH 14 0
BBX 12 20 1 -1
BITMAP
0F80
1FC0
1FE0
3FF0
78F0
78F0
78F0
FEF0
FEF0
FEE0
7800
FE00
FE00
FE00
38E0
38E0
38E0
3FE0
1FC0
0F80
ENDCHAR
STARTCHAR cid1176
ENCODING 8470
SWIDTH 848 0
DWIDTH 20 0
BBX 19 20 1 -1
BITMAP
01C000
E1C000
E1C000
F1C000
F1C000
F1C300
F1CF80
F9DFC0
F9FFE0
F9F8E0
FDF8C0
EDF8C0
ED98C0
EF9CC0
E79FC0
E78F80
E78000
E39FC0
E39FC0
E39FC0
ENDCHAR
STARTCHAR cid228
ENCODING 8482
SWIDTH 741 0
DWIDTH 18 0
BBX 16 9 1 10
BITMAP
FDC7
FDC7
31CF
31EF
31EB
31AB
31BB
31BB
3197
ENDCHAR
STARTCHAR cid737
ENCODING 8592
SWIDTH 807 0
DWIDTH 19 0
BBX 17 11 1 3
BITMAP
0C0000
1E0000
3E0000
7C0000
FFFF80
FFFF80
FFFF80
F00000
7C0000
1F0000
0E0000
ENDCHAR
STARTCHAR cid738
ENCODING 8593
SWIDTH 625 0
DWIDTH 15 0
BBX 13 16 1 1
BITMAP
0F00
1F80
3FE0
7FF0
F7F8
7770
2720
0700
0700
0700
0700
0700
0700
0700
0700
0700
ENDCHAR
STARTCHAR cid736
ENCODING 8594
SWIDTH 807 0
DWIDTH 19 0
BBX 17 11 1 3
BITMAP
001800
003C00
003F00
000F80
FFFF80
FFFF80
FFFF80
000F00
003E00
003C00
001800
ENDCHAR
STARTCHAR cid739
ENCODING 8595
SWIDTH 625 0
DWIDTH 15 0
BBX 13 17 1 0
BITMAP
0700
0700
0700
0700
0700
0700
0700
0700
0700
2700
2730
F778
7FF0
3FE0
1FC0
0F80
0700
ENDCHAR
STARTCHAR cid752
ENCODING 8658
SWIDTH 807 0
DWIDTH 19 0
BBX 17 11 1 3
BITMAP
001800
003C00
003F00
FFFF80
FFFF80
000380
FFFF80
FFFF00
F03E00
003C00
001800
ENDCHAR
STARTCHAR cid753
ENCODING 8660
SWIDTH 894 0
DWIDTH 21 0
BBX 20 12 1 3
BITMAP
000200
0C0700
1F0F80
3E07C0
7FFFE0
FFFFF0
E000F0
FFFFF0
FFFFE0
3FFFC0
1F0F80
0C0300
ENDCHAR
STARTCHAR cid754
ENCODING 8704
SWIDTH 706 0
DWIDTH 17 0
BBX 15 19 1 -1
BITMAP
F01E
F03C
783C
7FFC
7FF8
7FF8
3878
3C78
3C70
1C70
1CF0
1CF0
1EE0
0EE0
0FE0
0FE0
0FC0
07C0
07C0
ENDCHAR
STARTCHAR cid759
ENCODING 8706
SWIDTH 566 0
DWIDTH 14 0
BBX 11 20 1 -1
BITMAP
0780
0FC0
3FE0
3FE0
38E0
00E0
00E0
00E0
01E0
07E0
1FE0
3EE0
78E0
70E0
70E0
F0E0
F0E0
7FE0
3FC0
1F80
ENDCHAR
STARTCHAR cid755
ENCODING 8707
SWIDTH 469 0
DWIDTH 11 0
BBX 10 20 1 -1
BITMAP
FFC0
FFC0
FF80
FF80
0380
0380
0380
0380
0380
0380
7F80
7F80
7F80
0380
0380
0380
FF80
FF80
FF80
FF00
ENDCHAR
STARTCHAR cid760
ENCODING 8711
SWIDTH 840 0
DWIDTH 20 0
BBX 17 18 2 -1
BITMAP
FFFF80
FFFF80
7FFF00
780F00
380E00
3C1E00
1C1C00
1E3C00
0E3800
0F7800
077000
07F000
07E000
03E000
03C000
01C000
018000
008000
ENDCHAR
STARTCHAR cid741
ENCODING 8712
SWIDTH 682 0
DWIDTH 16 0
BBX 14 17 1 0
BITMAP
1FFC
3FFC
7FFC
FFFC
F000
F000
F000
FFFC
FFFC
FFFC
E000
E000
E000
FFFC
FFFC
7FFC
3FFC
ENDCHAR
STARTCHAR cid742
ENCODING 8715
SWIDTH 682 0
DWIDTH 16 0
BBX 14 17 1 0
BITMAP
FFE0
FFF0
FFF8
FFFC
001C
001C
001C
FFFC
FFFC
FFFC
001C
001C
001C
FFFC
FFFC
FFF8
FFF0
ENDCHAR
STARTCHAR uni2219
ENCODING 8729
SWIDTH 303 0
DWIDTH 7 0
BBX 5 4 1 5
BITMAP
F8
F8
F8
F8
ENDCHAR
STARTCHAR cid765
ENCODING 8730
SWIDTH 901 0
DWIDTH 22 0
BBX 21 22 0 -1
BITMAP
003FF8
007FF8
007FF8
007FF0
007000
007000
007000
007000
007000
1CE000
3EE000
3EE000
7EE000
EEE000
2EE000
0EC000
0FC000
07C000
07C000
07C000
078000
078000
ENDCHAR
STARTCHAR cid703
ENCODING 8734
SWIDTH 821 0
DWIDTH 20 0
BBX 18 10 1 3
BITMAP
1C0200
7F3F00
FFFF80
E7FFC0
E1E1C0
E1E1C0
E1E1C0
FFFF80
7F3F00
3E0E00
ENDCHAR
STARTCHAR cid756
ENCODING 8736
SWIDTH 723 0
DWIDTH 17 0
BBX 13 19 2 -1
BITMAP
0030
0078
00F8
00F0
01E0
03E0
03C0
0780
0F80
0F00
1E00
3E00
3C00
7800
F800
F008
FFF8
FFF8
7FF8
ENDCHAR
STARTCHAR cid749
ENCODING 8743
SWIDTH 692 0
DWIDTH 17 0
BBX 15 20 1 -1
BITMAP
07C0
0FC0
0FC0
0FE0
0FE0
1FE0
1EE0
1EF0
1CF0
1CF0
3CF0
3C78
3C78
3878
7878
783C
783C
783C
F03E
F01E
ENDCHAR
STARTCHAR cid750
ENCODING 8744
SWIDTH 692 0
DWIDTH 17 0
BBX 14 19 1 -1
BITMAP
F03C
F03C
783C
783C
7838
7878
3C78
3C78
3C70
3CF0
1EF0
1EF0
1EE0
1EE0
0FE0
0FE0
0FE0
0FC0
07C0
ENDCHAR
STARTCHAR cid748
ENCODING 8745
SWIDTH 682 0
DWIDTH 16 0
BBX 15 17 1 0
BITMAP
1FE0
3FF0
7FF8
FFFC
F01E
F01E
F01E
F01E
F01E
F01E
F01E
F01E
F01E
F01E
F01E
F01E
F01E
ENDCHAR
STARTCHAR cid747
ENCODING 8746
SWIDTH 682 0
DWIDTH 16 0
BBX 15 17 1 0
BITMAP
F01E
F01E
F01E
F01E
F01E
F01E
F01E
F01E
F01E
F01E
F01E
F01E
F01E
F03E
7FFC
3FF8
1FF0
ENDCHAR
STARTCHAR cid769
ENCODING 8747
SWIDTH 579 0
DWIDTH 14 0
BBX 13 19 0 -1
BITMAP
00F8
01F8
03F8
03F8
0780
0780
0780
0700
0700
0700
0700
0F00
0F00
0E00
1E00
FE00
7C00
7C00
7800
ENDCHAR
STARTCHAR cid770
ENCODING 8748
SWIDTH 913 0
DWIDTH 22 0
BBX 21 19 0 -1
BITMAP
00F8F8
01F9F8
03F9F8
03FBF8
078380
078780
078780
070780
070700
070700
070700
0F0700
0F0F00
0E0F00
1E0E00
FE7E00
7C7C00
7C7C00
787800
ENDCHAR
STARTCHAR cid704
ENCODING 8756
SWIDTH 660 0
DWIDTH 16 0
BBX 12 11 2 2
BITMAP
0E00
0E00
0E00
0000
0000
0000
0000
0000
E070
E070
E070
ENDCHAR
STARTCHAR cid768
ENCODING 8757
SWIDTH 660 0
DWIDTH 16 0
BBX 12 11 2 2
BITMAP
E070
E070
E070
0000
0000
0000
0000
0000
0700
0700
0700
ENDCHAR
STARTCHAR similar
ENCODING 8764
SWIDTH 586 0
DWIDTH 14 0
BBX 11 6 2 14
BITMAP
1000
7840
FDC0
EFE0
4700
0200
ENDCHAR
STARTCHAR cid1182
ENCODING 8776
SWIDTH 629 0
DWIDTH 15 0
BBX 13 11 1 3
BITMAP
1820
FEE0
FFF0
7FF0
63C0
0D00
3F70
FFF8
7FF8
73F0
0080
ENDCHAR
STARTCHAR cid762
ENCODING 8786
SWIDTH 688 0
DWIDTH 17 0
BBX 12 17 2 0
BITMAP
6000
6000
0000
FFF0
FFF0
FFF0
FFF0
FFF0
0000
FFF0
FFF0
FFF0
FFF0
FFF0
0040
0070
0070
ENDCHAR
STARTCHAR cid698
ENCODING 8800
SWIDTH 688 0
DWIDTH 17 0
BBX 12 17 2 0
BITMAP
00E0
01E0
01C0
FFF0
FFF0
FFF0
FFF0
FFF0
0E00
7FF0
7FF0
7FF0
7FF0
7FF0
3800
7800
7000
ENDCHAR
STARTCHAR cid761
ENCODING 8801
SWIDTH 622 0
DWIDTH 15 0
BBX 11 12 2 3
BITMAP
FFE0
FFE0
FFE0
0000
0000
FFE0
FFE0
FFE0
0000
FFE0
FFE0
FFE0
ENDCHAR
STARTCHAR cid1180
ENCODING 8804
SWIDTH 536 0
DWIDTH 13 0
BBX 11 13 1 2
BITMAP
00E0
0FE0
FFE0
FFC0
FC00
FFC0
3FC0
07C0
01C0
0000
FFE0
FFE0
FFE0
ENDCHAR
STARTCHAR cid1181
ENCODING 8805
SWIDTH 536 0
DWIDTH 13 0
BBX 11 13 1 2
BITMAP
E000
FE00
FFE0
7FE0
07E0
7FE0
7F80
7C00
6000
0000
FFE0
FFE0
FFE0
ENDCHAR
STARTCHAR cid701
ENCODING 8806
SWIDTH 435 0
DWIDTH 10 0
BBX 8 15 1 1
BITMAP
06
1F
7E
F8
F0
7C
1F
0E
00
FF
FF
00
FF
FF
FF
ENDCHAR
STARTCHAR cid702
ENCODING 8807
SWIDTH 435 0
DWIDTH 10 0
BBX 9 15 1 1
BITMAP
3000
7C00
3F00
0F80
0780
1F00
FC00
7000
2000
7F00
7F00
0000
FF00
7F00
7F00
ENDCHAR
STARTCHAR cid763
ENCODING 8810
SWIDTH 649 0
DWIDTH 16 0
BBX 14 12 1 2
BITMAP
0C10
1E38
3E7C
7DF0
FBE0
E3C0
E3C0
F9E0
7CF0
3E78
1E38
0410
ENDCHAR
STARTCHAR cid764
ENCODING 8811
SWIDTH 649 0
DWIDTH 16 0
BBX 14 12 1 2
BITMAP
2080
71C0
F9E0
3CF0
1E78
0F3C
0F1C
1F7C
3EF8
F9F0
71E0
60C0
ENDCHAR
STARTCHAR cid745
ENCODING 8834
SWIDTH 682 0
DWIDTH 16 0
BBX 14 17 1 0
BITMAP
1FFC
3FFC
7FFC
FFFC
F000
F000
F000
F000
F000
F000
F000
F000
F000
FFFC
FFFC
3FFC
1FFC
ENDCHAR
STARTCHAR cid746
ENCODING 8835
SWIDTH 682 0
DWIDTH 16 0
BBX 14 17 1 0
BITMAP
FFE0
FFF0
FFF8
FFFC
001C
001C
001C
001C
001C
001C
001C
001C
001C
FFFC
FFFC
FFF8
FFF0
ENDCHAR
STARTCHAR cid743
ENCODING 8838
SWIDTH 682 0
DWIDTH 16 0
BBX 14 17 1 0
BITMAP
1FFC
3FFC
7FFC
FFFC
F000
F000
F000
F000
FFFC
7FFC
3FFC
1FFC
0000
0000
FFFC
FFFC
FFFC
ENDCHAR
STARTCHAR cid744
ENCODING 8839
SWIDTH 682 0
DWIDTH 16 0
BBX 14 17 1 0
BITMAP
FFE0
FFF0
FFF8
FFFC
001C
001C
001C
001C
FFFC
FFF8
FFF0
FFE0
0000
0000
FFFC
FFFC
FFFC
ENDCHAR
STARTCHAR cid757
ENCODING 8869
SWIDTH 585 0
DWIDTH 14 0
BBX 12 20 1 -1
BITMAP
0700
0700
0700
0700
0700
0700
0700
0700
0700
0700
0700
0700
0700
0700
0700
0700
FFF0
FFF0
FFF0
FFF0
ENDCHAR
STARTCHAR cid758
ENCODING 8978
SWIDTH 796 0
DWIDTH 19 0
BBX 17 7 1 14
BITMAP
070000
1FFC00
3FFE00
FFFF80
F00780
600300
000100
ENDCHAR
STARTCHAR cid729
ENCODING 9632
SWIDTH 771 0
DWIDTH 19 0
BBX 16 16 1 1
BITMAP
FFFF
FFFF
FFFF
FFFF
FFFF
FFFF
FFFF
FFFF
7FFF
7FFF
7FFF
7FFF
7FFF
7FFE
7FFE
0006
ENDCHAR
STARTCHAR cid728
ENCODING 9633
SWIDTH 771 0
DWIDTH 19 0
BBX 17 16 1 1
BITMAP
FFFF80
FFFF80
FFFF80
F00F80
F00780
F00780
F00780
F00700
F00700
F00700
700F00
700F00
700F00
7FFF00
7FFF00
7FFF00
ENDCHAR
STARTCHAR cid731
ENCODING 9650
SWIDTH 840 0
DWIDTH 20 0
BBX 16 17 2 0
BITMAP
0080
0080
01C0
01C0
03C0
03E0
07E0
07F0
0FF0
0FF8
1FF8
1FFC
3FFC
3FFE
7FFE
7FFF
FFFF
ENDCHAR
STARTCHAR cid730
ENCODING 9651
SWIDTH 840 0
DWIDTH 20 0
BBX 18 18 1 0
BITMAP
004000
004000
00E000
00E000
01F000
01F000
03F800
03B800
073800
073C00
0E1C00
0E1E00
1C0E00
1C0F00
3C0700
3FFF80
7FFF80
FFFFC0
ENDCHAR
STARTCHAR cid733
ENCODING 9660
SWIDTH 840 0
DWIDTH 20 0
BBX 16 17 2 -1
BITMAP
FFFF
FFFE
7FFE
7FFC
3FFC
3FF8
1FF8
1FF0
0FF0
0FE0
07E0
07C0
03C0
0380
0380
0100
0100
ENDCHAR
STARTCHAR cid732
ENCODING 9661
SWIDTH 840 0
DWIDTH 20 0
BBX 17 18 2 -1
BITMAP
FFFF80
FFFF80
7FFF00
780F00
380E00
3C1E00
1C1C00
1E3C00
0E3800
0F7800
077000
07F000
07E000
03E000
03C000
01C000
018000
008000
ENDCHAR
STARTCHAR cid727
ENCODING 9670
SWIDTH 788 0
DWIDTH 19 0
BBX 15 21 2 -2
BITMAP
0100
0180
03C0
07C0
0FE0
0FF0
1FF0
3FF8
7FFC
7FFC
FFFE
FFFE
FFFE
7FFC
3FF8
1FF0
0FE0
07C0
0380
0100
0100
ENDCHAR
STARTCHAR cid726
ENCODING 9671
SWIDTH 788 0
DWIDTH 19 0
BBX 17 21 1 -2
BITMAP
00C000
01E000
01E000
03F000
07F800
0F7800
0E3C00
1C1E00
3C0E00
780F00
700780
F00780
780700
3C0E00
1E1E00
0E3C00
077800
07F000
03E000
01C000
008000
ENDCHAR
STARTCHAR cid723
ENCODING 9675
SWIDTH 875 0
DWIDTH 21 0
BBX 19 20 1 -1
BITMAP
003800
1FFC00
1FFE00
3FFF00
3C0F80
7807C0
7803E0
F001E0
F001E0
F001E0
F001E0
7001C0
7801C0
7801C0
7803C0
3C07C0
1E0F80
0FFF00
07FE00
07FC00
ENDCHAR
STARTCHAR cid725
ENCODING 9678
SWIDTH 875 0
DWIDTH 21 0
BBX 19 20 1 -1
BITMAP
003800
1FFC00
1FFE00
3FFF00
3C0F80
7807C0
79F3E0
F3F9E0
F319C0
F719C0
F319C0
F319C0
7399C0
79F1C0
78E3C0
7C0780
3E0F00
1FFE00
0FFC00
07F800
ENDCHAR
STARTCHAR cid724
ENCODING 9679
SWIDTH 875 0
DWIDTH 21 0
BBX 17 18 2 0
BITMAP
003000
1FF800
3FFC00
3FFE00
7FFF00
7FFF80
FFFF80
FFFF80
FFFF80
FFFF80
7FFF80
7FFF80
7FFF00
7FFF00
3FFE00
1FFC00
0FF800
07F000
ENDCHAR
STARTCHAR cid779
ENCODING 9711
SWIDTH 795 0
DWIDTH 19 0
BBX 17 20 1 -1
BITMAP
003000
1FF800
3FFC00
3FFE00
781E00
780F00
F00780
F00380
F00380
F00380
F00380
F00380
700380
700300
780700
780F00
3C1E00
1FFC00
0FF800
07F000
ENDCHAR
STARTCHAR cid722
ENCODING 9733
SWIDTH 947 0
DWIDTH 23 0
BBX 20 21 1 -1
BITMAP
002000
003000
007000
007800
00F800
00FC00
01FC00
07FE00
FFFFF0
7FFFF0
3FFFE0
1FFFC0
0FFF80
07FF00
07FF00
07FF00
07FF80
0FFF80
0FDF80
0F07C0
1C00C0
ENDCHAR
STARTCHAR cid721
ENCODING 9734
SWIDTH 947 0
DWIDTH 23 0
BBX 20 21 1 -1
BITMAP
003000
003000
007800
007800
00FC00
00FC00
01DE00
07CE00
FF8FF0
7F87F0
3C00E0
1E01C0
0F0380
070700
070700
072300
06FB80
0FFF80
0FDF80
0F07C0
1800C0
ENDCHAR
STARTCHAR cid706
ENCODING 9792
SWIDTH 580 0
DWIDTH 14 0
BBX 12 21 1 -1
BITMAP
0300
3F80
7FC0
7FE0
F1F0
E0F0
E0F0
E0F0
F0E0
7FE0
3FC0
1F80
0E00
0E00
3FC0
3FC0
3FC0
0E00
0E00
0E00
0E00
ENDCHAR
STARTCHAR cid705
ENCODING 9794
SWIDTH 694 0
DWIDTH 17 0
BBX 15 20 1 -1
BITMAP
0078
01F8
07FC
07FC
077C
00EC
00EE
01EC
0FC0
3FC0
7FE0
78F0
F070
F070
F070
F070
7CF0
3FF0
3FE0
0F80
ENDCHAR
STARTCHAR cid775
ENCODING 9834
SWIDTH 667 0
DWIDTH 16 0
BBX 14 21 1 -1
BITMAP
0100
0380
0FE0
0FF0
0FF8
0F3C
071C
071C
0738
0738
0770
0700
0700
0700
0700
7F00
FF00
FF00
FF00
FF00
3800
ENDCHAR
STARTCHAR cid774
ENCODING 9837
SWIDTH 464 0
DWIDTH 11 0
BBX 10 21 1 -1
BITMAP
F000
F000
F000
E000
E000
E000
E200
EF00
FF80
FFC0
F980
E180
E180
E380
E380
E380
EF80
FF00
FE00
F800
C000
ENDCHAR
STARTCHAR cid773
ENCODING 9839
SWIDTH 673 0
DWIDTH 16 0
BBX 14 20 1 -1
BITMAP
00F0
1CF0
1CF0
1CE8
1CF8
1FFC
FFFC
FFF8
7FE0
5CE0
1CE0
1CF8
1FF8
FFF8
7FF0
7FC0
1DC0
1DC0
1DC0
1D80
ENDCHAR
STARTCHAR uni3000
ENCODING 12288
SWIDTH 446 0
DWIDTH 11 0
BBX 1 1 0 0
BITMAP
00
ENDCHAR
STARTCHAR cid634
ENCODING 12289
SWIDTH 335 0
DWIDTH 8 0
BBX 6 5 1 -1
BITMAP
60
F0
78
3C
18
ENDCHAR
STARTCHAR cid635
ENCODING 12290
SWIDTH 298 0
DWIDTH 7 0
BBX 6 6 1 -1
BITMAP
78
FC
CC
CC
F8
30
ENDCHAR
STARTCHAR cid655
ENCODING 12291
SWIDTH 618 0
DWIDTH 15 0
BBX 13 9 1 6
BITMAP
1860
3EF8
3EF8
7DF0
7DF0
79E0
FBE0
F3C0
71C0
ENDCHAR
STARTCHAR cid657
ENCODING 12293
SWIDTH 590 0
DWIDTH 14 0
BBX 13 17 1 0
BITMAP
3C00
3FC0
7FE0
7FF0
7078
F0F0
F0F0
61E0
01E0
03C0
13C0
3F80
3F00
1F80
07E0
03C0
01C0
ENDCHAR
STARTCHAR cid658
ENCODING 12294
SWIDTH 716 0
DWIDTH 17 0
BBX 15 18 1 0
BITMAP
001C
001E
001C
003C
0038
0478
1F78
3FF0
3FF8
3BFE
79FE
73FE
77C4
EF00
FE00
FC00
F800
7000
ENDCHAR
STARTCHAR cid659
ENCODING 12295
SWIDTH 795 0
DWIDTH 19 0
BBX 17 20 1 -1
BITMAP
003000
1FF800
3FFC00
3FFE00
781E00
780F00
F00780
F00380
F00380
F00380
F00380
F00380
700380
700300
780700
780F00
3C1E00
1FFC00
0FF800
07F000
ENDCHAR
STARTCHAR cid682
ENCODING 12296
SWIDTH 662 0
DWIDTH 16 0
BBX 12 21 2 -1
BITMAP
00C0
01F0
03F0
07E0
0FC0
1F80
3F00
7C00
F800
F000
E000
F000
F800
7C00
3E00
1F00
0FC0
07E0
03F0
01F0
00C0
ENDCHAR
STARTCHAR cid683
ENCODING 12297
SWIDTH 672 0
DWIDTH 16 0
BBX 12 21 2 -1
BITMAP
3000
7800
FC00
7E00
3F00
0F80
07C0
03E0
01F0
00F0
0070
00F0
01F0
03E0
07C0
0F80
1F00
3E00
FC00
7800
3000
ENDCHAR
STARTCHAR cid684
ENCODING 12298
SWIDTH 850 0
DWIDTH 20 0
BBX 18 21 1 -1
BITMAP
00C380
01E3C0
03E7C0
07CF80
0F9F00
0F3E00
1E7C00
3C7800
78F000
F1E000
E1C000
F1E000
78F000
3CF000
1E7800
1E3C00
0F1E00
078F00
07CF80
03E7C0
018300
ENDCHAR
STARTCHAR cid685
ENCODING 12299
SWIDTH 846 0
DWIDTH 20 0
BBX 17 21 2 -1
BITMAP
60C000
F1E000
F9F000
7CF000
3E7800
1E3C00
0F3E00
079F00
03CF00
03C780
01C380
01C380
03C780
078F00
0F1E00
1F3C00
1E3C00
3C7800
78F000
F9E000
70E000
ENDCHAR
STARTCHAR cid686
ENCODING 12300
SWIDTH 472 0
DWIDTH 11 0
BBX 8 23 2 -1
BITMAP
FF
FF
FF
FF
FF
E0
E0
E0
E0
E0
E0
F0
F0
F0
F0
F0
F0
F0
F0
F0
F0
F0
F0
ENDCHAR
STARTCHAR cid687
ENCODING 12301
SWIDTH 471 0
DWIDTH 11 0
BBX 8 23 2 -3
BITMAP
0F
0F
0F
0F
0F
0F
0F
0F
0F
0F
0F
0F
0F
0F
0F
0F
0F
0F
FF
FF
FF
FF
FF
ENDCHAR
STARTCHAR cid688
ENCODING 12302
SWIDTH 472 0
DWIDTH 11 0
BBX 10 25 1 -2
BITMAP
FFC0
FFC0
C0C0
C0C0
C0C0
DFC0
DFC0
DC00
DC00
DC00
DC00
CC00
CC00
CC00
CC00
CC00
CC00
CC00
CC00
CC00
CC00
CC00
CC00
FC00
FC00
ENDCHAR
STARTCHAR cid689
ENCODING 12303
SWIDTH 471 0
DWIDTH 11 0
BBX 10 25 1 -4
BITMAP
0FC0
0FC0
0CC0
0CC0
0CC0
0CC0
0CC0
0CC0
0CC0
0CC0
0CC0
0CC0
0CC0
0CC0
0CC0
0CC0
0CC0
0CC0
FCC0
FCC0
C0C0
C0C0
C0C0
FFC0
FFC0
ENDCHAR
STARTCHAR cid690
ENCODING 12304
SWIDTH 487 0
DWIDTH 12 0
BBX 8 23 2 -2
BITMAP
FF
FF
FF
FC
F0
F0
F0
F0
F0
F0
F0
F0
F0
F0
F0
F0
F0
F0
F0
F8
FF
FF
FF
ENDCHAR
STARTCHAR cid691
ENCODING 12305
SWIDTH 485 0
DWIDTH 12 0
BBX 8 24 2 -2
BITMAP
3C
FF
FF
FF
3F
07
07
07
07
07
0F
0F
0F
0F
0F
0F
0F
0F
0F
0F
1F
FF
FF
FF
ENDCHAR
STARTCHAR cid735
ENCODING 12306
SWIDTH 596 0
DWIDTH 14 0
BBX 12 19 1 -1
BITMAP
FFF0
FFF0
FFF0
FFF0
0000
0000
FFF0
FFF0
FFF0
FFF0
FFF0
0F00
0F00
0F00
0F00
0F00
0F00
0F00
0F00
ENDCHAR
STARTCHAR cid740
ENCODING 12307
SWIDTH 688 0
DWIDTH 17 0
BBX 12 11 2 3
BITMAP
FFF0
FFF0
FFF0
FFF0
FFF0
0000
FFF0
FFF0
FFF0
FFF0
FFF0
ENDCHAR
STARTCHAR cid676
ENCODING 12308
SWIDTH 460 0
DWIDTH 11 0
BBX 8 23 1 -2
BITMAP
0C
1E
3F
7E
F8
F0
F0
F0
F0
F0
70
70
70
70
70
70
70
70
78
7E
3F
1E
0C
ENDCHAR
STARTCHAR cid677
ENCODING 12309
SWIDTH 460 0
DWIDTH 11 0
BBX 8 23 2 -2
BITMAP
30
78
FC
7E
1F
0F
0F
0F
0F
0F
0F
0F
0F
0E
0E
0E
0E
0E
1E
3E
FC
78
30
ENDCHAR
STARTCHAR cid665
ENCODING 12316
SWIDTH 822 0
DWIDTH 20 0
BBX 17 9 1 5
BITMAP
020000
0F0100
1F8300
7FCF80
FFFF80
7DFF80
38FE00
207800
002000
ENDCHAR
STARTCHAR cid1174
ENCODING 12317
SWIDTH 576 0
DWIDTH 14 0
BBX 12 7 1 15
BITMAP
71C0
FFE0
FBE0
79E0
7DF0
3CF0
38E0
ENDCHAR
STARTCHAR cid1175
ENCODING 12319
SWIDTH 590 0
DWIDTH 14 0
BBX 12 7 1 -3
BITMAP
F3C0
F3C0
FBE0
79E0
7DF0
7DF0
2080
ENDCHAR
STARTCHAR cid842
ENCODING 12353
SWIDTH 592 0
DWIDTH 14 0
BBX 12 15 1 0
BITMAP
1C00
1C00
FFE0
FFE0
FC00
18C0
3EC0
7FC0
7FE0
CFF0
CF70
EE70
7C70
7EF0
76C0
ENDCHAR
STARTCHAR cid843
ENCODING 12354
SWIDTH 732 0
DWIDTH 18 0
BBX 15 20 1 -1
BITMAP
0F00
0F00
FFFC
FFFC
FFFC
FE00
0E60
0E30
3FF0
7FF8
FFFC
EEFE
EEEE
E7CE
E78E
E70E
7F3E
7F3E
7B38
3320
ENDCHAR
STARTCHAR cid844
ENCODING 12355
SWIDTH 591 0
DWIDTH 14 0
BBX 12 15 1 -1
BITMAP
1000
F060
F070
F070
F070
F070
70F0
70F0
70F0
70E0
70E0
70E0
7800
3C00
0800
ENDCHAR
STARTCHAR cid845
ENCODING 12356
SWIDTH 711 0
DWIDTH 17 0
BBX 15 17 1 -1
BITMAP
3800
F800
781E
781E
781E
781E
781E
781C
781C
783C
783C
783C
783C
7C38
3E00
1E00
0C00
ENDCHAR
STARTCHAR cid846
ENCODING 12357
SWIDTH 533 0
DWIDTH 13 0
BBX 10 16 1 -1
BITMAP
3C00
3F00
3F00
0000
1E00
3F80
7FC0
F0C0
61C0
01C0
01C0
0180
0380
1F80
1F00
1C00
ENDCHAR
STARTCHAR cid847
ENCODING 12358
SWIDTH 650 0
DWIDTH 16 0
BBX 13 21 1 -2
BITMAP
3C00
3FE0
3FC0
3FC0
0000
1C00
3FE0
3FF0
7FF8
F838
7078
1078
0078
0070
00F0
00F0
03E0
0FE0
0FC0
0F80
0C00
ENDCHAR
STARTCHAR cid848
ENCODING 12359
SWIDTH 550 0
DWIDTH 13 0
BBX 12 15 1 -1
BITMAP
3F00
3F00
0000
1F80
FFC0
FFC0
E380
0700
0E00
1E00
3F00
7E00
F7F0
E7F0
47F0
ENDCHAR
STARTCHAR cid849
ENCODING 12360
SWIDTH 687 0
DWIDTH 16 0
BBX 15 19 1 -1
BITMAP
1FC0
1FC0
1FC0
0000
0FE0
FFF0
FFF8
FEF0
61E0
03C0
0780
0F00
0FC0
1FC0
3FC0
7DFE
F1FE
61FE
01F8
ENDCHAR
STARTCHAR cid850
ENCODING 12361
SWIDTH 588 0
DWIDTH 14 0
BBX 13 16 0 -1
BITMAP
0E00
0E00
7E00
3FB8
3FB8
0E38
0E18
0E18
3E00
7FF0
7FF8
E618
6638
6638
7C70
3C30
ENDCHAR
STARTCHAR cid851
ENCODING 12362
SWIDTH 713 0
DWIDTH 17 0
BBX 15 20 1 -1
BITMAP
1E00
1E00
1E0C
1FBC
7F9E
7F9E
7E0E
0F0E
0F00
0F00
1FF8
7FFC
7FFE
F70E
E70E
E70E
E71E
6F3E
7E3C
1C18
ENDCHAR
STARTCHAR cid852
ENCODING 12363
SWIDTH 715 0
DWIDTH 17 0
BBX 15 21 1 -1
BITMAP
0010
0030
1E78
1E3C
1E3E
1E1E
1C08
3FF0
FFF8
FFFC
FE3C
BC3C
3C3C
3C3C
3C3C
383C
383C
3878
08F8
01F0
0060
ENDCHAR
STARTCHAR cid853
ENCODING 12364
SWIDTH 712 0
DWIDTH 17 0
BBX 15 26 1 -1
BITMAP
00EE
00EE
00EE
00EE
0000
0010
0030
1E78
1E3C
1E3E
1E1E
1C08
3FF0
FFF8
FFFC
FE3C
BC3C
3C3C
3C3C
3C3C
383C
383C
3878
08F8
01F0
0060
ENDCHAR
STARTCHAR cid854
ENCODING 12365
SWIDTH 661 0
DWIDTH 16 0
BBX 13 20 1 -1
BITMAP
0380
0780
03F8
FFF8
FFF8
03C0
01C0
3FF8
3FF8
01F8
00E0
1EE0
3FE0
3FE0
79C0
7800
7878
7FF8
1FF0
0FE0
ENDCHAR
STARTCHAR cid855
ENCODING 12366
SWIDTH 661 0
DWIDTH 16 0
BBX 14 25 1 -1
BITMAP
01DC
01DC
01DC
01DC
0000
0380
0780
03F8
FFF8
FFF8
03C0
01C0
3FF8
3FF8
01F8
00E0
1EE0
3FE0
3FE0
79C0
7800
7878
7FF8
1FF0
0FE0
ENDCHAR
STARTCHAR cid856
ENCODING 12367
SWIDTH 582 0
DWIDTH 14 0
BBX 11 18 1 -1
BITMAP
0100
03C0
03E0
07C0
0F80
1F00
3E00
7C00
FC00
F800
7000
7C00
7E00
3F80
1FC0
07E0
03C0
01C0
ENDCHAR
STARTCHAR cid857
ENCODING 12368
SWIDTH 659 0
DWIDTH 16 0
BBX 14 23 1 -1
BITMAP
01DC
01DC
01D8
01D8
0000
0100
03C0
03E0
07C0
0F80
1F00
3E00
7C00
FC00
F800
7000
7C00
7E00
3F80
1FC0
07E0
03C0
01C0
ENDCHAR
STARTCHAR cid858
ENCODING 12369
SWIDTH 719 0
DWIDTH 17 0
BBX 15 20 1 -1
BITMAP
003C
003C
003C
F83C
F83C
F9FE
F9FE
79FE
7038
7038
7038
7038
7038
7038
7078
7878
7878
3CF0
11E0
0060
ENDCHAR
STARTCHAR cid859
ENCODING 12370
SWIDTH 719 0
DWIDTH 17 0
BBX 15 26 1 -1
BITMAP
006E
006E
006E
006E
006E
0000
003C
003C
003C
F83C
F83C
F9FE
F9FE
79FE
7038
7038
7038
7038
7038
7038
7078
7878
7878
3CF0
11E0
0060
ENDCHAR
STARTCHAR cid860
ENCODING 12371
SWIDTH 646 0
DWIDTH 16 0
BBX 13 18 1 -1
BITMAP
03F0
FFF0
FFF8
FFF8
7078
00F0
0010
0000
0000
0000
0000
0000
7000
7F30
7FF0
7FF0
1FF0
0080
ENDCHAR
STARTCHAR cid861
ENCODING 12372
SWIDTH 646 0
DWIDTH 16 0
BBX 13 23 1 -1
BITMAP
01D8
01D8
01D8
01F8
0000
03F0
FFF0
FFF8
FFF8
7078
00F0
0010
0000
0000
0000
0000
0000
7000
7F30
7FF0
7FF0
1FF0
0080
ENDCHAR
STARTCHAR cid862
ENCODING 12373
SWIDTH 659 0
DWIDTH 16 0
BBX 14 19 1 -1
BITMAP
07C0
07C0
E3C0
FFFC
7FF8
7FF8
01E0
00E0
0CF0
3F70
3FF0
3FF8
79E0
7800
7800
7FE0
7FE0
7FE0
03E0
ENDCHAR
STARTCHAR cid863
ENCODING 12374
SWIDTH 659 0
DWIDTH 16 0
BBX 14 25 1 -1
BITMAP
01DC
01DC
01DC
01DC
0000
0000
07C0
07C0
E3C0
FFFC
7FF8
7FF8
01E0
00E0
0CF0
3F70
3FF0
3FF8
79E0
7800
7800
7FE0
7FE0
7FE0
03E0
ENDCHAR
STARTCHAR cid864
ENCODING 12375
SWIDTH 633 0
DWIDTH 15 0
BBX 13 17 1 -1
BITMAP
F000
F000
F000
F000
F000
7000
7000
7000
7000
7000
7020
7078
7078
7C78
7FF0
3FF0
1FC0
ENDCHAR
STARTCHAR cid865
ENCODING 12376
SWIDTH 633 0
DWIDTH 15 0
BBX 13 19 1 -1
BITMAP
03B0
03B0
F3B0
F3B0
F000
F000
F000
7000
7000
7000
7000
7000
7020
7078
7078
7C78
7FF0
3FF0
1FC0
ENDCHAR
STARTCHAR cid866
ENCODING 12377
SWIDTH 691 0
DWIDTH 17 0
BBX 14 20 1 -1
BITMAP
01F0
01F0
FFFC
FFFC
FFFC
FEFC
00E0
0CE0
1FE0
3FE0
38E0
38E0
3BE0
1FE0
1FE0
04E0
00E0
1FE0
1FC0
1F80
ENDCHAR
STARTCHAR cid867
ENCODING 12378
SWIDTH 691 0
DWIDTH 17 0
BBX 15 25 1 -1
BITMAP
00EE
00EE
00EE
00EC
0000
01F0
01F0
FFFC
FFFC
FFFC
FEFC
00E0
0CE0
1FE0
3FE0
38E0
38E0
3BE0
1FE0
1FE0
04E0
00E0
1FE0
1FC0
1F80
ENDCHAR
STARTCHAR cid868
ENCODING 12379
SWIDTH 735 0
DWIDTH 18 0
BBX 16 19 1 -1
BITMAP
3C3C
3C3C
3C3C
FFF8
FFFF
FFFF
FFFE
3C38
3C38
3C38
3C00
3C00
3C00
3C3C
3C3C
3FFC
1FFC
0FF8
07C0
ENDCHAR
STARTCHAR cid869
ENCODING 12380
SWIDTH 732 0
DWIDTH 18 0
BBX 16 25 1 -1
BITMAP
006E
006E
006E
006E
0000
0000
3C3C
3C3C
3C3C
FFF8
FFFF
FFFF
FFFE
3C38
3C38
3C38
3C00
3C00
3C00
3C3C
3C3C
3FFC
1FFC
0FF8
07C0
ENDCHAR
STARTCHAR cid870
ENCODING 12381
SWIDTH 614 0
DWIDTH 15 0
BBX 13 20 1 -2
BITMAP
7FE0
7FE0
7FE0
3FE0
0F80
1E00
7CE0
FFF0
FFF0
7FF0
03F8
0FE0
3F80
3E00
3800
3C00
3FE0
1FE0
0FE0
03F0
ENDCHAR
STARTCHAR cid871
ENCODING 12382
SWIDTH 666 0
DWIDTH 16 0
BBX 14 25 1 -2
BITMAP
01DC
01DC
01DC
01DC
0000
7FE0
7FE0
7FE0
3FE0
0F80
1E00
7CE0
FFF0
FFF0
7FF0
03F8
0FE0
3F80
3E00
3800
3C00
3FE0
1FE0
0FE0
03F0
ENDCHAR
STARTCHAR cid872
ENCODING 12383
SWIDTH 683 0
DWIDTH 16 0
BBX 14 19 1 -1
BITMAP
3C00
3C00
3FF0
FFF0
FFF0
FFC0
3800
3800
3BF8
3BF8
39FC
381C
3818
7800
7000
73C4
F3FC
F3FC
30F8
ENDCHAR
STARTCHAR cid873
ENCODING 12384
SWIDTH 683 0
DWIDTH 16 0
BBX 14 23 1 -1
BITMAP
00EC
00EC
00EC
00FC
3C00
3C00
3FF0
FFF0
FFF0
FFC0
3800
3800
3BF8
3BF8
39FC
381C
3818
7800
7000
73C4
F3FC
F3FC
30F8
ENDCHAR
STARTCHAR cid874
ENCODING 12385
SWIDTH 657 0
DWIDTH 16 0
BBX 13 19 1 -1
BITMAP
0F80
0F00
FFF8
FFF8
FFF8
1E00
1C00
3C00
38C0
7FF0
3FF0
1FF8
0878
0078
0078
0078
0FF8
0FF8
0FF0
ENDCHAR
STARTCHAR cid875
ENCODING 12386
SWIDTH 657 0
DWIDTH 16 0
BBX 14 24 1 -1
BITMAP
01DC
01DC
01DC
01D8
0000
0F80
0F00
FFF8
FFF8
FFF8
1E00
1C00
3C00
38C0
7FF0
3FF0
1FF8
0878
0078
0078
0078
0FF8
0FF8
0FF0
ENDCHAR
STARTCHAR cid876
ENCODING 12387
SWIDTH 528 0
DWIDTH 13 0
BBX 11 13 1 -1
BITMAP
FF00
FF80
FFE0
F1E0
01E0
01E0
01E0
01C0
01C0
07C0
1F80
1F00
1E00
ENDCHAR
STARTCHAR cid877
ENCODING 12388
SWIDTH 674 0
DWIDTH 16 0
BBX 14 16 1 0
BITMAP
FFE0
7FF8
7FFC
7E3C
003C
003C
003C
003C
003C
003C
0038
0078
0FF0
0FF0
0FE0
0700
ENDCHAR
STARTCHAR cid878
ENCODING 12389
SWIDTH 678 0
DWIDTH 16 0
BBX 14 22 1 0
BITMAP
01DC
01DC
01DC
01DC
0000
0000
FFE0
7FF8
7FFC
7E3C
003C
003C
003C
003C
003C
003C
0038
0078
0FF0
0FF0
0FE0
0700
ENDCHAR
STARTCHAR cid879
ENCODING 12390
SWIDTH 619 0
DWIDTH 15 0
BBX 13 18 1 -1
BITMAP
FFF8
FFF8
FFF0
FFF0
C3E0
07C0
0F80
1E00
7C00
7800
7800
7800
3800
3800
3FF0
0FF0
07E0
01E0
ENDCHAR
STARTCHAR cid880
ENCODING 12391
SWIDTH 619 0
DWIDTH 15 0
BBX 13 23 1 -1
BITMAP
03B8
03B8
03B8
03B8
0000
FFF8
FFF8
FFF0
FFF0
C3E0
07C0
0F80
1E00
7C00
7800
7800
7800
3800
3800
3FF0
0FF0
07E0
01E0
ENDCHAR
STARTCHAR cid881
ENCODING 12392
SWIDTH 634 0
DWIDTH 15 0
BBX 13 19 1 -1
BITMAP
0800
1800
7C00
3C60
3DE0
1FF0
1FF0
1FC0
3F00
7E00
F800
F000
7000
7000
7070
7FF0
7FF0
3FF8
1F00
ENDCHAR
STARTCHAR cid882
ENCODING 12393
SWIDTH 634 0
DWIDTH 15 0
BBX 13 22 1 -1
BITMAP
01D8
01D8
01D8
09D8
1800
7C00
7C60
3CE0
1FF0
1FF0
1FC0
3F00
7E00
F800
F000
7000
7000
7070
7FF0
7FF0
3FF8
1F00
ENDCHAR
STARTCHAR cid883
ENCODING 12394
SWIDTH 755 0
DWIDTH 18 0
BBX 16 20 1 -1
BITMAP
0004
1E1C
1E1E
1E1E
FFCE
FFCF
FFCF
3C00
3800
383C
783C
783C
71FC
03FF
07FF
073F
0738
07F8
03F0
01C0
ENDCHAR
STARTCHAR cid884
ENCODING 12395
SWIDTH 706 0
DWIDTH 17 0
BBX 14 18 1 -1
BITMAP
F000
F000
F3FC
F3FC
73FC
73FC
701C
7000
7000
7000
7000
7000
7000
7300
73F8
03F8
03FC
00F0
ENDCHAR
STARTCHAR cid885
ENCODING 12396
SWIDTH 812 0
DWIDTH 19 0
BBX 18 19 1 -1
BITMAP
006000
007800
0C7800
3C7800
1FF800
1FFC00
1FFE00
3EFF00
7EE700
FEE700
FEC700
E7C700
F7DF00
77BFC0
7F7FC0
7F6780
7F7E00
3A3E00
000400
ENDCHAR
STARTCHAR cid886
ENCODING 12397
SWIDTH 775 0
DWIDTH 19 0
BBX 17 20 1 -1
BITMAP
380000
380000
3A0000
FF0000
FE0000
FE0000
BCF000
3FFC00
3FFE00
3FDE00
7F0F00
FC0700
F80700
787E00
39FE00
39FF80
398F80
399F00
39FC00
38F800
ENDCHAR
STARTCHAR cid887
ENCODING 12398
SWIDTH 717 0
DWIDTH 17 0
BBX 15 19 1 -2
BITMAP
0380
0380
0380
3FF8
7FFC
7FFE
7B8E
E38E
F38E
F38E
F39E
739E
739E
7F9E
1F3C
0C78
00F8
0070
0020
ENDCHAR
STARTCHAR cid888
ENCODING 12399
SWIDTH 748 0
DWIDTH 18 0
BBX 16 20 1 -2
BITMAP
003C
003C
F03C
F03C
F3FF
F3FF
F3FF
F01C
F01C
F01C
F01C
F0FE
F1FF
F3FF
F39F
FB9C
7F9C
31F8
00F0
0040
ENDCHAR
STARTCHAR cid889
ENCODING 12400
SWIDTH 748 0
DWIDTH 18 0
BBX 16 25 1 -2
BITMAP
0077
0077
0077
0077
0000
003C
003C
F03C
F03C
F3FF
F3FF
F3FF
F01C
F01C
F01C
F01C
F0FE
F1FF
F3FF
F39F
FB9C
7F9C
31F8
00F0
0040
ENDCHAR
STARTCHAR cid890
ENCODING 12401
SWIDTH 748 0
DWIDTH 18 0
BBX 16 27 1 -2
BITMAP
001C
003E
003E
0036
003E
001C
0000
003C
003C
F03C
F03C
F3FF
F3FF
F3FF
F01C
F01C
F01C
F01C
F0FE
F1FF
F3FF
F39F
FB9C
7F9C
31F8
00F0
0040
ENDCHAR
STARTCHAR cid891
ENCODING 12402
SWIDTH 717 0
DWIDTH 17 0
BBX 15 19 1 -1
BITMAP
7800
FE00
FF00
7F80
7F00
0E10
1E7C
1CFE
3CFC
38F0
7870
F070
F070
F070
7870
78F0
3FF0
1FE0
1FE0
ENDCHAR
STARTCHAR cid892
ENCODING 12403
SWIDTH 717 0
DWIDTH 17 0
BBX 15 22 1 -1
BITMAP
006E
006E
006E
786E
FE00
FF00
7F80
7F00
0E10
1E7C
1CFE
3CFC
38F0
7870
F070
F070
F070
7870
78F0
3FF0
1FE0
1FE0
ENDCHAR
STARTCHAR cid893
ENCODING 12404
SWIDTH 717 0
DWIDTH 17 0
BBX 15 22 1 -1
BITMAP
0018
003C
007E
7876
FE7E
FF3C
7F80
7F00
0E10
1E7C
1CFE
3CFC
38F0
7870
F070
F070
F070
7870
78F0
3FF0
1FE0
1FE0
ENDCHAR
STARTCHAR cid894
ENCODING 12405
SWIDTH 794 0
DWIDTH 19 0
BBX 16 19 1 -1
BITMAP
0F80
0FC0
0FE0
01E0
03E0
0F80
0F00
0F80
0FE0
07E0
41E7
79EF
78EF
70EF
F0EF
F0EF
F7EF
F7E6
0700
ENDCHAR
STARTCHAR cid895
ENCODING 12406
SWIDTH 794 0
DWIDTH 19 0
BBX 17 24 1 -1
BITMAP
003B80
003B80
003B80
003B80
003B00
0F8000
0FC000
0FE000
01E000
03E000
0F8000
0F0000
0F8000
0FE000
07E000
41E700
79EF00
78EF00
70EF00
F0EF00
F0EF00
F7EF00
F7E600
070000
ENDCHAR
STARTCHAR cid896
ENCODING 12407
SWIDTH 794 0
DWIDTH 19 0
BBX 17 22 1 -1
BITMAP
000F00
001F80
001B80
0F9F80
0FCF00
0FE000
01E000
03E000
0F8000
0F0000
0F8000
0FE000
07E000
41E700
79EF00
78EF00
70EF00
F0EF00
F0EF00
F7EF00
F7E600
070000
ENDCHAR
STARTCHAR cid897
ENCODING 12408
SWIDTH 662 0
DWIDTH 16 0
BBX 13 17 1 0
BITMAP
0E00
1F00
1F00
3F80
3F80
7B80
7BC0
F9C0
F1C0
11E0
01E0
00E0
00F0
00F0
0078
0078
0070
ENDCHAR
STARTCHAR cid898
ENCODING 12409
SWIDTH 662 0
DWIDTH 16 0
BBX 14 22 1 0
BITMAP
01DC
00DC
01DC
01DC
0000
0E00
1F00
1F00
3F80
3F80
7B80
7BC0
F9C0
F1C0
11E0
01E0
00E0
00F0
00F0
0078
0078
0070
ENDCHAR
STARTCHAR cid899
ENCODING 12410
SWIDTH 662 0
DWIDTH 16 0
BBX 14 22 1 0
BITMAP
0038
007C
00EC
00EC
007C
0E38
1F00
1F00
3F80
3F80
7B80
7BC0
F9C0
F1C0
11E0
01E0
00E0
00F0
00F0
0078
0078
0070
ENDCHAR
STARTCHAR cid900
ENCODING 12411
SWIDTH 784 0
DWIDTH 19 0
BBX 17 20 1 -2
BITMAP
03FF80
F3FF80
F3FC00
F03C00
F7FC00
F3FF00
F3FF00
703C00
701C00
701C00
701C00
71FE00
73FF00
73FF00
733F00
731C00
731C00
03F800
01F000
004000
ENDCHAR
STARTCHAR cid901
ENCODING 12412
SWIDTH 784 0
DWIDTH 19 0
BBX 17 25 1 -2
BITMAP
003B80
003B80
003B80
003B80
000000
03FF80
F3FF80
F3FC00
F03C00
F7FC00
F3FF00
F3FF00
703C00
701C00
701C00
701C00
71FE00
73FF00
73FF00
733F00
731C00
731C00
03F800
01F000
004000
ENDCHAR
STARTCHAR cid902
ENCODING 12413
SWIDTH 784 0
DWIDTH 19 0
BBX 17 27 1 -2
BITMAP
000600
000F00
001F80
001B80
001F80
000F00
000000
03FF80
F3FF80
F3FC00
F03C00
F7FC00
F3FF00
F3FF00
703C00
701C00
701C00
701C00
71FE00
73FF00
73FF00
733F00
731C00
731C00
03F800
01F000
004000
ENDCHAR
STARTCHAR cid903
ENCODING 12414
SWIDTH 638 0
DWIDTH 15 0
BBX 13 20 1 -2
BITMAP
0780
0780
FFF8
FFF8
FFF8
0380
0380
7FF0
7FF0
7FF0
0380
1380
3FF0
7FF0
73F0
7380
7380
7F80
3F00
1C00
ENDCHAR
STARTCHAR cid904
ENCODING 12415
SWIDTH 750 0
DWIDTH 18 0
BBX 16 19 1 -2
BITMAP
7F00
7F00
7F00
7F00
0700
073C
073C
073C
3F3C
7FFF
FFFF
E7FF
E73F
E738
FF38
7E38
3C78
0070
0010
ENDCHAR
STARTCHAR cid905
ENCODING 12416
SWIDTH 803 0
DWIDTH 19 0
BBX 17 19 1 -1
BITMAP
0F0000
0F0000
3FC600
3FC780
3FC780
3F0780
070F00
070F00
070700
070000
7F0000
FF0000
E70780
E70780
E70700
FF0700
FFFF00
33FF00
01FF00
ENDCHAR
STARTCHAR cid906
ENCODING 12417
SWIDTH 827 0
DWIDTH 20 0
BBX 17 19 1 -1
BITMAP
0C7800
1E7800
1E7800
1FF800
1FFC00
3FFE00
7FFF00
7E7780
FF7780
EFE380
F7E380
77E780
77E700
77C700
7F8700
3F0F00
1B9E00
03BE00
001C00
ENDCHAR
STARTCHAR cid907
ENCODING 12418
SWIDTH 634 0
DWIDTH 15 0
BBX 13 20 1 -1
BITMAP
1C00
1C00
1C00
FFF8
FFF8
FFF8
FC00
1C00
FFF0
FFF0
FFF0
FF80
1C00
1C40
1C78
1C70
1DF0
1FF0
0FE0
0780
ENDCHAR
STARTCHAR cid908
ENCODING 12419
SWIDTH 632 0
DWIDTH 15 0
BBX 13 16 1 -1
BITMAP
01C0
71C0
79C0
3FF0
FFF8
FFF8
FD98
3998
3878
1C78
1C70
1C00
1C00
1C00
1C00
0E00
ENDCHAR
STARTCHAR cid909
ENCODING 12420
SWIDTH 723 0
DWIDTH 17 0
BBX 16 19 1 -1
BITMAP
18E0
78E0
38E0
3FF8
FFFE
FFFF
FFEF
7CC7
1C07
1C1E
1C3E
1E3C
1E30
0E00
0E00
0E00
0E00
0E00
0F00
ENDCHAR
STARTCHAR cid910
ENCODING 12421
SWIDTH 632 0
DWIDTH 15 0
BBX 13 16 1 -2
BITMAP
0700
E700
EFC0
FFE0
FFF0
F738
7738
7730
6730
0730
1FF0
1FE0
1FC0
0600
0600
0600
ENDCHAR
STARTCHAR cid911
ENCODING 12422
SWIDTH 746 0
DWIDTH 18 0
BBX 16 20 1 -2
BITMAP
01C0
E1C0
E1C0
EFF8
EFFC
EFFE
FFCF
F9CF
79CF
73CE
73CE
03CE
039E
1FFC
1FFC
1FF8
0380
0380
0380
0380
ENDCHAR
STARTCHAR cid912
ENCODING 12423
SWIDTH 547 0
DWIDTH 13 0
BBX 11 16 1 -2
BITMAP
0E00
0E00
0FE0
0FE0
0FE0
0E00
0E00
3E00
7FE0
FFE0
EFE0
E640
E600
FE00
7C00
3800
ENDCHAR
STARTCHAR cid913
ENCODING 12424
SWIDTH 644 0
DWIDTH 15 0
BBX 13 20 1 -2
BITMAP
0780
0780
0780
07F8
07F8
07F8
0780
0780
0780
0780
3F80
7FF8
FFF8
EFF8
E3B0
E380
E780
7F00
3E00
1800
ENDCHAR
STARTCHAR cid914
ENCODING 12425
SWIDTH 644 0
DWIDTH 15 0
BBX 12 20 2 -1
BITMAP
0380
07C0
03E0
71F0
F0E0
F080
F000
E000
E000
EF80
FFE0
FFF0
7EF0
20F0
00F0
00E0
18E0
1FE0
1FE0
1F80
ENDCHAR
STARTCHAR cid915
ENCODING 12426
SWIDTH 625 0
DWIDTH 15 0
BBX 12 19 1 -2
BITMAP
00F0
00F0
F8F0
F8F0
F8F0
78F0
78F0
78F0
78F0
78F0
00F0
00E0
00E0
01E0
07E0
0FC0
0F80
0700
0200
ENDCHAR
STARTCHAR cid916
ENCODING 12427
SWIDTH 620 0
DWIDTH 15 0
BBX 13 19 1 -1
BITMAP
7FC0
7FC0
7FE0
7FC0
0F80
1E00
3C00
77C0
FFC0
FFE0
78F0
0078
3C38
7C78
EE70
E670
67F0
7FE0
3FE0
ENDCHAR
STARTCHAR cid917
ENCODING 12428
SWIDTH 715 0
DWIDTH 17 0
BBX 15 20 1 -1
BITMAP
3800
3800
3800
FE00
FE00
FE00
FC20
3CF8
3BFC
3FFC
7FFC
7F38
FC38
F838
7838
3838
387E
387E
387E
387E
ENDCHAR
STARTCHAR cid918
ENCODING 12429
SWIDTH 600 0
DWIDTH 14 0
BBX 13 20 1 -2
BITMAP
3FC0
3FE0
3FE0
3FE0
07C0
0F80
1E00
3FE0
7FF0
3FF0
3F78
1078
0078
0078
7078
78F0
FFF0
7FE0
1F80
0700
ENDCHAR
STARTCHAR cid919
ENCODING 12430
SWIDTH 595 0
DWIDTH 14 0
BBX 12 16 1 -1
BITMAP
7000
7000
7C00
FC00
F880
7BE0
7FE0
7FF0
7C70
7070
F070
3030
30F0
33F0
33C0
7100
ENDCHAR
STARTCHAR cid920
ENCODING 12431
SWIDTH 717 0
DWIDTH 17 0
BBX 15 19 1 -1
BITMAP
7800
7800
7E00
FE00
FE00
FC20
3DF8
3FFC
3FFC
7F9C
7C1E
781E
F80E
380E
383E
38FE
38FC
38F0
38C0
ENDCHAR
STARTCHAR cid923
ENCODING 12434
SWIDTH 653 0
DWIDTH 16 0
BBX 13 20 1 -1
BITMAP
0600
0780
1FE0
FFE0
FFE0
FF80
3C00
7870
3CF8
3FF8
1FE0
0FE0
3FE0
7DE0
71E0
F000
71F8
7FF8
3FF8
1FE0
ENDCHAR
STARTCHAR cid924
ENCODING 12435
SWIDTH 681 0
DWIDTH 16 0
BBX 14 19 1 -1
BITMAP
1C00
1E00
3C00
3C00
3C00
3C00
3800
3800
3800
79C0
7BC0
77C0
7FC0
7EC0
7CC0
7CCC
F8FC
F0FC
E0FC
ENDCHAR
STARTCHAR cid1177
ENCODING 12436
SWIDTH 666 0
DWIDTH 16 0
BBX 14 26 1 -1
BITMAP
01DC
01DC
01DC
01DC
01DC
3E00
3FE0
3FC0
3FC0
0000
1E00
3FE0
3FF0
7FF8
F838
7078
1078
0078
0070
00F0
00F0
07E0
0FE0
0FC0
0F80
0C00
ENDCHAR
STARTCHAR cid1178
ENCODING 12437
SWIDTH 551 0
DWIDTH 13 0
BBX 12 16 1 -1
BITMAP
0080
39C0
39E0
38F0
3870
FF80
FFE0
FFE0
B8E0
38E0
70E0
71C0
71C0
71C0
7380
0380
ENDCHAR
STARTCHAR cid1179
ENCODING 12438
SWIDTH 575 0
DWIDTH 14 0
BBX 12 16 1 -1
BITMAP
01E0
01E0
F0E0
F0E0
F7F0
F7F0
E7F0
60C0
60C0
60C0
61C0
61C0
71C0
71C0
3380
0100
ENDCHAR
STARTCHAR cid643
ENCODING 12443
SWIDTH 366 0
DWIDTH 9 0
BBX 7 5 2 19
BITMAP
EE
EE
EE
EE
EE
ENDCHAR
STARTCHAR cid644
ENCODING 12444
SWIDTH 311 0
DWIDTH 7 0
BBX 6 6 1 20
BITMAP
70
F8
CC
CC
F8
70
ENDCHAR
STARTCHAR cid653
ENCODING 12445
SWIDTH 410 0
DWIDTH 10 0
BBX 8 15 1 2
BITMAP
20
70
F0
F8
7C
3E
1F
0F
07
0F
1F
7C
F8
70
20
ENDCHAR
STARTCHAR cid654
ENCODING 12446
SWIDTH 543 0
DWIDTH 13 0
BBX 11 16 1 2
BITMAP
00E0
2760
7360
F3C0
F900
7C00
3E00
1F00
0F00
0700
0F00
1F00
7C00
F800
7000
2000
ENDCHAR
STARTCHAR cid925
ENCODING 12449
SWIDTH 603 0
DWIDTH 14 0
BBX 12 15 1 -1
BITMAP
FFC0
FFE0
FFF0
FFF0
00F0
1EE0
1EE0
1CC0
1C00
1C00
1C00
3C00
3800
7800
3000
ENDCHAR
STARTCHAR cid926
ENCODING 12450
SWIDTH 701 0
DWIDTH 17 0
BBX 15 19 1 -1
BITMAP
0038
FFF8
FFFC
FFFE
F81E
003C
0838
0E78
0E70
1E30
1E10
1E00
1E00
1E00
1C00
3C00
7800
7800
3000
ENDCHAR
STARTCHAR cid927
ENCODING 12451
SWIDTH 540 0
DWIDTH 13 0
BBX 11 15 1 -1
BITMAP
0180
03E0
0780
0F00
1F00
3F00
7F00
F700
3700
0700
0700
0700
0700
0F00
0F00
ENDCHAR
STARTCHAR cid928
ENCODING 12452
SWIDTH 630 0
DWIDTH 15 0
BBX 12 19 1 -1
BITMAP
0060
00F0
01F0
03E0
07C0
0F80
1F80
3F80
7F80
FB80
3B80
1380
0380
0380
0380
0380
0380
0380
0780
ENDCHAR
STARTCHAR cid929
ENCODING 12453
SWIDTH 571 0
DWIDTH 14 0
BBX 11 15 2 0
BITMAP
1C00
1C00
1C00
FF80
FFC0
FFE0
C0E0
C1C0
01C0
01C0
01C0
0180
1F80
1F00
1E00
ENDCHAR
STARTCHAR cid930
ENCODING 12454
SWIDTH 689 0
DWIDTH 17 0
BBX 14 19 1 0
BITMAP
0780
0780
0700
0700
FFF0
FFF8
FFFC
F03C
F03C
E03C
003C
0038
0078
0078
0078
01F0
0FF0
0FE0
07C0
ENDCHAR
STARTCHAR cid931
ENCODING 12455
SWIDTH 501 0
DWIDTH 12 0
BBX 10 14 1 -1
BITMAP
FFC0
FFC0
FFC0
7FC0
0E00
0E00
0E00
0E00
0E00
0E00
0E00
FFC0
FFC0
FFC0
ENDCHAR
STARTCHAR cid932
ENCODING 12456
SWIDTH 585 0
DWIDTH 14 0
BBX 12 18 1 -1
BITMAP
0010
FFF0
7FE0
7FE0
7FE0
0F00
0F00
0E00
0E00
0E00
0E00
0E00
0E00
FFF0
FFF0
FFF0
FFF0
FFF0
ENDCHAR
STARTCHAR cid933
ENCODING 12457
SWIDTH 555 0
DWIDTH 13 0
BBX 12 15 1 -1
BITMAP
0380
0380
FFF0
FFF0
FFE0
0780
0F80
0F80
0F80
1F80
1F80
3F80
FB80
7B80
3380
ENDCHAR
STARTCHAR cid934
ENCODING 12458
SWIDTH 694 0
DWIDTH 17 0
BBX 14 19 1 -1
BITMAP
01E0
01E0
01E0
FFFC
FFFC
FFFC
7FF0
03F0
03E0
07E0
07E0
07E0
0FE0
0EE0
0EE0
3EE0
7CE0
3CE0
30E0
ENDCHAR
STARTCHAR cid935
ENCODING 12459
SWIDTH 652 0
DWIDTH 16 0
BBX 13 19 1 -1
BITMAP
1E00
1E00
1E00
1E00
FFF0
FFF8
FFF8
FFF8
1C38
1C38
1C38
3C78
3C78
3C78
3C78
3878
3878
3878
0078
ENDCHAR
STARTCHAR cid936
ENCODING 12460
SWIDTH 678 0
DWIDTH 16 0
BBX 14 20 1 -1
BITMAP
00EC
1EEC
1EEC
1EEC
1E00
FFF0
FFF8
FFF8
FFF8
1C38
1C38
1C38
3C78
3C78
3C78
3C78
3878
3878
3878
0078
ENDCHAR
STARTCHAR cid937
ENCODING 12461
SWIDTH 651 0
DWIDTH 16 0
BBX 13 19 1 -1
BITMAP
1F00
1F00
1F70
FFF0
FFF8
FFE0
EF00
0F38
7FF8
7FF8
7FF0
7780
0780
0780
0780
0380
0380
0380
0380
ENDCHAR
STARTCHAR cid938
ENCODING 12462
SWIDTH 690 0
DWIDTH 17 0
BBX 15 22 1 -1
BITMAP
00EE
00EE
00EE
1FEE
1F00
1F70
FFF0
FFF8
FFE0
EF00
0F38
7FF8
7FF8
7FF0
7780
0780
0780
0780
0380
0380
0380
0380
ENDCHAR
STARTCHAR cid939
ENCODING 12463
SWIDTH 652 0
DWIDTH 16 0
BBX 13 19 1 -1
BITMAP
1C00
3FE0
3FF0
7FF8
7878
7878
F0F0
70F0
00F0
00E0
01E0
01E0
01C0
03C0
0780
1F80
1F80
1E00
0800
ENDCHAR
STARTCHAR cid940
ENCODING 12464
SWIDTH 652 0
DWIDTH 16 0
BBX 14 23 1 -1
BITMAP
01DC
00DC
01DC
01DC
1C00
3FE0
3FF0
7FF8
7878
7878
F0F0
70F0
00F0
00E0
01E0
01E0
01C0
03C0
0780
1F80
1F80
1E00
0800
ENDCHAR
STARTCHAR cid941
ENCODING 12465
SWIDTH 644 0
DWIDTH 15 0
BBX 14 20 1 -1
BITMAP
3C00
3800
3800
7FFC
7FFC
7FFC
7FFC
78E0
F0E0
F0E0
00E0
01E0
01E0
01E0
01E0
03E0
0FE0
1F80
0F00
0C00
ENDCHAR
STARTCHAR cid942
ENCODING 12466
SWIDTH 644 0
DWIDTH 15 0
BBX 14 22 1 -1
BITMAP
01D8
01D8
3DD8
39D8
3800
7FFC
7FFC
7FFC
7FFC
78E0
F0E0
F0E0
00E0
01E0
01E0
01E0
01E0
03E0
0FE0
1F80
0F00
0C00
ENDCHAR
STARTCHAR cid943
ENCODING 12467
SWIDTH 631 0
DWIDTH 15 0
BBX 12 16 2 0
BITMAP
FFC0
FFE0
FFF0
FFF0
00F0
00F0
00F0
00F0
00F0
00F0
00F0
00F0
FFF0
FFF0
FFE0
FFC0
ENDCHAR
STARTCHAR cid944
ENCODING 12468
SWIDTH 631 0
DWIDTH 15 0
BBX 12 21 2 0
BITMAP
0370
0370
0370
0370
0000
FFC0
FFE0
FFF0
FFF0
00F0
00F0
00F0
00F0
00F0
00F0
00F0
00F0
FFF0
FFF0
FFE0
FFC0
ENDCHAR
STARTCHAR cid945
ENCODING 12469
SWIDTH 728 0
DWIDTH 17 0
BBX 15 20 1 -1
BITMAP
1C38
3C38
3C38
3C78
FFFE
FFFE
FFFE
1C78
1C70
1C70
1C70
0070
0070
00F0
00F0
00E0
01E0
03C0
03C0
0180
ENDCHAR
STARTCHAR cid946
ENCODING 12470
SWIDTH 728 0
DWIDTH 17 0
BBX 16 25 1 -1
BITMAP
0077
0076
0076
0076
0000
1C38
3C38
3C38
3C78
FFFE
FFFE
FFFE
1C78
1C70
1C70
1C70
0070
0070
00F0
00F0
00E0
01E0
03C0
03C0
0180
ENDCHAR
STARTCHAR cid947
ENCODING 12471
SWIDTH 708 0
DWIDTH 17 0
BBX 15 19 1 -1
BITMAP
2000
781C
7E1E
7F3C
1F3C
663C
7838
FE78
FE78
1C78
00F0
00F0
00F0
00E0
1FE0
7FE0
7FC0
7E00
7000
ENDCHAR
STARTCHAR cid948
ENCODING 12472
SWIDTH 708 0
DWIDTH 17 0
BBX 15 24 1 -1
BITMAP
00EE
00EE
00EE
00EE
0000
2000
781C
7E1E
7F3C
1F3C
663C
7838
FE78
FE78
1C78
00F0
00F0
00F0
00E0
1FE0
7FE0
7FC0
7E00
7000
ENDCHAR
STARTCHAR cid949
ENCODING 12473
SWIDTH 723 0
DWIDTH 17 0
BBX 15 18 1 -1
BITMAP
FFC0
FFE0
FFE0
FFF0
00F0
01F0
01E0
01E0
03C0
03C0
03C0
07E0
0FF0
1FF8
3EFC
7C7E
783C
3018
ENDCHAR
STARTCHAR cid950
ENCODING 12474
SWIDTH 723 0
DWIDTH 17 0
BBX 15 24 1 -1
BITMAP
0076
0076
0076
007E
006E
0000
FFC0
FFE0
FFE0
FFF0
00F0
01F0
01E0
01E0
03C0
03C0
03C0
07E0
0FF0
1FF8
3EFC
7C7E
783C
3018
ENDCHAR
STARTCHAR cid951
ENCODING 12475
SWIDTH 665 0
DWIDTH 16 0
BBX 15 19 0 -1
BITMAP
1E00
1E00
1E00
1FF0
FFF8
FFFC
7FFC
7E38
1C78
1C38
1C00
1C00
1C00
3C00
3C1E
3FFE
1FFE
0FFE
0400
ENDCHAR
STARTCHAR cid952
ENCODING 12476
SWIDTH 665 0
DWIDTH 16 0
BBX 15 21 0 -1
BITMAP
006E
006E
1E6E
1E6E
1E00
1FF0
FFF8
FFFC
7FFC
7E38
1C78
1C38
1C18
1C00
1C00
3C00
3C1E
3FFE
1FFE
0FFE
0400
ENDCHAR
STARTCHAR cid953
ENCODING 12477
SWIDTH 678 0
DWIDTH 16 0
BBX 13 19 2 -2
BITMAP
F078
F078
F0F0
F0F0
78F0
78F0
78F0
70E0
01E0
01E0
01E0
01E0
01C0
07C0
0F80
3F00
3E00
1C00
0800
ENDCHAR
STARTCHAR cid954
ENCODING 12478
SWIDTH 678 0
DWIDTH 16 0
BBX 13 25 2 -2
BITMAP
01B8
01B8
01B8
01B8
01B8
0000
F078
F078
F0F0
F0F0
78F0
78F0
78F0
70E0
01E0
01E0
01E0
01E0
01C0
07C0
0F80
3F00
3E00
1C00
0800
ENDCHAR
STARTCHAR cid955
ENCODING 12479
SWIDTH 683 0
DWIDTH 16 0
BBX 14 19 1 -1
BITMAP
1E00
1FF0
1FF8
3FF8
3C3C
7838
7F78
7FF8
FFF0
F1F0
10F0
00E0
00E0
01C0
03C0
1FC0
0F80
0F00
0C00
ENDCHAR
STARTCHAR cid956
ENCODING 12480
SWIDTH 683 0
DWIDTH 16 0
BBX 14 24 1 -1
BITMAP
00EC
00EC
00EC
00FC
0000
1E00
1FF0
1FF8
3FF8
3C3C
7838
7F78
7FF8
FFF0
F1F0
10F0
00E0
00E0
01C0
03C0
1FC0
0F80
0F00
0C00
ENDCHAR
STARTCHAR cid957
ENCODING 12481
SWIDTH 614 0
DWIDTH 15 0
BBX 13 19 1 -1
BITMAP
07C0
7FE0
7FE0
3F80
0700
0700
FFF8
FFF8
FFF0
3FF0
0700
0700
0700
0780
0780
1F00
3E00
1E00
0C00
ENDCHAR
STARTCHAR cid958
ENCODING 12482
SWIDTH 614 0
DWIDTH 15 0
BBX 13 25 1 -1
BITMAP
03B8
03B8
03B8
03B8
0000
0040
03C0
3FC0
7FE0
3F80
0700
0700
FFF8
FFF8
FFF0
0770
0700
0700
0700
0700
0700
1F00
3E00
1C00
0C00
ENDCHAR
STARTCHAR cid959
ENCODING 12483
SWIDTH 625 0
DWIDTH 15 0
BBX 13 14 1 -1
BITMAP
0070
EF78
EF70
FF70
77F0
40E0
00E0
00E0
01C0
01C0
03C0
0780
0F00
0600
ENDCHAR
STARTCHAR cid960
ENCODING 12484
SWIDTH 748 0
DWIDTH 18 0
BBX 16 17 1 -1
BITMAP
001F
379E
F79E
F79E
77BC
77BC
733C
003C
0078
0078
0078
0070
01F0
03E0
07C0
0780
0300
ENDCHAR
STARTCHAR cid961
ENCODING 12485
SWIDTH 748 0
DWIDTH 18 0
BBX 16 23 1 -1
BITMAP
0077
0077
0077
0077
0076
0000
001F
379E
F79E
F79E
77BC
77BC
733C
003C
0078
0078
0078
0070
01F0
03E0
07C0
0780
0300
ENDCHAR
STARTCHAR cid962
ENCODING 12486
SWIDTH 696 0
DWIDTH 17 0
BBX 14 19 1 -1
BITMAP
3FE0
1FE0
1FE0
1FE0
0000
FFFC
FFFC
FFFC
FFFC
01E0
01E0
01E0
01E0
01E0
01E0
1FE0
7FC0
3F80
3C00
ENDCHAR
STARTCHAR cid963
ENCODING 12487
SWIDTH 696 0
DWIDTH 17 0
BBX 15 24 1 -1
BITMAP
00EE
00EE
00EE
00EC
0000
3FE0
1FE0
1FE0
1FE0
0000
FFFC
FFFC
FFFC
FFFC
01E0
01E0
01E0
01E0
01E0
01E0
1FE0
7FC0
3F80
3C00
ENDCHAR
STARTCHAR cid964
ENCODING 12488
SWIDTH 625 0
DWIDTH 15 0
BBX 12 18 1 -1
BITMAP
F800
7800
7800
7800
7800
7800
7F00
7FF0
7FF0
7BF0
7860
7800
7800
7800
7800
7800
7800
7800
ENDCHAR
STARTCHAR cid965
ENCODING 12489
SWIDTH 625 0
DWIDTH 15 0
BBX 13 21 1 -1
BITMAP
03B8
03B8
03B8
FBB8
78B8
7800
7800
7800
7800
7F00
7FF0
7FF0
7BF0
7860
7800
7800
7800
7800
7800
7800
7800
ENDCHAR
STARTCHAR cid966
ENCODING 12490
SWIDTH 670 0
DWIDTH 16 0
BBX 14 19 1 -1
BITMAP
03E0
03E0
03E0
C3E0
FFFC
FFFC
FFF8
7FC0
01C0
01C0
01C0
01C0
01C0
01C0
03C0
0FC0
3F80
1F00
0E00
ENDCHAR
STARTCHAR cid967
ENCODING 12491
SWIDTH 610 0
DWIDTH 15 0
BBX 12 15 1 1
BITMAP
3FC0
3FC0
3FC0
3FC0
0000
0000
0000
0000
0000
0000
0000
FFF0
FFF0
FFF0
FFF0
ENDCHAR
STARTCHAR cid968
ENCODING 12492
SWIDTH 653 0
DWIDTH 16 0
BBX 13 20 1 -2
BITMAP
FFC0
FFE0
FFF0
FFF8
0078
0078
0070
00F0
18F0
3CE0
3FE0
1FC0
0FC0
07E0
0FF0
1FF0
3E60
7C00
3800
1000
ENDCHAR
STARTCHAR cid969
ENCODING 12493
SWIDTH 657 0
DWIDTH 16 0
BBX 13 19 1 -1
BITMAP
0F00
0F00
0F00
FFF0
FFF0
FFF8
FEF0
01F0
01E0
03C0
0780
3FE0
FFF8
FF78
7F30
0700
0700
0700
0780
ENDCHAR
STARTCHAR cid970
ENCODING 12494
SWIDTH 653 0
DWIDTH 16 0
BBX 12 18 2 -1
BITMAP
01E0
01F0
01F0
01E0
01E0
03E0
03C0
03C0
03C0
07C0
0780
0780
0F80
1F00
3E00
7C00
F800
3000
ENDCHAR
STARTCHAR cid971
ENCODING 12495
SWIDTH 676 0
DWIDTH 16 0
BBX 14 19 1 -1
BITMAP
1C00
1C00
1C00
3C00
3CE0
3CF0
3CF0
3CF0
3870
3870
7878
7878
7878
7878
7878
7878
F87C
F83C
3030
ENDCHAR
STARTCHAR cid972
ENCODING 12496
SWIDTH 676 0
DWIDTH 16 0
BBX 14 22 1 -1
BITMAP
00DC
00DC
00DC
1CDC
1C00
1C00
3C00
3CE0
3CF0
3CF0
3CF0
3870
3870
7878
7878
7878
7878
7878
7878
F87C
F83C
3030
ENDCHAR
STARTCHAR cid973
ENCODING 12497
SWIDTH 676 0
DWIDTH 16 0
BBX 14 23 1 -1
BITMAP
0078
00FC
00DC
00DC
1C78
1C30
1C00
3C00
3CE0
3CF0
3CF0
3CF0
3870
3870
7878
7878
7878
7878
7878
7878
F87C
F83C
3030
ENDCHAR
STARTCHAR cid974
ENCODING 12498
SWIDTH 647 0
DWIDTH 16 0
BBX 13 19 1 -1
BITMAP
F800
F800
F800
F800
F800
F870
FFF0
FFF0
7FF0
7800
7800
7800
7800
7000
7000
7FF8
7FF8
3FF8
1FF8
ENDCHAR
STARTCHAR cid975
ENCODING 12499
SWIDTH 647 0
DWIDTH 16 0
BBX 13 19 1 -1
BITMAP
FBB8
FBB8
FBB8
FBB8
F800
F870
FFF0
FFF0
7FF0
7800
7800
7800
7800
7000
7000
7FF8
7FF8
3FF8
1FF8
ENDCHAR
STARTCHAR cid976
ENCODING 12500
SWIDTH 647 0
DWIDTH 16 0
BBX 13 21 1 -1
BITMAP
0070
00F8
F9D8
F9D8
F8F8
F870
F800
F870
FFF0
FFF0
7FF0
7800
7800
7800
7800
7000
7000
7FF8
7FF8
3FF8
1FF8
ENDCHAR
STARTCHAR cid977
ENCODING 12501
SWIDTH 661 0
DWIDTH 16 0
BBX 13 18 1 -1
BITMAP
FFC0
FFE0
FFF0
FFF8
C078
0078
0078
0070
00F0
00F0
00F0
00E0
03E0
07E0
1FC0
3F00
1E00
0800
ENDCHAR
STARTCHAR cid978
ENCODING 12502
SWIDTH 661 0
DWIDTH 16 0
BBX 14 23 1 -1
BITMAP
01DC
01DC
01DC
01D8
0000
FFC0
FFE0
FFF0
FFF8
C078
0078
0078
0070
00F0
00F0
00F0
00E0
03E0
07E0
1FC0
3F00
1E00
0800
ENDCHAR
STARTCHAR cid979
ENCODING 12503
SWIDTH 661 0
DWIDTH 16 0
BBX 14 24 1 -1
BITMAP
0078
00FC
00DC
00FC
0078
0000
FFC0
FFE0
FFF0
FFF8
C078
0078
0078
0070
00F0
00F0
00F0
00E0
03E0
07E0
1FC0
3F00
1E00
0800
ENDCHAR
STARTCHAR cid980
ENCODING 12504
SWIDTH 654 0
DWIDTH 16 0
BBX 12 17 2 0
BITMAP
1C00
3C00
3E00
7E00
7F00
7F00
F700
F780
E780
03C0
03C0
01C0
01E0
01E0
00F0
00F0
00E0
ENDCHAR
STARTCHAR cid981
ENCODING 12505
SWIDTH 654 0
DWIDTH 16 0
BBX 13 22 2 0
BITMAP
03B8
03B0
03B0
03B0
03B0
1C00
3C00
3E00
7E00
7F00
7F00
F700
F780
E780
03C0
03C0
01C0
01E0
01E0
00F0
00F0
00E0
ENDCHAR
STARTCHAR cid982
ENCODING 12506
SWIDTH 654 0
DWIDTH 16 0
BBX 13 22 2 0
BITMAP
0060
00F0
01F8
01B8
01F8
1CF0
3C00
3E00
7E00
7F00
7F00
F700
F780
E780
03C0
03C0
01C0
01E0
01E0
00F0
00F0
00E0
ENDCHAR
STARTCHAR cid983
ENCODING 12507
SWIDTH 700 0
DWIDTH 17 0
BBX 15 20 1 -1
BITMAP
0380
0380
0380
7FFC
7FFC
7FFC
7FFC
0380
3398
7BB8
7BBC
73BC
739C
739C
F39C
F39E
F39E
E39E
0380
0380
ENDCHAR
STARTCHAR cid984
ENCODING 12508
SWIDTH 700 0
DWIDTH 17 0
BBX 15 25 1 -1
BITMAP
00EE
00EE
00EE
00EE
002E
0380
0380
0380
7FFC
7FFC
7FFC
7FFC
0380
3398
7BB8
7BBC
73BC
739C
739C
F39C
F39E
F39E
E39E
0380
0380
ENDCHAR
STARTCHAR cid985
ENCODING 12509
SWIDTH 700 0
DWIDTH 17 0
BBX 15 25 1 -1
BITMAP
001C
003E
0076
0076
003E
039C
0380
0380
7FFC
7FFC
7FFC
7FFC
0380
3398
7BB8
7BBC
73BC
739C
739C
F39C
F39E
F39E
E39E
0380
0380
ENDCHAR
STARTCHAR cid986
ENCODING 12510
SWIDTH 657 0
DWIDTH 16 0
BBX 13 18 1 -1
BITMAP
FFE0
FFF0
FFF8
FFF8
F078
00F8
00F0
01E0
01E0
03C0
1380
3F80
7F00
3F00
1FC0
07C0
03C0
0180
ENDCHAR
STARTCHAR cid987
ENCODING 12511
SWIDTH 652 0
DWIDTH 16 0
BBX 13 18 1 -1
BITMAP
3000
7F00
7FF8
7FF8
0FF0
00F0
0000
1E00
3FE0
3FE0
0FE0
00E0
6000
7E00
7FE0
FFF8
0FF0
00F0
ENDCHAR
STARTCHAR cid988
ENCODING 12512
SWIDTH 675 0
DWIDTH 16 0
BBX 14 18 1 -1
BITMAP
0300
0780
0780
0F80
0F00
0F00
1E00
1E00
3C00
3C00
7C70
78F0
F878
F7F8
FFFC
7FFC
7E3C
3010
ENDCHAR
STARTCHAR cid989
ENCODING 12513
SWIDTH 653 0
DWIDTH 16 0
BBX 12 19 2 -1
BITMAP
01E0
01E0
01E0
03C0
03C0
33C0
7FC0
7F80
1F80
0FC0
0FE0
0FF0
0FE0
1E20
1E00
7E00
FC00
F800
7000
ENDCHAR
STARTCHAR cid990
ENCODING 12514
SWIDTH 636 0
DWIDTH 15 0
BBX 13 19 1 -1
BITMAP
7FF0
7FF0
7FF0
7E00
1E00
1E00
1FF8
FFF8
FFF8
FFF8
1E00
1E00
1E00
1E00
1E00
1E00
1FF0
0FF0
07F0
ENDCHAR
STARTCHAR cid991
ENCODING 12515
SWIDTH 576 0
DWIDTH 14 0
BBX 12 16 1 -1
BITMAP
3800
3800
3800
3FE0
FFE0
FFF0
FCF0
F9E0
3DC0
3CC0
3C00
1C00
1C00
1C00
1C00
1C00
ENDCHAR
STARTCHAR cid992
ENCODING 12516
SWIDTH 690 0
DWIDTH 17 0
BBX 14 19 1 -1
BITMAP
3C00
3C00
3C10
3FF8
FFFC
FFFC
FFBC
FC7C
1C78
1CF0
1C30
1E00
1E00
1E00
0E00
0E00
0E00
0E00
0E00
ENDCHAR
STARTCHAR cid993
ENCODING 12517
SWIDTH 584 0
DWIDTH 14 0
BBX 11 13 2 0
BITMAP
FC00
FE00
FF00
FF80
0780
0780
0700
0700
0700
8700
FFE0
FFE0
FFE0
ENDCHAR
STARTCHAR cid994
ENCODING 12518
SWIDTH 672 0
DWIDTH 16 0
BBX 14 16 1 0
BITMAP
3FC0
3FC0
3FE0
3FF0
01E0
01E0
01E0
01E0
01E0
01E0
01E0
01C0
FFFC
FFFC
FFFC
FFFC
ENDCHAR
STARTCHAR cid995
ENCODING 12519
SWIDTH 543 0
DWIDTH 13 0
BBX 11 14 1 -1
BITMAP
FF80
FFC0
FFE0
00E0
00E0
01E0
7FE0
7FE0
7FC0
01C0
01C0
7FC0
7FC0
7F00
ENDCHAR
STARTCHAR cid996
ENCODING 12520
SWIDTH 657 0
DWIDTH 16 0
BBX 13 18 2 -1
BITMAP
FF80
FFE0
FFF0
FFF8
0070
0070
0070
FFF0
FFF0
FFF0
FFF0
00F0
00F0
00F0
FFF0
FFE0
FFC0
0080
ENDCHAR
STARTCHAR cid997
ENCODING 12521
SWIDTH 657 0
DWIDTH 16 0
BBX 14 20 1 -1
BITMAP
7800
7FE0
7FE0
7FE0
0000
0000
FFE0
FFF0
FFF8
FFFC
0078
0078
0070
00F0
00E0
01E0
0FE0
1FC0
1F80
1C00
ENDCHAR
STARTCHAR cid998
ENCODING 12522
SWIDTH 631 0
DWIDTH 15 0
BBX 12 18 2 -1
BITMAP
F1F0
F1F0
F1F0
F1E0
F1E0
F1E0
F1E0
F1E0
F1E0
01E0
01E0
01E0
01E0
01E0
7FC0
7F80
7F80
7800
ENDCHAR
STARTCHAR cid999
ENCODING 12523
SWIDTH 793 0
DWIDTH 19 0
BBX 16 19 1 -1
BITMAP
00C0
00F0
00F0
00F0
1EF0
1EF0
1EF0
1EF0
1EF0
1EF0
1EF0
1EF0
1EF0
3EF6
3CFF
7CFF
F87F
303C
0010
ENDCHAR
STARTCHAR cid1000
ENCODING 12524
SWIDTH 628 0
DWIDTH 15 0
BBX 13 18 1 -1
BITMAP
F000
F000
F000
F000
F000
F000
F000
F000
F000
F020
7078
7078
70F0
73F0
7FE0
7FE0
3F80
1C00
ENDCHAR
STARTCHAR cid1001
ENCODING 12525
SWIDTH 670 0
DWIDTH 16 0
BBX 14 17 1 0
BITMAP
1F80
3FF0
7FF0
FFF8
F03C
F03C
F03C
F038
F038
F038
F078
7078
7078
73F8
7FF0
3FE0
1FE0
ENDCHAR
STARTCHAR cid1002
ENCODING 12526
SWIDTH 612 0
DWIDTH 15 0
BBX 13 16 1 -1
BITMAP
01C0
7FE0
FFF0
FFF8
F070
F070
F070
00F0
00F0
00F0
00E0
00E0
07E0
0FC0
0F00
0400
ENDCHAR
STARTCHAR cid1003
ENCODING 12527
SWIDTH 720 0
DWIDTH 17 0
BBX 15 18 1 -1
BITMAP
3FF8
7FFC
FFFE
F01E
F01E
F01E
F03C
003C
003C
003C
003C
0038
00F8
01F0
03E0
07C0
0380
0100
ENDCHAR
STARTCHAR cid1006
ENCODING 12530
SWIDTH 653 0
DWIDTH 16 0
BBX 13 19 1 -1
BITMAP
FFE0
FFF0
FFF8
FFF8
0078
0078
FFF8
7FF0
7FF0
70F0
00F0
00E0
00E0
01E0
03E0
0FC0
1F80
3F00
1C00
ENDCHAR
STARTCHAR cid1007
ENCODING 12531
SWIDTH 673 0
DWIDTH 16 0
BBX 14 17 1 0
BITMAP
003C
003C
703C
7F3C
7E3C
FE3C
0238
0078
0078
0078
0078
0078
0070
7FF0
7FF0
7FC0
7F80
ENDCHAR
STARTCHAR cid1008
ENCODING 12532
SWIDTH 689 0
DWIDTH 17 0
BBX 15 24 1 0
BITMAP
00EE
00EE
00EE
00EE
0000
0780
0780
0700
0700
FFF0
FFF8
FFFC
F03C
F03C
E03C
003C
0038
0078
0078
0078
01F0
0FF0
0FE0
07C0
ENDCHAR
STARTCHAR cid1009
ENCODING 12533
SWIDTH 539 0
DWIDTH 13 0
BBX 11 15 1 -1
BITMAP
3C00
3C00
3C00
3F80
FFC0
FFE0
FCE0
38E0
38E0
38E0
39E0
39E0
71E0
71C0
71C0
ENDCHAR
STARTCHAR cid1010
ENCODING 12534
SWIDTH 533 0
DWIDTH 13 0
BBX 11 17 1 -1
BITMAP
4000
7000
7000
7FE0
7FE0
7FE0
F380
F380
E380
0380
0380
0380
0780
0F80
3F00
1E00
1800
ENDCHAR
STARTCHAR cid638
ENCODING 12539
SWIDTH 303 0
DWIDTH 7 0
BBX 5 4 1 5
BITMAP
F8
F8
F8
F8
ENDCHAR
STARTCHAR cid660
ENCODING 12540
SWIDTH 484 0
DWIDTH 12 0
BBX 10 4 1 6
BITMAP
FFC0
FFC0
FFC0
FF80
ENDCHAR
STARTCHAR cid651
ENCODING 12541
SWIDTH 439 0
DWIDTH 11 0
BBX 9 12 1 3
BITMAP
E000
F000
7000
7800
3C00
3C00
1E00
1E00
0F00
0F00
0780
0400
ENDCHAR
STARTCHAR cid652
ENCODING 12542
SWIDTH 573 0
DWIDTH 14 0
BBX 12 12 1 3
BITMAP
E0E0
F760
73F0
7BB0
3D80
3C00
1E00
1E00
0F00
0F00
0780
0400
ENDCHAR
STARTCHAR cid656
ENCODING 20189
SWIDTH 657 0
DWIDTH 16 0
BBX 14 20 1 -1
BITMAP
07C0
1FE0
3FF0
7CF8
F87C
7038
2010
0000
7FF8
7FF8
7FF8
7FF8
0300
0300
0300
0300
0300
FFF8
FFF8
FFF8
ENDCHAR
STARTCHAR uniE000
ENCODING 57344
SWIDTH 984 0
DWIDTH 24 0
BBX 22 19 1 0
BITMAP
FFFFFC
FFFFFC
FFFFFC
FFFFFC
F0783C
F0783C
F0783C
FFFFFC
FFFFFC
FFFFFC
FFFFFC
F00000
F00000
F00000
F00000
F00000
FFF000
FFF000
FFF000
ENDCHAR
STARTCHAR uniE001
ENCODING 57345
SWIDTH 709 0
DWIDTH 17 0
BBX 15 19 1 0
BITMAP
FFFE
FFFE
FFFE
FFFE
F01E
F01E
F01E
F01E
F01E
F01E
F01E
F01E
F01E
F01E
F01E
F01E
FFFE
FFFE
FFFE
ENDCHAR
STARTCHAR uniE002
ENCODING 57346
SWIDTH 827 0
DWIDTH 20 0
BBX 18 19 1 0
BITMAP
FFFFC0
FFFFC0
FFFFC0
FFFFC0
F1E3C0
F1E3C0
F1E3C0
F1E3C0
F1E3C0
F1E3C0
F1E3C0
F1E3C0
F1E3C0
F1E3C0
F1E3C0
F1E3C0
F1E3C0
F1E3C0
F1E3C0
ENDCHAR
STARTCHAR uniE003
ENCODING 57347
SWIDTH 766 0
DWIDTH 18 0
BBX 16 19 1 0
BITMAP
0FFF
0FFF
0FFF
0FFF
0F00
0F00
0F00
FF00
FF00
FF00
FF00
0F00
0F00
0F00
0F00
0F00
0FFF
0FFF
0FFF
ENDCHAR
STARTCHAR uniE004
ENCODING 57348
SWIDTH 715 0
DWIDTH 17 0
BBX 15 19 1 0
BITMAP
FFFE
FFFE
FFFE
FFFE
F01E
F01E
F01E
F01E
F01E
F01E
F01E
F01E
F01E
F01E
F01E
F01E
F01E
F01E
F01E
ENDCHAR
STARTCHAR uniE005
ENCODING 57349
SWIDTH 836 0
DWIDTH 20 0
BBX 18 19 1 0
BITMAP
007800
007800
007800
007800
007800
007800
007800
007800
FFFFC0
FFFFC0
FFFFC0
FFFFC0
007800
007800
007800
FFF800
FFF800
FFF800
FFF800
ENDCHAR
STARTCHAR uniE006
ENCODING 57350
SWIDTH 492 0
DWIDTH 12 0
BBX 10 19 1 0
BITMAP
FFC0
FFC0
FFC0
FFC0
0000
0000
0000
0000
FFC0
FFC0
FFC0
FFC0
0000
0000
0000
FFC0
FFC0
FFC0
FFC0
ENDCHAR
STARTCHAR uniE007
ENCODING 57351
SWIDTH 852 0
DWIDTH 20 0
BBX 18 19 1 0
BITMAP
FFFFC0
FFFFC0
FFFFC0
FFFFC0
01E000
01E000
01E000
01E000
01E000
01E000
01E000
01E000
01E000
01E000
01E000
FFE000
FFFFC0
FFFFC0
FFFFC0
ENDCHAR
STARTCHAR uniE008
ENCODING 57352
SWIDTH 807 0
DWIDTH 19 0
BBX 16 19 2 0
BITMAP
FFE0
FFE0
FFE0
FFE0
01E0
01E0
01E0
01E0
01E0
01E0
F1E0
F1E0
F1E0
F1E0
01E0
F1FF
F1FF
F1FF
F1FF
ENDCHAR
STARTCHAR uniE009
ENCODING 57353
SWIDTH 836 0
DWIDTH 20 0
BBX 18 19 1 0
BITMAP
FFFFC0
FFFFC0
FFFFC0
FFFFC0
007800
007800
007800
007800
FFFFC0
FFFFC0
FFFFC0
FFFFC0
007800
007800
007800
FFF800
FFF800
FFF800
FFF800
ENDCHAR
STARTCHAR uniE00A
ENCODING 57354
SWIDTH 740 0
DWIDTH 18 0
BBX 16 19 1 0
BITMAP
FFFF
FFFF
FFFF
FFFF
0F0F
0F0F
0F0F
0F0F
0F0F
0F0F
0F0F
0F0F
0F0F
0F0F
0F0F
FFFF
FFFF
FFFF
FFFF
ENDCHAR
STARTCHAR uniE00B
ENCODING 57355
SWIDTH 643 0
DWIDTH 15 0
BBX 13 19 1 0
BITMAP
FFF8
FFF8
FFF8
FFF8
0780
0780
0780
0780
0780
0780
0780
0780
0780
0780
0780
0780
0780
0780
0780
ENDCHAR
STARTCHAR uniE00C
ENCODING 57356
SWIDTH 833 0
DWIDTH 20 0
BBX 18 19 1 0
BITMAP
0783C0
0783C0
0783C0
0783C0
0783C0
0783C0
FFFFC0
FFFFC0
FFFFC0
FFFFC0
078000
078000
078000
078000
078000
FF8000
FF8000
FF8000
FF8000
ENDCHAR
STARTCHAR uniE00D
ENCODING 57357
SWIDTH 735 0
DWIDTH 18 0
BBX 15 19 1 0
BITMAP
F01E
F01E
F01E
F01E
F01E
F01E
F01E
F01E
F01E
F01E
F01E
F01E
F01E
F01E
F01E
FFFE
FFFE
FFFE
FFFE
ENDCHAR
STARTCHAR uniE00E
ENCODING 57358
SWIDTH 888 0
DWIDTH 21 0
BBX 19 19 1 0
BITMAP
FFC000
FFC000
FFC000
FFC000
03C000
03C000
03C000
FFC000
FFFFE0
FFFFE0
FFFFE0
03FFE0
03C1E0
03C1E0
03C1E0
03C1E0
03FFE0
03FFE0
03FFE0
ENDCHAR
STARTCHAR uniE00F
ENCODING 57359
SWIDTH 280 0
DWIDTH 7 0
BBX 4 19 1 0
BITMAP
F0
F0
F0
F0
F0
F0
F0
F0
F0
F0
F0
F0
F0
F0
F0
F0
F0
F0
F0
ENDCHAR
STARTCHAR uniE010
ENCODING 57360
SWIDTH 906 0
DWIDTH 22 0
BBX 20 19 1 0
BITMAP
FFF800
FFF800
FFF800
FFF800
F07800
F07800
F07800
FFF800
FFFFF0
FFFFF0
FFFFF0
007FF0
007800
007800
007800
007FF0
007FF0
007FF0
007FF0
ENDCHAR
STARTCHAR uniE011
ENCODING 57361
SWIDTH 735 0
DWIDTH 18 0
BBX 15 19 1 0
BITMAP
F01E
F01E
F01E
F01E
F01E
F01E
F01E
F01E
FFFE
FFFE
FFFE
FFFE
F01E
F01E
F01E
FFFE
FFFE
FFFE
FFFE
ENDCHAR
STARTCHAR uniE012
ENCODING 57362
SWIDTH 889 0
DWIDTH 21 0
BBX 19 19 1 0
BITMAP
FFFFE0
FFFFE0
FFFFE0
FFFFE0
01E0E0
01E0E0
01E0E0
01E000
01E000
01E000
F1E000
F1E000
F1E000
F1E000
F1E000
FFE000
FFE000
FFE000
FFE000
ENDCHAR
STARTCHAR uniE013
ENCODING 57363
SWIDTH 666 0
DWIDTH 16 0
BBX 14 19 1 0
BITMAP
FFFC
FFFC
FFFC
FFFC
F03C
F03C
F03C
FFFC
FFFC
FFFC
FFFC
003C
003C
003C
003C
03FC
03FC
03FC
03FC
ENDCHAR
STARTCHAR uniE014
ENCODING 57364
SWIDTH 883 0
DWIDTH 21 0
BBX 19 19 1 0
BITMAP
01E000
01E000
01E000
01E000
01E000
01E000
FFFFE0
FFFFE0
FFFFE0
FFFFE0
01E1E0
01E1E0
01E1E0
01E1E0
01E1E0
01E1E0
01E1E0
01E1E0
01E1E0
ENDCHAR
STARTCHAR cid608
ENCODING 57442
SWIDTH 1408 0
DWIDTH 34 0
BBX 32 18 1 -1
BITMAP
10000008
3C00003C
3E01007C
3E0FF07C
0C1FF830
003FFC00
007C7C00
E0783C07
F8783E1F
F8783E1F
F8783E1F
007C3E00
007FBE00
043FBE20
3C1FBE3C
3E03007C
3C00003C
10000008
ENDCHAR
STARTCHAR cid609
ENCODING 57443
SWIDTH 929 0
DWIDTH 22 0
BBX 18 21 2 -1
BITMAP
07FC00
07FC00
07FC00
01E000
03F800
0FFE00
1C0F00
3C0F80
7C1F80
7E1FC0
7E1FC0
7E1F40
FE0040
FE0040
7E0040
7FFFC0
7FFF80
3FFF80
1FFF00
0FFE00
07F800
ENDCHAR
STARTCHAR cid610
ENCODING 57444
SWIDTH 920 0
DWIDTH 22 0
BBX 20 20 1 -1
BITMAP
07FE00
1FFF80
3FFFC0
7FFFE0
FFFFF0
FFFFF0
FFFFF0
FFFFF0
FFFFF0
FFFFF0
7DFBE0
736CE0
179EC0
059A00
079E00
402420
606060
7FFFE0
3BFDC0
039C00
ENDCHAR
STARTCHAR cid611
ENCODING 57445
SWIDTH 891 0
DWIDTH 21 0
BBX 20 22 1 -1
BITMAP
006000
00F000
01F800
03FC00
07FE00
0FFF00
1FFF80
3FFFC0
7C77C0
7FADE0
F462E0
FC62F0
F7FEF0
77FEE0
0B1D00
0C4200
0FFE00
0FFE00
0FFE00
0FFE00
0DF600
0DB600
ENDCHAR
STARTCHAR cid612
ENCODING 57446
SWIDTH 935 0
DWIDTH 22 0
BBX 21 21 1 -1
BITMAP
00F800
07FE00
0FFFA0
1FFFE0
2FFFF0
5B07F0
5403F0
AC03F0
A80000
A80000
B00000
0000A8
0000A8
FE0170
FC0150
FE02D0
7F8EA0
7FFF40
7FFF80
4FFF00
03FC00
ENDCHAR
STARTCHAR cid613
ENCODING 57447
SWIDTH 974 0
DWIDTH 23 0
BBX 22 21 1 -1
BITMAP
040000
060000
062000
032000
03E000
23F980
7FFF00
3FFF08
0FFFB8
7FFFF0
7FFFF0
1FFFF0
1F80F0
1F0070
FE2030
FE2230
6E2238
0E203C
070078
03C0E0
007F00
ENDCHAR
STARTCHAR uniE068
ENCODING 57448
SWIDTH 454 0
DWIDTH 11 0
BBX 9 7 1 13
BITMAP
7680
DF80
DE00
FE00
CE00
DE00
7600
ENDCHAR
STARTCHAR cid615
ENCODING 57449
SWIDTH 454 0
DWIDTH 11 0
BBX 9 7 1 13
BITMAP
F700
FD80
CD80
CF80
CC80
CD80
C700
ENDCHAR
STARTCHAR cid616
ENCODING 57450
SWIDTH 260 0
DWIDTH 6 0
BBX 5 7 1 13
BITMAP
F0
98
90
F0
80
90
60
ENDCHAR
STARTCHAR cid617
ENCODING 57451
SWIDTH 990 0
DWIDTH 24 0
BBX 21 22 1 -1
BITMAP
FFFFF8
FFFFF8
FFFFF8
FFFFF8
FF03F8
FC01F8
FC70F8
FCF8F8
FFF8F8
FFF0F8
FFE1F8
FFC3F8
FFCFF8
FF8FF8
FF8FF8
FFFFF8
FF8FF8
FF8FF8
FF8FF8
FFFFF8
FFFFF8
FFFFF8
ENDCHAR
STARTCHAR cid112
ENCODING 64257
SWIDTH 659 0
DWIDTH 16 0
BBX 15 20 0 -1
BITMAP
07DE
0FDE
1FDE
3F9E
3D80
3C00
3C1C
3C9C
FF9C
FF9C
FF9C
1C1C
1C1C
1C1C
1C1C
1C1C
1C1C
1C1C
1C1C
1C1C
ENDCHAR
STARTCHAR cid113
ENCODING 64258
SWIDTH 659 0
DWIDTH 16 0
BBX 14 20 1 -1
BITMAP
0FBC
1FBC
3FBC
7FBC
7BBC
383C
3838
39B8
FFB8
FFB8
FFB8
3838
3838
3838
3838
3838
3838
3838
3838
3838
ENDCHAR
STARTCHAR cid642
ENCODING 65281
SWIDTH 388 0
DWIDTH 9 0
BBX 5 20 2 -1
BITMAP
F8
F8
F8
F8
F8
F8
F8
F8
78
78
78
78
78
78
78
00
00
70
70
70
ENDCHAR
STARTCHAR cid716
ENCODING 65283
SWIDTH 735 0
DWIDTH 18 0
BBX 16 22 1 -2
BITMAP
03CF
03DE
039E
079E
079C
3FFE
3FFE
3FFE
3FFE
3FFE
1E70
1CF0
1CE0
FFF8
FFF8
FFF8
FFF8
7380
7380
7780
F700
E700
ENDCHAR
STARTCHAR cid712
ENCODING 65284
SWIDTH 597 0
DWIDTH 14 0
BBX 13 24 1 -3
BITMAP
0F00
0F00
1FC0
3FE0
7FF0
FFF8
E770
E770
E770
E770
F700
F700
FFC0
7FE0
1FF0
0770
0770
F770
F770
FFF0
3FE0
1FC0
0700
0700
ENDCHAR
STARTCHAR cid715
ENCODING 65285
SWIDTH 797 0
DWIDTH 19 0
BBX 17 22 1 -2
BITMAP
001C00
003E00
003C00
387C00
7C7800
FE7800
EEF800
EEF000
7DF000
39E000
01E000
03C000
03CE00
079F00
07BF80
07BB80
0F3B80
0F1F00
1E0E00
1E0000
3E0000
040000
ENDCHAR
STARTCHAR cid717
ENCODING 65286
SWIDTH 795 0
DWIDTH 19 0
BBX 16 22 2 -2
BITMAP
0700
0F80
3FC0
3FC0
3BC0
38C0
39E0
33C0
3F80
1F00
1E1E
3F1E
7F9C
77FC
E3F8
E3FF
E1FF
F3FF
FFFE
7F8E
7F00
0600
ENDCHAR
STARTCHAR cid674
ENCODING 65288
SWIDTH 460 0
DWIDTH 11 0
BBX 9 23 1 -2
BITMAP
0E00
1F00
1F80
3F00
7E00
7C00
F800
F800
F000
F000
F000
7000
7000
7000
7000
7000
7000
7800
7C00
3E00
1F00
0F00
0600
ENDCHAR
STARTCHAR cid675
ENCODING 65289
SWIDTH 463 0
DWIDTH 11 0
BBX 9 23 1 -2
BITMAP
1800
7800
FC00
7E00
3F00
1F80
0F80
0780
0780
0780
0780
0780
0780
0780
0700
0700
0700
0F00
1F00
3E00
7C00
7800
3000
ENDCHAR
STARTCHAR cid718
ENCODING 65290
SWIDTH 425 0
DWIDTH 10 0
BBX 8 7 1 13
BITMAP
18
7A
FF
3C
7F
7A
18
ENDCHAR
STARTCHAR cid692
ENCODING 65291
SWIDTH 661 0
DWIDTH 16 0
BBX 14 14 1 2
BITMAP
0080
0780
0780
0780
0780
F780
FFFC
FFFC
FFFC
0780
0780
0780
0780
0780
ENDCHAR
STARTCHAR cid636
ENCODING 65292
SWIDTH 285 0
DWIDTH 7 0
BBX 5 8 1 -5
BITMAP
F8
F8
F8
F8
F0
30
70
60
ENDCHAR
STARTCHAR cid693
ENCODING 65293
SWIDTH 517 0
DWIDTH 12 0
BBX 9 5 2 6
BITMAP
FF80
FF80
FF80
FF80
FC00
ENDCHAR
STARTCHAR cid637
ENCODING 65294
SWIDTH 303 0
DWIDTH 7 0
BBX 5 4 1 -1
BITMAP
F8
F8
F8
F8
ENDCHAR
STARTCHAR cid663
ENCODING 65295
SWIDTH 721 0
DWIDTH 17 0
BBX 12 21 2 -1
BITMAP
0070
00F0
00F0
01E0
01E0
01C0
03C0
0380
0780
0780
0700
0F00
0E00
1E00
1C00
1C00
3C00
3800
7800
7000
F000
ENDCHAR
STARTCHAR cid780
ENCODING 65296
SWIDTH 599 0
DWIDTH 14 0
BBX 12 20 1 -1
BITMAP
1F80
3FC0
3FE0
7FF0
F1F0
F0F0
F0F0
F0F0
F0F0
F0F0
F0F0
F0F0
F0F0
F0F0
F0F0
F0F0
F8F0
7FE0
3FC0
1F80
ENDCHAR
STARTCHAR cid781
ENCODING 65297
SWIDTH 598 0
DWIDTH 14 0
BBX 6 20 4 -1
BITMAP
FC
FC
FC
FC
3C
3C
3C
3C
3C
3C
3C
38
38
38
38
38
38
38
78
78
ENDCHAR
STARTCHAR cid782
ENCODING 65298
SWIDTH 598 0
DWIDTH 14 0
BBX 11 20 2 -1
BITMAP
3F00
7F80
7FC0
FFE0
E1E0
E1E0
F1E0
F1E0
F1E0
01C0
01C0
1FC0
3F80
FF00
E000
E000
E020
FFE0
FFE0
FFE0
ENDCHAR
STARTCHAR cid783
ENCODING 65299
SWIDTH 598 0
DWIDTH 14 0
BBX 12 20 1 -1
BITMAP
3F80
3FC0
3FE0
3FF0
00F0
00F0
00F0
00F0
0FC0
0FC0
0FE0
00F0
00F0
00F0
F0F0
F0F0
F070
FFF0
7FE0
1FC0
ENDCHAR
STARTCHAR cid784
ENCODING 65300
SWIDTH 598 0
DWIDTH 14 0
BBX 12 20 1 -1
BITMAP
01E0
01E0
79E0
79E0
79C0
79C0
71C0
71C0
71C0
F1C0
F1F0
FFF0
7FF0
1FF0
01C0
01C0
01C0
03C0
03C0
03C0
ENDCHAR
STARTCHAR cid785
ENCODING 65301
SWIDTH 598 0
DWIDTH 14 0
BBX 11 20 2 -1
BITMAP
FFC0
FFC0
FFC0
FFC0
F000
E000
E000
FE00
FF00
7F80
3FC0
01C0
01C0
01C0
F1C0
F1E0
E1E0
FFC0
7F80
3F00
ENDCHAR
STARTCHAR cid786
ENCODING 65302
SWIDTH 598 0
DWIDTH 14 0
BBX 11 20 2 -1
BITMAP
1F00
7F80
FFC0
FFE0
E0E0
E0E0
E000
E000
FF00
FF80
FFC0
E1E0
E1E0
E1E0
E0E0
E0E0
E0E0
FFE0
7FC0
3F00
ENDCHAR
STARTCHAR cid787
ENCODING 65303
SWIDTH 598 0
DWIDTH 14 0
BBX 10 20 2 -1
BITMAP
FFC0
FFC0
FFC0
FFC0
FBC0
03C0
0380
0380
0380
0780
0780
0780
0780
0700
0700
0700
0700
0F00
0F00
0F00
ENDCHAR
STARTCHAR cid788
ENCODING 65304
SWIDTH 598 0
DWIDTH 14 0
BBX 12 20 1 -1
BITMAP
1F80
3FC0
7FE0
F3F0
F0F0
70F0
70F0
70F0
70E0
3FC0
3F80
3FE0
71F0
70F0
70E0
70E0
70E0
7FE0
3FC0
1F80
ENDCHAR
STARTCHAR cid789
ENCODING 65305
SWIDTH 598 0
DWIDTH 14 0
BBX 11 20 2 -1
BITMAP
1F00
3F80
7FC0
FFE0
E1E0
E1E0
E1E0
E1E0
E1E0
E1E0
E1C0
7FC0
7FC0
3FC0
01C0
01C0
01C0
0FC0
0FC0
0FC0
ENDCHAR
STARTCHAR cid639
ENCODING 65306
SWIDTH 396 0
DWIDTH 10 0
BBX 5 15 2 -1
BITMAP
F8
F8
F8
F8
F8
00
00
00
00
00
F8
F8
F8
F8
F8
ENDCHAR
STARTCHAR cid640
ENCODING 65307
SWIDTH 376 0
DWIDTH 9 0
BBX 5 18 2 -5
BITMAP
F8
F8
F8
F8
F0
00
00
00
00
00
F8
F8
F8
F8
78
30
30
30
ENDCHAR
STARTCHAR cid699
ENCODING 65308
SWIDTH 410 0
DWIDTH 10 0
BBX 8 12 1 2
BITMAP
06
0F
3E
7C
F8
E0
F0
78
3E
1F
0E
04
ENDCHAR
STARTCHAR cid697
ENCODING 65309
SWIDTH 688 0
DWIDTH 17 0
BBX 12 11 2 3
BITMAP
FFF0
FFF0
FFF0
FFF0
FFF0
0000
FFF0
FFF0
FFF0
FFF0
FFF0
ENDCHAR
STARTCHAR cid700
ENCODING 65310
SWIDTH 410 0
DWIDTH 10 0
BBX 8 12 1 2
BITMAP
20
78
7C
3E
1F
07
0F
1E
3C
F8
70
20
ENDCHAR
STARTCHAR cid641
ENCODING 65311
SWIDTH 704 0
DWIDTH 17 0
BBX 15 20 1 -1
BITMAP
1FF0
3FF8
7FFC
FFFE
F03E
F03E
F03C
F03C
003C
007C
01F8
03F0
0780
0780
0780
0000
0000
0780
0780
0780
ENDCHAR
STARTCHAR cid719
ENCODING 65312
SWIDTH 858 0
DWIDTH 21 0
BBX 18 21 1 -3
BITMAP
01F800
1FFC00
1FFE00
3F0F00
3BE780
73F3C0
F3F9C0
E01DC0
E1FDC0
E3FDC0
E7F9C0
6739C0
7739C0
7739C0
773BC0
773F80
73FE00
3DE000
1E0000
0FF000
03F000
ENDCHAR
STARTCHAR cid790
ENCODING 65313
SWIDTH 515 0
DWIDTH 12 0
BBX 11 20 1 -1
BITMAP
1E00
3F00
7F80
FFC0
E1E0
E1E0
E1E0
F1E0
F1C0
F1C0
F1C0
F1C0
FFC0
FFC0
7FC0
71C0
71C0
71C0
71C0
71C0
ENDCHAR
STARTCHAR cid791
ENCODING 65314
SWIDTH 509 0
DWIDTH 12 0
BBX 11 20 1 -1
BITMAP
3E00
FF80
FFC0
FFE0
E1C0
E1C0
F1C0
F1C0
F1C0
F1C0
F3C0
FF00
FF80
FFC0
71C0
71C0
71C0
7FC0
7F80
7E00
ENDCHAR
STARTCHAR cid792
ENCODING 65315
SWIDTH 510 0
DWIDTH 12 0
BBX 10 20 1 -1
BITMAP
3E00
3F00
7F80
FFC0
E1C0
E1C0
E1C0
E1C0
E1C0
E1C0
E000
E000
E000
E000
E3C0
E3C0
E3C0
7FC0
3F00
1E00
ENDCHAR
STARTCHAR cid793
ENCODING 65316
SWIDTH 517 0
DWIDTH 12 0
BBX 11 20 1 -1
BITMAP
3F00
FF80
FFC0
FFE0
E1E0
E1E0
E1E0
E1E0
E1C0
E1C0
E1C0
E1C0
E1C0
E1C0
E1C0
E1C0
FFC0
FF80
FF00
FE00
ENDCHAR
STARTCHAR cid794
ENCODING 65317
SWIDTH 468 0
DWIDTH 11 0
BBX 10 20 1 -1
BITMAP
FFC0
FFC0
FFC0
FF80
E000
E000
E000
E000
E000
E000
FF00
FF00
FF00
7800
7000
7000
7F80
7F80
7F80
7F80
ENDCHAR
STARTCHAR cid795
ENCODING 65318
SWIDTH 457 0
DWIDTH 11 0
BBX 9 20 1 -1
BITMAP
7F80
FF80
FF80
FF80
FF80
F000
F000
F000
F000
F000
F000
FF00
FF00
FF00
F000
F000
7000
7000
7000
7000
ENDCHAR
STARTCHAR cid796
ENCODING 65319
SWIDTH 548 0
DWIDTH 13 0
BBX 11 20 1 -1
BITMAP
1F80
1FC0
3FC0
7FE0
F1E0
F1E0
F1E0
F000
F000
F000
F000
F000
77E0
77E0
77E0
71E0
71E0
7FC0
3F80
1F00
ENDCHAR
STARTCHAR cid797
ENCODING 65320
SWIDTH 518 0
DWIDTH 12 0
BBX 11 20 1 -1
BITMAP
F1E0
F1E0
F1E0
F1E0
F1E0
F1E0
F1E0
F1E0
F1E0
F1E0
F1C0
FFC0
FFC0
FFC0
F1C0
F1C0
F1C0
F1C0
F1C0
F1C0
ENDCHAR
STARTCHAR cid798
ENCODING 65321
SWIDTH 237 0
DWIDTH 6 0
BBX 4 20 1 -1
BITMAP
F0
F0
F0
F0
F0
F0
F0
F0
F0
F0
F0
F0
F0
F0
F0
F0
F0
F0
F0
F0
ENDCHAR
STARTCHAR cid799
ENCODING 65322
SWIDTH 524 0
DWIDTH 13 0
BBX 11 20 1 -1
BITMAP
01E0
01E0
01E0
01E0
01E0
01E0
01C0
01C0
01C0
01C0
01C0
01C0
01C0
F1C0
F1C0
F1C0
F1C0
7F80
3F80
1F00
ENDCHAR
STARTCHAR cid800
ENCODING 65323
SWIDTH 498 0
DWIDTH 12 0
BBX 10 20 1 -1
BITMAP
F000
F380
F3C0
F780
F700
FF00
FE00
FE00
FC00
F800
F800
F000
F800
FC00
FC00
FE00
FFC0
77C0
77C0
73C0
ENDCHAR
STARTCHAR cid801
ENCODING 65324
SWIDTH 383 0
DWIDTH 9 0
BBX 8 20 1 -1
BITMAP
F0
F0
F0
F0
F0
F0
F0
F0
F0
F0
F0
F0
F0
F0
F0
E0
FE
FE
FE
FF
ENDCHAR
STARTCHAR cid802
ENCODING 65325
SWIDTH 662 0
DWIDTH 16 0
BBX 14 20 1 -1
BITMAP
F03C
F03C
F07C
F87C
F87C
F87C
F87C
FCFC
FCFC
FCFC
FCFC
EDFC
EFFC
EFBC
E7BC
E7BC
E7BC
E03C
E03C
E03C
ENDCHAR
STARTCHAR cid803
ENCODING 65326
SWIDTH 563 0
DWIDTH 14 0
BBX 12 20 1 -1
BITMAP
E0F0
F0F0
F0F0
F0F0
F8F0
F8F0
FCF0
FCF0
FCE0
FEE0
FEE0
FEE0
F7E0
F7E0
F3E0
F3E0
F3E0
F1E0
F1E0
F0E0
ENDCHAR
STARTCHAR cid804
ENCODING 65327
SWIDTH 532 0
DWIDTH 13 0
BBX 11 20 1 -1
BITMAP
1F00
3F80
7F80
FFC0
E3E0
E1E0
E1E0
E1E0
E1E0
F1C0
F1C0
F1C0
F1C0
F1C0
F1C0
F1C0
F1C0
7F80
3F80
1F00
ENDCHAR
STARTCHAR cid805
ENCODING 65328
SWIDTH 534 0
DWIDTH 13 0
BBX 11 20 1 -1
BITMAP
FF00
FF80
FFC0
FFE0
F1E0
F1E0
F1E0
F1E0
F1E0
F1E0
F1C0
F1C0
F1C0
FFC0
FF00
F200
F000
F000
F000
F000
ENDCHAR
STARTCHAR cid806
ENCODING 65329
SWIDTH 559 0
DWIDTH 13 0
BBX 12 25 1 -6
BITMAP
1F80
3F80
7FC0
7FE0
E3F0
E0F0
F0F0
F0E0
F0E0
F0E0
F0E0
F0E0
F0E0
F0E0
F0E0
F0E0
F0E0
7FC0
3F80
1F00
0700
0700
03C0
03C0
03C0
ENDCHAR
STARTCHAR cid807
ENCODING 65330
SWIDTH 508 0
DWIDTH 12 0
BBX 11 20 1 -1
BITMAP
FF00
FF80
FFC0
FFE0
E1E0
E1C0
E1C0
E1C0
E1C0
E1C0
E1C0
E3C0
FFC0
FF80
FE00
EE00
F700
F7C0
F3C0
F3C0
ENDCHAR
STARTCHAR cid808
ENCODING 65331
SWIDTH 544 0
DWIDTH 13 0
BBX 11 20 1 -1
BITMAP
1F00
3F80
7FC0
FFE0
F0E0
F0E0
F0E0
F0E0
F000
F000
FF00
7F80
1FC0
00E0
00E0
F0E0
F0E0
FFC0
3F80
1F00
ENDCHAR
STARTCHAR cid809
ENCODING 65332
SWIDTH 524 0
DWIDTH 13 0
BBX 11 20 1 -1
BITMAP
FFE0
FFE0
FFE0
FFE0
FFE0
1E00
1E00
1E00
1E00
1E00
1E00
1E00
1E00
1E00
1E00
1E00
1E00
1E00
1E00
1E00
ENDCHAR
STARTCHAR cid810
ENCODING 65333
SWIDTH 530 0
DWIDTH 13 0
BBX 11 20 1 -1
BITMAP
F000
F0E0
F0E0
F0E0
F0E0
F0E0
F0E0
F0E0
F0E0
F1E0
F1E0
F1E0
F1E0
F1E0
F1E0
F1E0
FFC0
7F80
3F80
1F00
ENDCHAR
STARTCHAR cid811
ENCODING 65334
SWIDTH 546 0
DWIDTH 13 0
BBX 11 20 1 -1
BITMAP
30C0
F0E0
F0E0
F0E0
F1E0
F9E0
79C0
79C0
79C0
79C0
7BC0
3B80
3B80
3F80
3F80
3F80
1F00
1F00
1F00
1F00
ENDCHAR
STARTCHAR cid812
ENCODING 65335
SWIDTH 724 0
DWIDTH 17 0
BBX 16 20 1 -1
BITMAP
F38F
F38E
F38E
F78E
F7CE
F7CE
F7CE
F7CE
77DE
7EFE
7EFE
7EFE
7EFC
7E7C
7E7C
7C7C
7C7C
7C7C
7C3C
3C3C
ENDCHAR
STARTCHAR cid813
ENCODING 65336
SWIDTH 485 0
DWIDTH 12 0
BBX 10 20 1 -1
BITMAP
7380
F3C0
7380
7F80
7F00
3F00
3F00
3E00
1E00
1E00
1E00
1E00
3E00
3F00
3F00
7700
7780
7380
F380
E3C0
ENDCHAR
STARTCHAR cid814
ENCODING 65337
SWIDTH 482 0
DWIDTH 12 0
BBX 10 20 1 -1
BITMAP
E3C0
E3C0
E3C0
E3C0
E3C0
E3C0
E3C0
E380
E380
E380
E380
E380
7F00
3E00
1C00
1C00
1C00
1C00
1C00
1C00
ENDCHAR
STARTCHAR cid815
ENCODING 65338
SWIDTH 502 0
DWIDTH 12 0
BBX 10 20 1 -1
BITMAP
FF00
FF80
FF80
FFC0
FFC0
03C0
0380
0780
0F00
0E00
1E00
1C00
3800
7800
7000
E000
FFC0
FFC0
FFC0
7FC0
ENDCHAR
STARTCHAR cid678
ENCODING 65339
SWIDTH 487 0
DWIDTH 12 0
BBX 9 24 1 -2
BITMAP
C000
FF80
FF80
FF80
7F80
7800
7800
7800
7800
7800
7800
7800
7800
7800
7800
7800
7800
7800
7800
7800
7F00
7F00
7F80
7F80
ENDCHAR
STARTCHAR cid664
ENCODING 65340
SWIDTH 634 0
DWIDTH 15 0
BBX 13 23 1 -2
BITMAP
1000
F000
F800
7800
7C00
3C00
3C00
1E00
1E00
0F00
0F00
0F80
0780
0780
03C0
03C0
01E0
01E0
00F0
00F0
00F0
0078
0060
ENDCHAR
STARTCHAR cid679
ENCODING 65341
SWIDTH 485 0
DWIDTH 12 0
BBX 8 23 2 -2
BITMAP
FF
FF
FF
FF
C7
07
07
07
07
07
07
07
0F
0F
0F
0F
0F
0F
0F
FF
FF
FF
FF
ENDCHAR
STARTCHAR cid648
ENCODING 65342
SWIDTH 502 0
DWIDTH 12 0
BBX 10 6 1 16
BITMAP
0E00
1F00
3F80
F3C0
E1C0
4080
ENDCHAR
STARTCHAR cid650
ENCODING 65343
SWIDTH 755 0
DWIDTH 18 0
BBX 16 4 1 -1
BITMAP
8000
FFFF
7FFE
7FFE
ENDCHAR
STARTCHAR cid646
ENCODING 65344
SWIDTH 345 0
DWIDTH 8 0
BBX 7 8 1 14
BITMAP
10
F8
F8
7C
7C
3E
3C
10
ENDCHAR
STARTCHAR cid816
ENCODING 65345
SWIDTH 511 0
DWIDTH 12 0
BBX 11 15 1 -1
BITMAP
7E00
7F00
7F80
01C0
01C0
7F80
FF80
E380
E380
E380
E380
E380
EFE0
7FC0
3FC0
ENDCHAR
STARTCHAR cid817
ENCODING 65346
SWIDTH 491 0
DWIDTH 12 0
BBX 10 20 1 -1
BITMAP
E000
E000
E000
E000
E000
E000
FF00
FF80
FFC0
E1C0
E1C0
E1C0
E1C0
E1C0
E1C0
E180
E180
FF80
FF00
FF00
ENDCHAR
STARTCHAR cid818
ENCODING 65347
SWIDTH 478 0
DWIDTH 11 0
BBX 10 15 1 -1
BITMAP
1C00
3F00
7F80
FFC0
E1C0
E1C0
E000
E000
E000
E000
E3C0
E3C0
FF80
7F80
3F00
ENDCHAR
STARTCHAR cid819
ENCODING 65348
SWIDTH 480 0
DWIDTH 12 0
BBX 10 20 1 -1
BITMAP
01C0
01C0
01C0
01C0
01C0
01C0
3FC0
7FC0
FFC0
E1C0
E1C0
E1C0
E180
E180
E180
E180
6180
7F80
7F80
3F80
ENDCHAR
STARTCHAR cid820
ENCODING 65349
SWIDTH 482 0
DWIDTH 12 0
BBX 10 14 1 -1
BITMAP
3F00
7F80
FFC0
E1C0
E1C0
FFC0
FFC0
F000
E000
E3C0
E380
FF80
7F00
3E00
ENDCHAR
STARTCHAR cid821
ENCODING 65350
SWIDTH 433 0
DWIDTH 10 0
BBX 9 20 1 -1
BITMAP
0F80
1F80
3F80
7F80
7B80
3800
3800
3980
FF80
FF80
FF80
3800
3800
3800
3800
3800
3800
3800
3800
3800
ENDCHAR
STARTCHAR cid822
ENCODING 65351
SWIDTH 475 0
DWIDTH 11 0
BBX 10 20 1 -6
BITMAP
0600
3F00
7F80
FFC0
E3C0
E3C0
E3C0
E3C0
E380
E380
E380
E380
7F80
3F80
1F80
0380
E380
FF80
7F00
3E00
ENDCHAR
STARTCHAR cid823
ENCODING 65352
SWIDTH 498 0
DWIDTH 12 0
BBX 10 20 1 -1
BITMAP
F000
F000
F000
F000
F000
EE00
EF00
FF80
FFC0
E1C0
E1C0
E1C0
E1C0
E1C0
E1C0
E1C0
E1C0
E1C0
E1C0
E3C0
ENDCHAR
STARTCHAR cid824
ENCODING 65353
SWIDTH 236 0
DWIDTH 6 0
BBX 4 20 1 -1
BITMAP
F0
F0
F0
F0
00
00
F0
F0
F0
F0
F0
F0
E0
E0
E0
E0
E0
E0
E0
E0
ENDCHAR
STARTCHAR cid825
ENCODING 65354
SWIDTH 292 0
DWIDTH 7 0
BBX 6 25 0 -6
BITMAP
3C
3C
3C
3C
00
00
3C
3C
3C
3C
3C
3C
3C
3C
3C
3C
3C
3C
3C
3C
3C
F8
F8
F0
E0
ENDCHAR
STARTCHAR cid826
ENCODING 65355
SWIDTH 482 0
DWIDTH 12 0
BBX 10 20 1 -1
BITMAP
F000
F000
F000
F000
F000
F000
F780
F700
FF00
FE00
FC00
F800
F800
FC00
EC00
EE00
EE00
E7C0
E7C0
E3C0
ENDCHAR
STARTCHAR cid827
ENCODING 65356
SWIDTH 233 0
DWIDTH 6 0
BBX 4 20 1 -1
BITMAP
F0
F0
F0
F0
F0
F0
F0
F0
F0
F0
E0
E0
E0
E0
E0
E0
E0
E0
E0
E0
ENDCHAR
STARTCHAR cid828
ENCODING 65357
SWIDTH 687 0
DWIDTH 16 0
BBX 15 15 1 -1
BITMAP
1000
3CF0
7FF8
FFFC
E39E
E39E
E39E
E39E
E39C
E39C
E39C
E39C
E39C
E39C
E01C
ENDCHAR
STARTCHAR cid829
ENCODING 65358
SWIDTH 475 0
DWIDTH 11 0
BBX 10 14 1 -1
BITMAP
1F00
3F00
7F80
E1C0
E1C0
E1C0
E1C0
E180
E180
E180
E180
E180
E180
E180
ENDCHAR
STARTCHAR cid830
ENCODING 65359
SWIDTH 459 0
DWIDTH 11 0
BBX 10 15 1 -1
BITMAP
1E00
3F00
7F80
FFC0
E3C0
E380
E380
E380
E380
E380
E380
E380
FB80
7F00
3E00
ENDCHAR
STARTCHAR cid831
ENCODING 65360
SWIDTH 464 0
DWIDTH 11 0
BBX 10 20 1 -6
BITMAP
FE00
FF00
FF80
EFC0
E3C0
E380
E380
E380
E380
E380
E380
E380
FF00
FE00
FC00
E000
E000
E000
E000
E000
ENDCHAR
STARTCHAR cid832
ENCODING 65361
SWIDTH 458 0
DWIDTH 11 0
BBX 9 20 1 -6
BITMAP
3F80
7F80
7F80
FF80
E380
E380
E380
E380
E380
E380
E380
E380
7F80
3F80
1F80
0380
0380
0380
0380
0380
ENDCHAR
STARTCHAR cid833
ENCODING 65362
SWIDTH 395 0
DWIDTH 9 0
BBX 8 14 1 -1
BITMAP
F7
FF
FF
F8
F0
F0
F0
F0
E0
E0
E0
E0
E0
E0
ENDCHAR
STARTCHAR cid834
ENCODING 65363
SWIDTH 491 0
DWIDTH 12 0
BBX 10 15 1 -1
BITMAP
1E00
3F00
7F80
FFC0
F3C0
F040
F000
FF00
3F80
1FC0
03C0
F380
FF80
7F00
1E00
ENDCHAR
STARTCHAR cid835
ENCODING 65364
SWIDTH 428 0
DWIDTH 10 0
BBX 9 18 1 -1
BITMAP
4000
3800
3800
3800
FF00
FF00
FF00
3800
3800
3800
3800
3800
3800
3800
3800
3F80
1F80
0F80
ENDCHAR
STARTCHAR cid836
ENCODING 65365
SWIDTH 520 0
DWIDTH 12 0
BBX 11 14 1 -1
BITMAP
F1C0
F1C0
F1C0
F1C0
F1C0
F1C0
F1C0
F1C0
F1C0
F1C0
F7C0
7FE0
3FE0
1E60
ENDCHAR
STARTCHAR cid837
ENCODING 65366
SWIDTH 512 0
DWIDTH 12 0
BBX 10 14 1 -1
BITMAP
F1C0
F1C0
71C0
71C0
73C0
7B80
3B80
3B80
3B80
3B00
1F00
1F00
1F00
1E00
ENDCHAR
STARTCHAR cid838
ENCODING 65367
SWIDTH 602 0
DWIDTH 14 0
BBX 13 14 1 -1
BITMAP
E738
E738
E738
EF38
EF70
EFF0
EFF0
FFF0
FDF0
7DF0
79F0
79F0
78F0
78F0
ENDCHAR
STARTCHAR cid839
ENCODING 65368
SWIDTH 462 0
DWIDTH 11 0
BBX 9 15 1 -1
BITMAP
2200
F380
F780
7700
7700
3E00
3E00
1C00
1C00
3E00
3E00
7F00
7700
E780
E380
ENDCHAR
STARTCHAR cid840
ENCODING 65369
SWIDTH 481 0
DWIDTH 12 0
BBX 10 20 1 -6
BITMAP
0300
F3C0
F3C0
F3C0
F3C0
F3C0
F380
F380
F380
F380
F380
F380
FF80
3F80
1F80
0700
0700
0700
0700
0700
ENDCHAR
STARTCHAR cid841
ENCODING 65370
SWIDTH 496 0
DWIDTH 12 0
BBX 10 14 1 -1
BITMAP
FF80
FFC0
FFC0
03C0
0780
0F00
1E00
1C00
3800
7000
E000
FFC0
FFC0
7F80
ENDCHAR
STARTCHAR cid680
ENCODING 65371
SWIDTH 517 0
DWIDTH 12 0
BBX 8 23 2 -2
BITMAP
0C
1E
3F
7C
F8
78
78
78
38
3C
78
F0
78
3C
38
38
38
78
78
7C
3F
1E
04
ENDCHAR
STARTCHAR cid667
ENCODING 65372
SWIDTH 279 0
DWIDTH 7 0
BBX 4 21 1 -1
BITMAP
F0
F0
F0
F0
F0
F0
F0
F0
F0
F0
F0
F0
F0
F0
F0
F0
F0
F0
F0
F0
F0
ENDCHAR
STARTCHAR cid681
ENCODING 65373
SWIDTH 524 0
DWIDTH 13 0
BBX 7 23 4 -2
BITMAP
60
F0
F8
7C
3E
1E
3C
3C
3C
38
3C
1E
3C
38
38
3C
3C
1C
1C
7E
F8
F0
60
ENDCHAR
STARTCHAR uniFF5E
ENCODING 65374
SWIDTH 822 0
DWIDTH 20 0
BBX 17 9 1 5
BITMAP
020000
0F0100
1F8300
7FCF80
FFFF80
7DFF80
38FE00
207800
002000
ENDCHAR
STARTCHAR cid223
ENCODING 65380
SWIDTH 335 0
DWIDTH 8 0
BBX 6 6 1 -2
BITMAP
60
F0
F8
7C
38
10
ENDCHAR
STARTCHAR cid227
ENCODING 65381
SWIDTH 303 0
DWIDTH 7 0
BBX 5 4 1 5
BITMAP
F8
F8
F8
F8
ENDCHAR
STARTCHAR cid495
ENCODING 65382
SWIDTH 435 0
DWIDTH 10 0
BBX 9 20 1 -2
BITMAP
FE00
FF00
FF00
FF80
0380
0380
FF00
FF00
FF00
0700
0700
0700
0600
0600
0E00
1E00
7C00
7800
7000
2000
ENDCHAR
STARTCHAR cid496
ENCODING 65383
SWIDTH 402 0
DWIDTH 10 0
BBX 8 15 1 -1
BITMAP
FE
FE
FF
FF
07
36
36
36
30
70
70
70
60
E0
40
ENDCHAR
STARTCHAR cid497
ENCODING 65384
SWIDTH 360 0
DWIDTH 9 0
BBX 7 15 1 -1
BITMAP
04
0E
1C
38
38
78
F8
F8
58
18
18
18
18
18
18
ENDCHAR
STARTCHAR cid498
ENCODING 65385
SWIDTH 381 0
DWIDTH 9 0
BBX 8 16 1 -1
BITMAP
30
30
30
FE
FE
FF
C7
C7
06
06
06
06
06
7E
7C
78
ENDCHAR
STARTCHAR cid499
ENCODING 65386
SWIDTH 334 0
DWIDTH 8 0
BBX 6 14 1 -1
BITMAP
FC
FC
FC
FC
30
30
30
30
30
30
30
FC
FC
FC
ENDCHAR
STARTCHAR cid500
ENCODING 65387
SWIDTH 370 0
DWIDTH 9 0
BBX 8 16 1 -1
BITMAP
08
0C
0C
FF
FF
FF
1C
1C
1C
3C
3C
3C
6C
EC
EC
4C
ENDCHAR
STARTCHAR cid501
ENCODING 65388
SWIDTH 384 0
DWIDTH 9 0
BBX 9 16 0 -1
BITMAP
3000
7000
3000
3F00
FF00
FF80
7B80
7300
3700
3200
3000
3000
3800
3800
1800
1800
ENDCHAR
STARTCHAR cid502
ENCODING 65389
SWIDTH 372 0
DWIDTH 9 0
BBX 7 14 1 0
BITMAP
F0
F8
F8
FC
1C
1C
1C
1C
1C
1C
98
FE
FE
FE
ENDCHAR
STARTCHAR cid503
ENCODING 65390
SWIDTH 362 0
DWIDTH 9 0
BBX 7 14 1 -1
BITMAP
FC
FC
FE
06
06
06
FE
FE
FE
06
0E
FC
FC
F8
ENDCHAR
STARTCHAR cid504
ENCODING 65391
SWIDTH 416 0
DWIDTH 10 0
BBX 8 14 1 -1
BITMAP
FB
FB
DB
DF
D7
06
06
06
0E
0E
1C
3C
38
10
ENDCHAR
STARTCHAR cid505
ENCODING 65392
SWIDTH 467 0
DWIDTH 11 0
BBX 9 4 1 6
BITMAP
FF80
7F80
7F00
7F00
ENDCHAR
STARTCHAR cid506
ENCODING 65393
SWIDTH 467 0
DWIDTH 11 0
BBX 11 19 0 -1
BITMAP
0F80
FFC0
FFC0
FFE0
78E0
00C0
19C0
1DC0
1D80
1D80
1C80
1800
1800
1800
1800
3800
3000
7000
2000
ENDCHAR
STARTCHAR cid507
ENCODING 65394
SWIDTH 420 0
DWIDTH 10 0
BBX 8 19 1 -1
BITMAP
02
07
0F
0E
1E
3C
3C
7C
FC
EC
6C
4C
0C
1C
1C
1C
1C
1C
1C
ENDCHAR
STARTCHAR cid508
ENCODING 65395
SWIDTH 459 0
DWIDTH 11 0
BBX 10 20 1 -1
BITMAP
1C00
1C00
1C00
1800
FF00
FF80
FFC0
C1C0
C180
C380
0380
0380
0380
0380
0300
0300
3F00
3F00
3E00
3C00
ENDCHAR
STARTCHAR cid509
ENCODING 65396
SWIDTH 390 0
DWIDTH 9 0
BBX 8 18 1 -1
BITMAP
FF
FF
FF
FF
FE
18
18
18
18
18
18
18
18
FF
FF
FF
FF
FF
ENDCHAR
STARTCHAR cid510
ENCODING 65397
SWIDTH 463 0
DWIDTH 11 0
BBX 10 20 1 -2
BITMAP
0700
0700
0700
FFC0
FFC0
FF80
FF00
0F00
0F00
0F00
1F00
1F00
1F00
3F00
3F00
7700
F700
7600
6600
0600
ENDCHAR
STARTCHAR cid511
ENCODING 65398
SWIDTH 435 0
DWIDTH 10 0
BBX 9 19 1 -1
BITMAP
3800
3000
3000
3000
3000
FF00
FF80
FF80
F380
7380
7380
7380
7380
7380
6380
6300
6300
6300
6300
ENDCHAR
STARTCHAR cid512
ENCODING 65399
SWIDTH 434 0
DWIDTH 10 0
BBX 10 19 0 -1
BITMAP
1C00
1C00
1F80
FF80
7F80
7F00
7C00
0DC0
7FC0
7FC0
7F80
7C00
0E00
0E00
0E00
0E00
0E00
0600
0600
ENDCHAR
STARTCHAR cid513
ENCODING 65400
SWIDTH 435 0
DWIDTH 10 0
BBX 9 19 1 -1
BITMAP
7000
7E00
7F00
7F80
E380
E300
E300
C300
0700
0700
0600
0600
0E00
0C00
1C00
7C00
3C00
3800
2000
ENDCHAR
STARTCHAR cid514
ENCODING 65401
SWIDTH 429 0
DWIDTH 10 0
BBX 9 20 1 -1
BITMAP
7000
6000
6000
FF80
FF80
FF80
EF80
E700
E600
E600
0600
0600
0600
0600
0E00
0E00
1E00
7C00
3800
1000
ENDCHAR
STARTCHAR cid515
ENCODING 65402
SWIDTH 421 0
DWIDTH 10 0
BBX 9 17 1 0
BITMAP
1E00
FE00
FF00
FF00
FF80
0380
0380
0380
0380
0300
0300
0300
0300
FF00
FF00
FF00
FE00
ENDCHAR
STARTCHAR cid516
ENCODING 65403
SWIDTH 485 0
DWIDTH 12 0
BBX 11 20 0 -1
BITMAP
39C0
39C0
39C0
39C0
FFE0
7FE0
7FE0
3980
3980
3980
3980
0180
0380
0380
0380
0300
0700
0700
0600
0600
ENDCHAR
STARTCHAR cid517
ENCODING 65404
SWIDTH 472 0
DWIDTH 11 0
BBX 10 18 1 -1
BITMAP
61C0
F1C0
F9C0
3980
DB80
E380
FB80
F300
3300
0700
0700
0700
0600
7E00
FE00
FE00
F800
E000
ENDCHAR
STARTCHAR cid518
ENCODING 65405
SWIDTH 482 0
DWIDTH 12 0
BBX 10 18 1 -1
BITMAP
FC00
FE00
FF00
FF00
0700
0700
0600
0E00
0E00
0C00
1C00
1E00
3F00
7F00
7380
E3C0
E180
4180
ENDCHAR
STARTCHAR cid519
ENCODING 65406
SWIDTH 430 0
DWIDTH 10 0
BBX 10 19 0 -1
BITMAP
3800
3800
3800
3800
FF80
7F80
7FC0
79C0
3B80
3B80
3880
3800
3800
3000
3000
3040
3FC0
1FC0
1FC0
ENDCHAR
STARTCHAR cid520
ENCODING 65407
SWIDTH 452 0
DWIDTH 11 0
BBX 9 19 1 -2
BITMAP
E380
E380
E380
E380
6380
7380
7300
7700
0700
0700
0700
0700
0700
0E00
1E00
3C00
3800
1000
1000
ENDCHAR
STARTCHAR cid521
ENCODING 65408
SWIDTH 455 0
DWIDTH 11 0
BBX 9 20 1 -2
BITMAP
3F00
3F00
3F80
7F80
7380
7380
7F80
FF00
FF00
E700
0700
0600
0600
0E00
0E00
1E00
3C00
3800
1800
1000
ENDCHAR
STARTCHAR cid522
ENCODING 65409
SWIDTH 409 0
DWIDTH 10 0
BBX 8 20 1 -1
BITMAP
02
1E
FE
FE
7C
18
18
FF
FF
FF
FF
18
18
1C
1C
1C
38
78
30
30
ENDCHAR
STARTCHAR cid523
ENCODING 65410
SWIDTH 499 0
DWIDTH 12 0
BBX 11 17 1 -1
BITMAP
DDE0
DDC0
FDC0
FDC0
FDC0
C180
0380
0380
0380
0380
0300
0700
0700
0E00
1E00
1C00
0800
ENDCHAR
STARTCHAR cid524
ENCODING 65411
SWIDTH 464 0
DWIDTH 11 0
BBX 9 19 1 -1
BITMAP
7E00
7E00
7E00
7E00
0000
FF80
FF80
FF80
FF80
0E00
0E00
0E00
0E00
0E00
0E00
7C00
FC00
7800
7000
ENDCHAR
STARTCHAR cid525
ENCODING 65412
SWIDTH 416 0
DWIDTH 10 0
BBX 8 18 1 -1
BITMAP
E0
E0
E0
E0
E0
E0
F8
FF
FF
EF
E2
E0
E0
E0
E0
E0
E0
E0
ENDCHAR
STARTCHAR cid526
ENCODING 65413
SWIDTH 446 0
DWIDTH 11 0
BBX 9 19 1 -1
BITMAP
0E00
0E00
0E00
FE00
FF80
FF80
FF80
FE00
0E00
0E00
0E00
0E00
0E00
0E00
0E00
3E00
7C00
3800
3000
ENDCHAR
STARTCHAR cid527
ENCODING 65414
SWIDTH 407 0
DWIDTH 10 0
BBX 8 15 1 1
BITMAP
7E
7E
7E
7E
00
00
00
00
00
00
00
FF
FF
FF
FF
ENDCHAR
STARTCHAR cid528
ENCODING 65415
SWIDTH 435 0
DWIDTH 10 0
BBX 9 19 1 -1
BITMAP
FE00
FF00
FF00
FF80
0380
0380
0300
2700
6700
7600
7E00
3E00
1C00
1E00
3F00
3F00
7600
F000
6000
ENDCHAR
STARTCHAR cid529
ENCODING 65416
SWIDTH 438 0
DWIDTH 11 0
BBX 9 19 1 -1
BITMAP
3800
1800
1800
FF00
FF00
FF00
FF00
0700
0E00
0E00
1C00
7E00
FF80
FB80
F900
1800
1800
1800
1C00
ENDCHAR
STARTCHAR cid530
ENCODING 65417
SWIDTH 435 0
DWIDTH 10 0
BBX 9 19 1 -2
BITMAP
0700
0780
0700
0700
0700
0700
0F00
0E00
0E00
0E00
0E00
0E00
1C00
3C00
7800
7800
F000
6000
2000
ENDCHAR
STARTCHAR cid531
ENCODING 65418
SWIDTH 451 0
DWIDTH 11 0
BBX 9 19 1 -1
BITMAP
7000
7000
7600
7700
7700
6700
6300
6300
6300
6300
6300
E380
E380
E380
E380
E380
E380
E380
6300
ENDCHAR
STARTCHAR cid532
ENCODING 65419
SWIDTH 431 0
DWIDTH 10 0
BBX 9 19 1 -1
BITMAP
E000
E000
E000
E000
FF00
FF00
FF00
FF00
E000
E000
E000
E000
E000
E000
E000
FF80
FF80
7F80
3F80
ENDCHAR
STARTCHAR cid533
ENCODING 65420
SWIDTH 440 0
DWIDTH 11 0
BBX 9 18 1 -1
BITMAP
FE00
FE00
FF00
FF80
8380
0380
0380
0300
0700
0700
0700
0700
0E00
1E00
3C00
7800
7000
2000
ENDCHAR
STARTCHAR cid534
ENCODING 65421
SWIDTH 436 0
DWIDTH 10 0
BBX 9 18 1 -1
BITMAP
3000
3800
3800
7800
7C00
7C00
FC00
EC00
CE00
0E00
0600
0700
0700
0700
0300
0380
0300
0200
ENDCHAR
STARTCHAR cid535
ENCODING 65422
SWIDTH 467 0
DWIDTH 11 0
BBX 11 20 0 -1
BITMAP
0E00
0E00
0E00
7FC0
7FC0
7FC0
7FC0
0600
3680
37C0
37C0
76C0
76C0
6EC0
6EC0
6EC0
6EE0
EEE0
0E00
0E00
ENDCHAR
STARTCHAR cid536
ENCODING 65423
SWIDTH 438 0
DWIDTH 11 0
BBX 9 18 1 -1
BITMAP
FE00
FF00
FF00
FF80
E380
0700
0700
0600
0E00
0E00
7C00
7C00
7800
7800
3C00
1E00
1C00
0800
ENDCHAR
STARTCHAR cid537
ENCODING 65424
SWIDTH 435 0
DWIDTH 10 0
BBX 9 19 1 -2
BITMAP
6000
7C00
FF80
FF00
3F00
0700
4100
7800
7E00
7E00
3E00
0600
C000
F800
FE00
FF00
3F00
0700
0100
ENDCHAR
STARTCHAR cid538
ENCODING 65425
SWIDTH 450 0
DWIDTH 11 0
BBX 9 19 1 -1
BITMAP
1800
1C00
1C00
3800
3800
3800
3000
7000
7000
7000
6000
E200
E700
E700
DF00
FF80
FF80
F380
4100
ENDCHAR
STARTCHAR cid539
ENCODING 65426
SWIDTH 435 0
DWIDTH 10 0
BBX 9 19 1 -1
BITMAP
0700
0700
0700
0700
0700
6E00
7E00
7E00
3E00
1E00
1F00
1F80
1B00
3900
3800
7800
F000
F000
6000
ENDCHAR
STARTCHAR cid540
ENCODING 65427
SWIDTH 424 0
DWIDTH 10 0
BBX 8 19 1 -1
BITMAP
7F
7F
7F
7F
38
38
FF
FF
FF
FF
30
30
30
30
30
30
3F
1F
1F
ENDCHAR
STARTCHAR cid541
ENCODING 65428
SWIDTH 460 0
DWIDTH 11 0
BBX 10 20 0 -2
BITMAP
3000
3000
3080
3FC0
FFC0
7FC0
7FC0
79C0
3B80
3B80
1980
1800
1800
1800
1800
1800
1800
1C00
1C00
1000
ENDCHAR
STARTCHAR cid542
ENCODING 65429
SWIDTH 448 0
DWIDTH 11 0
BBX 9 17 1 0
BITMAP
FC00
FC00
FE00
FF00
0700
0700
0600
0600
0600
0E00
0E00
0E00
0E00
FF80
FF80
FF80
FF80
ENDCHAR
STARTCHAR cid543
ENCODING 65430
SWIDTH 438 0
DWIDTH 11 0
BBX 9 18 1 -1
BITMAP
FF00
FF00
FF80
0380
0380
0380
0380
C380
FF80
FF80
FF80
0380
0380
0300
0300
FF00
FE00
FE00
ENDCHAR
STARTCHAR cid544
ENCODING 65431
SWIDTH 438 0
DWIDTH 11 0
BBX 9 20 1 -1
BITMAP
FC00
7E00
7E00
7E00
0000
0000
FE00
FF00
FF80
C380
0380
0300
0300
0700
0700
0700
0E00
3E00
3C00
1800
ENDCHAR
STARTCHAR cid545
ENCODING 65432
SWIDTH 421 0
DWIDTH 10 0
BBX 8 18 1 -1
BITMAP
E7
E7
E7
E7
E7
E7
E7
E7
E7
07
07
07
07
07
7E
7E
7C
70
ENDCHAR
STARTCHAR cid546
ENCODING 65433
SWIDTH 528 0
DWIDTH 13 0
BBX 11 19 1 -1
BITMAP
3700
7700
7700
7700
3700
3700
3700
3700
3700
3700
3700
3700
3740
7740
77E0
E7E0
E7C0
6380
0100
ENDCHAR
STARTCHAR cid547
ENCODING 65434
SWIDTH 418 0
DWIDTH 10 0
BBX 8 18 1 -1
BITMAP
E0
E0
E0
E0
E0
E0
E0
E0
E0
E0
E0
E2
E7
E7
FF
FE
7C
30
ENDCHAR
STARTCHAR cid548
ENCODING 65435
SWIDTH 447 0
DWIDTH 11 0
BBX 10 18 0 -1
BITMAP
3F80
3F80
7FC0
E7C0
61C0
61C0
61C0
61C0
61C0
61C0
61C0
71C0
71C0
71C0
7F80
3F80
3F00
1000
ENDCHAR
STARTCHAR cid549
ENCODING 65436
SWIDTH 491 0
DWIDTH 12 0
BBX 10 18 1 -1
BITMAP
7F80
FFC0
FFC0
E1C0
E1C0
E1C0
E1C0
01C0
01C0
01C0
0180
0180
0380
0780
0F00
1E00
0C00
0800
ENDCHAR
STARTCHAR cid550
ENCODING 65437
SWIDTH 449 0
DWIDTH 11 0
BBX 9 17 1 0
BITMAP
0180
0180
E180
FB80
FB80
FB80
0380
0380
0380
0300
0300
0300
0300
FF00
FF00
FE00
FC00
ENDCHAR
STARTCHAR cid551
ENCODING 65438
SWIDTH 282 0
DWIDTH 7 0
BBX 5 5 1 19
BITMAP
D8
D8
F8
F8
F8
ENDCHAR
STARTCHAR cid552
ENCODING 65439
SWIDTH 211 0
DWIDTH 5 0
BBX 4 5 0 20
BITMAP
20
70
D0
50
70
ENDCHAR
STARTCHAR cid713
ENCODING 65504
SWIDTH 533 0
DWIDTH 13 0
BBX 11 17 1 -2
BITMAP
0E00
1E00
3F80
7FC0
FFE0
EEE0
EEE0
EE00
EE00
EE00
EE00
EEE0
EEE0
FFE0
7FC0
3F80
0E00
ENDCHAR
STARTCHAR cid714
ENCODING 65505
SWIDTH 537 0
DWIDTH 13 0
BBX 11 21 1 -1
BITMAP
0F80
1F80
3F80
7F80
7F80
3800
3800
3800
3800
FE00
FE00
FE00
F800
3800
3800
3800
3800
3800
FFE0
FFE0
FFE0
ENDCHAR
STARTCHAR cid751
ENCODING 65506
SWIDTH 586 0
DWIDTH 14 0
BBX 12 7 1 2
BITMAP
FFF0
FFF0
FFF0
FFF0
00F0
00F0
00F0
ENDCHAR
STARTCHAR cid649
ENCODING 65507
SWIDTH 755 0
DWIDTH 18 0
BBX 15 3 2 15
BITMAP
FFFE
FFFE
FFFE
ENDCHAR
STARTCHAR cid711
ENCODING 65509
SWIDTH 525 0
DWIDTH 13 0
BBX 10 20 1 -1
BITMAP
11C0
F1C0
F1C0
F3C0
F3C0
F3C0
73C0
73C0
7F80
3F80
1E00
0C00
3F80
3F80
1C00
1C00
3F80
3F80
1E00
1E00
ENDCHAR
STARTCHAR cid553
ENCODING 65512
SWIDTH 202 0
DWIDTH 5 0
BBX 3 20 1 -1
BITMAP
E0
E0
E0
E0
E0
E0
E0
E0
E0
E0
E0
E0
E0
E0
C0
C0
C0
C0
C0
C0
ENDCHAR
STARTCHAR .notdef
ENCODING -1
SWIDTH 296 0
DWIDTH 7 0
BBX 1 1 0 0
BITMAP
00
ENDCHAR
STARTCHAR _127
ENCODING -1
SWIDTH 296 0
DWIDTH 7 0
BBX 1 1 0 0
BITMAP
00
ENDCHAR
STARTCHAR _129
ENCODING -1
SWIDTH 296 0
DWIDTH 7 0
BBX 1 1 0 0
BITMAP
00
ENDCHAR
STARTCHAR cid143
ENCODING -1
SWIDTH 296 0
DWIDTH 7 0
BBX 1 1 0 0
BITMAP
00
ENDCHAR
STARTCHAR _141
ENCODING -1
SWIDTH 296 0
DWIDTH 7 0
BBX 1 1 0 0
BITMAP
00
ENDCHAR
STARTCHAR _142
ENCODING -1
SWIDTH 296 0
DWIDTH 7 0
BBX 1 1 0 0
BITMAP
00
ENDCHAR
STARTCHAR _143
ENCODING -1
SWIDTH 296 0
DWIDTH 7 0
BBX 1 1 0 0
BITMAP
00
ENDCHAR
STARTCHAR _144
ENCODING -1
SWIDTH 296 0
DWIDTH 7 0
BBX 1 1 0 0
BITMAP
00
ENDCHAR
STARTCHAR cid95
ENCODING -1
SWIDTH 296 0
DWIDTH 7 0
BBX 1 1 0 0
BITMAP
00
ENDCHAR
STARTCHAR cid149
ENCODING -1
SWIDTH 296 0
DWIDTH 7 0
BBX 1 1 0 0
BITMAP
00
ENDCHAR
STARTCHAR _157
ENCODING -1
SWIDTH 296 0
DWIDTH 7 0
BBX 1 1 0 0
BITMAP
00
ENDCHAR
STARTCHAR _158
ENCODING -1
SWIDTH 296 0
DWIDTH 7 0
BBX 1 1 0 0
BITMAP
00
ENDCHAR
STARTCHAR cid224
ENCODING -1
SWIDTH 296 0
DWIDTH 7 0
BBX 1 1 0 0
BITMAP
00
ENDCHAR
STARTCHAR cid106
ENCODING -1
SWIDTH 296 0
DWIDTH 7 0
BBX 1 1 0 0
BITMAP
00
ENDCHAR
STARTCHAR cid115
ENCODING -1
SWIDTH 296 0
DWIDTH 7 0
BBX 1 1 0 0
BITMAP
00
ENDCHAR
STARTCHAR cid116
ENCODING -1
SWIDTH 296 0
DWIDTH 7 0
BBX 1 1 0 0
BITMAP
00
ENDCHAR
STARTCHAR cid118
ENCODING -1
SWIDTH 252 0
DWIDTH 6 0
BBX 1 1 0 0
BITMAP
00
ENDCHAR
STARTCHAR cid124
ENCODING -1
SWIDTH 296 0
DWIDTH 7 0
BBX 1 1 0 0
BITMAP
00
ENDCHAR
STARTCHAR cid125
ENCODING -1
SWIDTH 296 0
DWIDTH 7 0
BBX 1 1 0 0
BITMAP
00
ENDCHAR
STARTCHAR cid141
ENCODING -1
SWIDTH 296 0
DWIDTH 7 0
BBX 1 1 0 0
BITMAP
00
ENDCHAR
STARTCHAR cid146
ENCODING -1
SWIDTH 247 0
DWIDTH 6 0
BBX 1 1 0 0
BITMAP
00
ENDCHAR
STARTCHAR cid147
ENCODING -1
SWIDTH 296 0
DWIDTH 7 0
BBX 1 1 0 0
BITMAP
00
ENDCHAR
STARTCHAR cid155
ENCODING -1
SWIDTH 296 0
DWIDTH 7 0
BBX 1 1 0 0
BITMAP
00
ENDCHAR
STARTCHAR cid156
ENCODING -1
SWIDTH 695 0
DWIDTH 17 0
BBX 13 15 2 -1
BITMAP
0780
0780
0700
0700
7FF8
7FF0
7FF0
0700
0700
0700
0000
C000
FFF8
FFF8
FFF8
ENDCHAR
STARTCHAR cid186
ENCODING -1
SWIDTH 296 0
DWIDTH 7 0
BBX 1 1 0 0
BITMAP
00
ENDCHAR
STARTCHAR cid215
ENCODING -1
SWIDTH 296 0
DWIDTH 7 0
BBX 1 1 0 0
BITMAP
00
ENDCHAR
STARTCHAR cid225
ENCODING -1
SWIDTH 296 0
DWIDTH 7 0
BBX 1 1 0 0
BITMAP
00
ENDCHAR
STARTCHAR cid229
ENCODING -1
SWIDTH 296 0
DWIDTH 7 0
BBX 1 1 0 0
BITMAP
00
ENDCHAR
STARTCHAR cid230
ENCODING -1
SWIDTH 296 0
DWIDTH 7 0
BBX 1 1 0 0
BITMAP
00
ENDCHAR
STARTCHAR cid231
ENCODING -1
SWIDTH 296 0
DWIDTH 7 0
BBX 1 1 0 0
BITMAP
00
ENDCHAR
STARTCHAR cid232
ENCODING -1
SWIDTH 296 0
DWIDTH 7 0
BBX 1 1 0 0
BITMAP
00
ENDCHAR
STARTCHAR cid233
ENCODING -1
SWIDTH 296 0
DWIDTH 7 0
BBX 1 1 0 0
BITMAP
00
ENDCHAR
STARTCHAR cid242
ENCODING -1
SWIDTH 296 0
DWIDTH 7 0
BBX 1 1 0 0
BITMAP
00
ENDCHAR
STARTCHAR cid243
ENCODING -1
SWIDTH 296 0
DWIDTH 7 0
BBX 1 1 0 0
BITMAP
00
ENDCHAR
STARTCHAR cid250
ENCODING -1
SWIDTH 296 0
DWIDTH 7 0
BBX 1 1 0 0
BITMAP
00
ENDCHAR
STARTCHAR cid251
ENCODING -1
SWIDTH 296 0
DWIDTH 7 0
BBX 1 1 0 0
BITMAP
00
ENDCHAR
STARTCHAR cid254
ENCODING -1
SWIDTH 296 0
DWIDTH 7 0
BBX 1 1 0 0
BITMAP
00
ENDCHAR
STARTCHAR uni013C
ENCODING -1
SWIDTH 296 0
DWIDTH 7 0
BBX 1 1 0 0
BITMAP
00
ENDCHAR
STARTCHAR cid262
ENCODING -1
SWIDTH 296 0
DWIDTH 7 0
BBX 1 1 0 0
BITMAP
00
ENDCHAR
STARTCHAR cid263
ENCODING -1
SWIDTH 296 0
DWIDTH 7 0
BBX 1 1 0 0
BITMAP
00
ENDCHAR
STARTCHAR cid270
ENCODING -1
SWIDTH 296 0
DWIDTH 7 0
BBX 1 1 0 0
BITMAP
00
ENDCHAR
STARTCHAR cid271
ENCODING -1
SWIDTH 296 0
DWIDTH 7 0
BBX 1 1 0 0
BITMAP
00
ENDCHAR
STARTCHAR cid274
ENCODING -1
SWIDTH 296 0
DWIDTH 7 0
BBX 1 1 0 0
BITMAP
00
ENDCHAR
STARTCHAR cid275
ENCODING -1
SWIDTH 296 0
DWIDTH 7 0
BBX 1 1 0 0
BITMAP
00
ENDCHAR
STARTCHAR cid278
ENCODING -1
SWIDTH 296 0
DWIDTH 7 0
BBX 1 1 0 0
BITMAP
00
ENDCHAR
STARTCHAR cid279
ENCODING -1
SWIDTH 296 0
DWIDTH 7 0
BBX 1 1 0 0
BITMAP
00
ENDCHAR
STARTCHAR cid286
ENCODING -1
SWIDTH 296 0
DWIDTH 7 0
BBX 1 1 0 0
BITMAP
00
ENDCHAR
STARTCHAR cid287
ENCODING -1
SWIDTH 296 0
DWIDTH 7 0
BBX 1 1 0 0
BITMAP
00
ENDCHAR
STARTCHAR cid255
ENCODING -1
SWIDTH 296 0
DWIDTH 7 0
BBX 1 1 0 0
BITMAP
00
ENDCHAR
STARTCHAR cid297
ENCODING -1
SWIDTH 296 0
DWIDTH 7 0
BBX 1 1 0 0
BITMAP
00
ENDCHAR
STARTCHAR cid298
ENCODING -1
SWIDTH 296 0
DWIDTH 7 0
BBX 1 1 0 0
BITMAP
00
ENDCHAR
STARTCHAR cid307
ENCODING -1
SWIDTH 296 0
DWIDTH 7 0
BBX 1 1 0 0
BITMAP
00
ENDCHAR
STARTCHAR cid308
ENCODING -1
SWIDTH 296 0
DWIDTH 7 0
BBX 1 1 0 0
BITMAP
00
ENDCHAR
STARTCHAR cid309
ENCODING -1
SWIDTH 296 0
DWIDTH 7 0
BBX 1 1 0 0
BITMAP
00
ENDCHAR
STARTCHAR cid310
ENCODING -1
SWIDTH 296 0
DWIDTH 7 0
BBX 1 1 0 0
BITMAP
00
ENDCHAR
STARTCHAR cid311
ENCODING -1
SWIDTH 296 0
DWIDTH 7 0
BBX 1 1 0 0
BITMAP
00
ENDCHAR
STARTCHAR cid312
ENCODING -1
SWIDTH 296 0
DWIDTH 7 0
BBX 1 1 0 0
BITMAP
00
ENDCHAR
STARTCHAR cid313
ENCODING -1
SWIDTH 296 0
DWIDTH 7 0
BBX 1 1 0 0
BITMAP
00
ENDCHAR
STARTCHAR cid320
ENCODING -1
SWIDTH 296 0
DWIDTH 7 0
BBX 1 1 0 0
BITMAP
00
ENDCHAR
STARTCHAR cid321
ENCODING -1
SWIDTH 296 0
DWIDTH 7 0
BBX 1 1 0 0
BITMAP
00
ENDCHAR
STARTCHAR cid326
ENCODING -1
SWIDTH 296 0
DWIDTH 7 0
BBX 1 1 0 0
BITMAP
00
ENDCHAR
STARTCHAR cid327
ENCODING -1
SWIDTH 296 0
DWIDTH 7 0
BBX 1 1 0 0
BITMAP
00
ENDCHAR
STARTCHAR cid332
ENCODING -1
SWIDTH 296 0
DWIDTH 7 0
BBX 1 1 0 0
BITMAP
00
ENDCHAR
STARTCHAR cid333
ENCODING -1
SWIDTH 296 0
DWIDTH 7 0
BBX 1 1 0 0
BITMAP
00
ENDCHAR
STARTCHAR cid336
ENCODING -1
SWIDTH 296 0
DWIDTH 7 0
BBX 1 1 0 0
BITMAP
00
ENDCHAR
STARTCHAR cid337
ENCODING -1
SWIDTH 296 0
DWIDTH 7 0
BBX 1 1 0 0
BITMAP
00
ENDCHAR
STARTCHAR cid338
ENCODING -1
SWIDTH 296 0
DWIDTH 7 0
BBX 1 1 0 0
BITMAP
00
ENDCHAR
STARTCHAR cid339
ENCODING -1
SWIDTH 296 0
DWIDTH 7 0
BBX 1 1 0 0
BITMAP
00
ENDCHAR
STARTCHAR cid342
ENCODING -1
SWIDTH 296 0
DWIDTH 7 0
BBX 1 1 0 0
BITMAP
00
ENDCHAR
STARTCHAR cid343
ENCODING -1
SWIDTH 296 0
DWIDTH 7 0
BBX 1 1 0 0
BITMAP
00
ENDCHAR
STARTCHAR cid350
ENCODING -1
SWIDTH 296 0
DWIDTH 7 0
BBX 1 1 0 0
BITMAP
00
ENDCHAR
STARTCHAR cid351
ENCODING -1
SWIDTH 296 0
DWIDTH 7 0
BBX 1 1 0 0
BITMAP
00
ENDCHAR
STARTCHAR cid352
ENCODING -1
SWIDTH 296 0
DWIDTH 7 0
BBX 1 1 0 0
BITMAP
00
ENDCHAR
STARTCHAR cid353
ENCODING -1
SWIDTH 296 0
DWIDTH 7 0
BBX 1 1 0 0
BITMAP
00
ENDCHAR
STARTCHAR cid361
ENCODING -1
SWIDTH 296 0
DWIDTH 7 0
BBX 1 1 0 0
BITMAP
00
ENDCHAR
STARTCHAR cid362
ENCODING -1
SWIDTH 296 0
DWIDTH 7 0
BBX 1 1 0 0
BITMAP
00
ENDCHAR
STARTCHAR cid363
ENCODING -1
SWIDTH 296 0
DWIDTH 7 0
BBX 1 1 0 0
BITMAP
00
ENDCHAR
STARTCHAR cid365
ENCODING -1
SWIDTH 296 0
DWIDTH 7 0
BBX 1 1 0 0
BITMAP
00
ENDCHAR
STARTCHAR cid366
ENCODING -1
SWIDTH 296 0
DWIDTH 7 0
BBX 1 1 0 0
BITMAP
00
ENDCHAR
STARTCHAR cid367
ENCODING -1
SWIDTH 296 0
DWIDTH 7 0
BBX 1 1 0 0
BITMAP
00
ENDCHAR
STARTCHAR cid368
ENCODING -1
SWIDTH 296 0
DWIDTH 7 0
BBX 1 1 0 0
BITMAP
00
ENDCHAR
STARTCHAR cid369
ENCODING -1
SWIDTH 296 0
DWIDTH 7 0
BBX 1 1 0 0
BITMAP
00
ENDCHAR
STARTCHAR cid370
ENCODING -1
SWIDTH 296 0
DWIDTH 7 0
BBX 1 1 0 0
BITMAP
00
ENDCHAR
STARTCHAR cid371
ENCODING -1
SWIDTH 296 0
DWIDTH 7 0
BBX 1 1 0 0
BITMAP
00
ENDCHAR
STARTCHAR cid372
ENCODING -1
SWIDTH 296 0
DWIDTH 7 0
BBX 1 1 0 0
BITMAP
00
ENDCHAR
STARTCHAR cid373
ENCODING -1
SWIDTH 303 0
DWIDTH 7 0
BBX 5 4 1 5
BITMAP
F8
F8
F8
F8
ENDCHAR
STARTCHAR cid374
ENCODING -1
SWIDTH 296 0
DWIDTH 7 0
BBX 1 1 0 0
BITMAP
00
ENDCHAR
STARTCHAR cid375
ENCODING -1
SWIDTH 296 0
DWIDTH 7 0
BBX 1 1 0 0
BITMAP
00
ENDCHAR
STARTCHAR cid376
ENCODING -1
SWIDTH 296 0
DWIDTH 7 0
BBX 1 1 0 0
BITMAP
00
ENDCHAR
STARTCHAR cid377
ENCODING -1
SWIDTH 296 0
DWIDTH 7 0
BBX 1 1 0 0
BITMAP
00
ENDCHAR
STARTCHAR cid378
ENCODING -1
SWIDTH 296 0
DWIDTH 7 0
BBX 1 1 0 0
BITMAP
00
ENDCHAR
STARTCHAR cid379
ENCODING -1
SWIDTH 296 0
DWIDTH 7 0
BBX 1 1 0 0
BITMAP
00
ENDCHAR
STARTCHAR cid380
ENCODING -1
SWIDTH 296 0
DWIDTH 7 0
BBX 1 1 0 0
BITMAP
00
ENDCHAR
STARTCHAR cid381
ENCODING -1
SWIDTH 296 0
DWIDTH 7 0
BBX 1 1 0 0
BITMAP
00
ENDCHAR
STARTCHAR cid382
ENCODING -1
SWIDTH 296 0
DWIDTH 7 0
BBX 1 1 0 0
BITMAP
00
ENDCHAR
STARTCHAR cid385
ENCODING -1
SWIDTH 296 0
DWIDTH 7 0
BBX 1 1 0 0
BITMAP
00
ENDCHAR
STARTCHAR cid386
ENCODING -1
SWIDTH 296 0
DWIDTH 7 0
BBX 1 1 0 0
BITMAP
00
ENDCHAR
STARTCHAR cid387
ENCODING -1
SWIDTH 296 0
DWIDTH 7 0
BBX 1 1 0 0
BITMAP
00
ENDCHAR
STARTCHAR cid388
ENCODING -1
SWIDTH 296 0
DWIDTH 7 0
BBX 1 1 0 0
BITMAP
00
ENDCHAR
STARTCHAR cid389
ENCODING -1
SWIDTH 296 0
DWIDTH 7 0
BBX 1 1 0 0
BITMAP
00
ENDCHAR
STARTCHAR cid390
ENCODING -1
SWIDTH 296 0
DWIDTH 7 0
BBX 1 1 0 0
BITMAP
00
ENDCHAR
STARTCHAR cid391
ENCODING -1
SWIDTH 296 0
DWIDTH 7 0
BBX 1 1 0 0
BITMAP
00
ENDCHAR
STARTCHAR cid392
ENCODING -1
SWIDTH 296 0
DWIDTH 7 0
BBX 1 1 0 0
BITMAP
00
ENDCHAR
STARTCHAR cid393
ENCODING -1
SWIDTH 296 0
DWIDTH 7 0
BBX 1 1 0 0
BITMAP
00
ENDCHAR
STARTCHAR cid394
ENCODING -1
SWIDTH 296 0
DWIDTH 7 0
BBX 1 1 0 0
BITMAP
00
ENDCHAR
STARTCHAR cid395
ENCODING -1
SWIDTH 296 0
DWIDTH 7 0
BBX 1 1 0 0
BITMAP
00
ENDCHAR
STARTCHAR cid398
ENCODING -1
SWIDTH 296 0
DWIDTH 7 0
BBX 1 1 0 0
BITMAP
00
ENDCHAR
STARTCHAR cid399
ENCODING -1
SWIDTH 296 0
DWIDTH 7 0
BBX 1 1 0 0
BITMAP
00
ENDCHAR
STARTCHAR cid400
ENCODING -1
SWIDTH 296 0
DWIDTH 7 0
BBX 1 1 0 0
BITMAP
00
ENDCHAR
STARTCHAR cid401
ENCODING -1
SWIDTH 296 0
DWIDTH 7 0
BBX 1 1 0 0
BITMAP
00
ENDCHAR
STARTCHAR cid402
ENCODING -1
SWIDTH 296 0
DWIDTH 7 0
BBX 1 1 0 0
BITMAP
00
ENDCHAR
STARTCHAR cid403
ENCODING -1
SWIDTH 296 0
DWIDTH 7 0
BBX 1 1 0 0
BITMAP
00
ENDCHAR
STARTCHAR cid404
ENCODING -1
SWIDTH 296 0
DWIDTH 7 0
BBX 1 1 0 0
BITMAP
00
ENDCHAR
STARTCHAR cid405
ENCODING -1
SWIDTH 296 0
DWIDTH 7 0
BBX 1 1 0 0
BITMAP
00
ENDCHAR
STARTCHAR cid406
ENCODING -1
SWIDTH 296 0
DWIDTH 7 0
BBX 1 1 0 0
BITMAP
00
ENDCHAR
STARTCHAR cid407
ENCODING -1
SWIDTH 296 0
DWIDTH 7 0
BBX 1 1 0 0
BITMAP
00
ENDCHAR
STARTCHAR cid408
ENCODING -1
SWIDTH 296 0
DWIDTH 7 0
BBX 1 1 0 0
BITMAP
00
ENDCHAR
STARTCHAR cid409
ENCODING -1
SWIDTH 296 0
DWIDTH 7 0
BBX 1 1 0 0
BITMAP
00
ENDCHAR
STARTCHAR cid410
ENCODING -1
SWIDTH 296 0
DWIDTH 7 0
BBX 1 1 0 0
BITMAP
00
ENDCHAR
STARTCHAR cid411
ENCODING -1
SWIDTH 296 0
DWIDTH 7 0
BBX 1 1 0 0
BITMAP
00
ENDCHAR
STARTCHAR cid412
ENCODING -1
SWIDTH 296 0
DWIDTH 7 0
BBX 1 1 0 0
BITMAP
00
ENDCHAR
STARTCHAR cid413
ENCODING -1
SWIDTH 296 0
DWIDTH 7 0
BBX 1 1 0 0
BITMAP
00
ENDCHAR
STARTCHAR cid414
ENCODING -1
SWIDTH 296 0
DWIDTH 7 0
BBX 1 1 0 0
BITMAP
00
ENDCHAR
STARTCHAR cid415
ENCODING -1
SWIDTH 296 0
DWIDTH 7 0
BBX 1 1 0 0
BITMAP
00
ENDCHAR
STARTCHAR cid416
ENCODING -1
SWIDTH 296 0
DWIDTH 7 0
BBX 1 1 0 0
BITMAP
00
ENDCHAR
STARTCHAR cid417
ENCODING -1
SWIDTH 296 0
DWIDTH 7 0
BBX 1 1 0 0
BITMAP
00
ENDCHAR
STARTCHAR cid418
ENCODING -1
SWIDTH 296 0
DWIDTH 7 0
BBX 1 1 0 0
BITMAP
00
ENDCHAR
STARTCHAR cid419
ENCODING -1
SWIDTH 296 0
DWIDTH 7 0
BBX 1 1 0 0
BITMAP
00
ENDCHAR
STARTCHAR cid422
ENCODING -1
SWIDTH 296 0
DWIDTH 7 0
BBX 1 1 0 0
BITMAP
00
ENDCHAR
STARTCHAR cid423
ENCODING -1
SWIDTH 296 0
DWIDTH 7 0
BBX 1 1 0 0
BITMAP
00
ENDCHAR
STARTCHAR cid424
ENCODING -1
SWIDTH 296 0
DWIDTH 7 0
BBX 1 1 0 0
BITMAP
00
ENDCHAR
STARTCHAR cid425
ENCODING -1
SWIDTH 296 0
DWIDTH 7 0
BBX 1 1 0 0
BITMAP
00
ENDCHAR
STARTCHAR cid426
ENCODING -1
SWIDTH 296 0
DWIDTH 7 0
BBX 1 1 0 0
BITMAP
00
ENDCHAR
STARTCHAR cid427
ENCODING -1
SWIDTH 296 0
DWIDTH 7 0
BBX 1 1 0 0
BITMAP
00
ENDCHAR
STARTCHAR cid428
ENCODING -1
SWIDTH 296 0
DWIDTH 7 0
BBX 1 1 0 0
BITMAP
00
ENDCHAR
STARTCHAR cid429
ENCODING -1
SWIDTH 296 0
DWIDTH 7 0
BBX 1 1 0 0
BITMAP
00
ENDCHAR
STARTCHAR cid430
ENCODING -1
SWIDTH 296 0
DWIDTH 7 0
BBX 1 1 0 0
BITMAP
00
ENDCHAR
STARTCHAR cid431
ENCODING -1
SWIDTH 296 0
DWIDTH 7 0
BBX 1 1 0 0
BITMAP
00
ENDCHAR
STARTCHAR cid432
ENCODING -1
SWIDTH 296 0
DWIDTH 7 0
BBX 1 1 0 0
BITMAP
00
ENDCHAR
STARTCHAR cid434
ENCODING -1
SWIDTH 296 0
DWIDTH 7 0
BBX 1 1 0 0
BITMAP
00
ENDCHAR
STARTCHAR cid435
ENCODING -1
SWIDTH 296 0
DWIDTH 7 0
BBX 1 1 0 0
BITMAP
00
ENDCHAR
STARTCHAR cid436
ENCODING -1
SWIDTH 296 0
DWIDTH 7 0
BBX 1 1 0 0
BITMAP
00
ENDCHAR
STARTCHAR cid437
ENCODING -1
SWIDTH 296 0
DWIDTH 7 0
BBX 1 1 0 0
BITMAP
00
ENDCHAR
STARTCHAR cid438
ENCODING -1
SWIDTH 296 0
DWIDTH 7 0
BBX 1 1 0 0
BITMAP
00
ENDCHAR
STARTCHAR cid439
ENCODING -1
SWIDTH 296 0
DWIDTH 7 0
BBX 1 1 0 0
BITMAP
00
ENDCHAR
STARTCHAR cid440
ENCODING -1
SWIDTH 296 0
DWIDTH 7 0
BBX 1 1 0 0
BITMAP
00
ENDCHAR
STARTCHAR cid441
ENCODING -1
SWIDTH 296 0
DWIDTH 7 0
BBX 1 1 0 0
BITMAP
00
ENDCHAR
STARTCHAR cid442
ENCODING -1
SWIDTH 296 0
DWIDTH 7 0
BBX 1 1 0 0
BITMAP
00
ENDCHAR
STARTCHAR cid443
ENCODING -1
SWIDTH 296 0
DWIDTH 7 0
BBX 1 1 0 0
BITMAP
00
ENDCHAR
STARTCHAR cid444
ENCODING -1
SWIDTH 296 0
DWIDTH 7 0
BBX 1 1 0 0
BITMAP
00
ENDCHAR
STARTCHAR cid445
ENCODING -1
SWIDTH 296 0
DWIDTH 7 0
BBX 1 1 0 0
BITMAP
00
ENDCHAR
STARTCHAR cid446
ENCODING -1
SWIDTH 296 0
DWIDTH 7 0
BBX 1 1 0 0
BITMAP
00
ENDCHAR
STARTCHAR cid447
ENCODING -1
SWIDTH 296 0
DWIDTH 7 0
BBX 1 1 0 0
BITMAP
00
ENDCHAR
STARTCHAR cid448
ENCODING -1
SWIDTH 296 0
DWIDTH 7 0
BBX 1 1 0 0
BITMAP
00
ENDCHAR
STARTCHAR cid449
ENCODING -1
SWIDTH 296 0
DWIDTH 7 0
BBX 1 1 0 0
BITMAP
00
ENDCHAR
STARTCHAR cid452
ENCODING -1
SWIDTH 296 0
DWIDTH 7 0
BBX 1 1 0 0
BITMAP
00
ENDCHAR
STARTCHAR cid455
ENCODING -1
SWIDTH 296 0
DWIDTH 7 0
BBX 1 1 0 0
BITMAP
00
ENDCHAR
STARTCHAR cid456
ENCODING -1
SWIDTH 296 0
DWIDTH 7 0
BBX 1 1 0 0
BITMAP
00
ENDCHAR
STARTCHAR cid457
ENCODING -1
SWIDTH 296 0
DWIDTH 7 0
BBX 1 1 0 0
BITMAP
00
ENDCHAR
STARTCHAR cid466
ENCODING -1
SWIDTH 296 0
DWIDTH 7 0
BBX 1 1 0 0
BITMAP
00
ENDCHAR
STARTCHAR cid468
ENCODING -1
SWIDTH 296 0
DWIDTH 7 0
BBX 1 1 0 0
BITMAP
00
ENDCHAR
STARTCHAR cid485
ENCODING -1
SWIDTH 296 0
DWIDTH 7 0
BBX 1 1 0 0
BITMAP
00
ENDCHAR
STARTCHAR cid488
ENCODING -1
SWIDTH 296 0
DWIDTH 7 0
BBX 1 1 0 0
BITMAP
00
ENDCHAR
STARTCHAR cid489
ENCODING -1
SWIDTH 296 0
DWIDTH 7 0
BBX 1 1 0 0
BITMAP
00
ENDCHAR
STARTCHAR cid490
ENCODING -1
SWIDTH 296 0
DWIDTH 7 0
BBX 1 1 0 0
BITMAP
00
ENDCHAR
STARTCHAR cid491
ENCODING -1
SWIDTH 296 0
DWIDTH 7 0
BBX 1 1 0 0
BITMAP
00
ENDCHAR
STARTCHAR cid492
ENCODING -1
SWIDTH 296 0
DWIDTH 7 0
BBX 1 1 0 0
BITMAP
00
ENDCHAR
STARTCHAR cid493
ENCODING -1
SWIDTH 296 0
DWIDTH 7 0
BBX 1 1 0 0
BITMAP
00
ENDCHAR
STARTCHAR cid494
ENCODING -1
SWIDTH 296 0
DWIDTH 7 0
BBX 1 1 0 0
BITMAP
00
ENDCHAR
STARTCHAR cid554
ENCODING -1
SWIDTH 296 0
DWIDTH 7 0
BBX 1 1 0 0
BITMAP
00
ENDCHAR
STARTCHAR cid555
ENCODING -1
SWIDTH 296 0
DWIDTH 7 0
BBX 1 1 0 0
BITMAP
00
ENDCHAR
STARTCHAR cid556
ENCODING -1
SWIDTH 296 0
DWIDTH 7 0
BBX 1 1 0 0
BITMAP
00
ENDCHAR
STARTCHAR cid557
ENCODING -1
SWIDTH 296 0
DWIDTH 7 0
BBX 1 1 0 0
BITMAP
00
ENDCHAR
STARTCHAR cid558
ENCODING -1
SWIDTH 296 0
DWIDTH 7 0
BBX 1 1 0 0
BITMAP
00
ENDCHAR
STARTCHAR cid559
ENCODING -1
SWIDTH 296 0
DWIDTH 7 0
BBX 1 1 0 0
BITMAP
00
ENDCHAR
STARTCHAR cid560
ENCODING -1
SWIDTH 296 0
DWIDTH 7 0
BBX 1 1 0 0
BITMAP
00
ENDCHAR
STARTCHAR cid561
ENCODING -1
SWIDTH 296 0
DWIDTH 7 0
BBX 1 1 0 0
BITMAP
00
ENDCHAR
STARTCHAR cid562
ENCODING -1
SWIDTH 296 0
DWIDTH 7 0
BBX 1 1 0 0
BITMAP
00
ENDCHAR
STARTCHAR cid563
ENCODING -1
SWIDTH 296 0
DWIDTH 7 0
BBX 1 1 0 0
BITMAP
00
ENDCHAR
STARTCHAR cid564
ENCODING -1
SWIDTH 296 0
DWIDTH 7 0
BBX 1 1 0 0
BITMAP
00
ENDCHAR
STARTCHAR cid565
ENCODING -1
SWIDTH 296 0
DWIDTH 7 0
BBX 1 1 0 0
BITMAP
00
ENDCHAR
STARTCHAR cid566
ENCODING -1
SWIDTH 296 0
DWIDTH 7 0
BBX 1 1 0 0
BITMAP
00
ENDCHAR
STARTCHAR cid567
ENCODING -1
SWIDTH 296 0
DWIDTH 7 0
BBX 1 1 0 0
BITMAP
00
ENDCHAR
STARTCHAR cid568
ENCODING -1
SWIDTH 296 0
DWIDTH 7 0
BBX 1 1 0 0
BITMAP
00
ENDCHAR
STARTCHAR cid569
ENCODING -1
SWIDTH 296 0
DWIDTH 7 0
BBX 1 1 0 0
BITMAP
00
ENDCHAR
STARTCHAR cid570
ENCODING -1
SWIDTH 296 0
DWIDTH 7 0
BBX 1 1 0 0
BITMAP
00
ENDCHAR
STARTCHAR cid571
ENCODING -1
SWIDTH 296 0
DWIDTH 7 0
BBX 1 1 0 0
BITMAP
00
ENDCHAR
STARTCHAR cid572
ENCODING -1
SWIDTH 296 0
DWIDTH 7 0
BBX 1 1 0 0
BITMAP
00
ENDCHAR
STARTCHAR cid573
ENCODING -1
SWIDTH 296 0
DWIDTH 7 0
BBX 1 1 0 0
BITMAP
00
ENDCHAR
STARTCHAR cid574
ENCODING -1
SWIDTH 296 0
DWIDTH 7 0
BBX 1 1 0 0
BITMAP
00
ENDCHAR
STARTCHAR cid575
ENCODING -1
SWIDTH 296 0
DWIDTH 7 0
BBX 1 1 0 0
BITMAP
00
ENDCHAR
STARTCHAR cid576
ENCODING -1
SWIDTH 296 0
DWIDTH 7 0
BBX 1 1 0 0
BITMAP
00
ENDCHAR
STARTCHAR cid577
ENCODING -1
SWIDTH 296 0
DWIDTH 7 0
BBX 1 1 0 0
BITMAP
00
ENDCHAR
STARTCHAR cid578
ENCODING -1
SWIDTH 296 0
DWIDTH 7 0
BBX 1 1 0 0
BITMAP
00
ENDCHAR
STARTCHAR cid579
ENCODING -1
SWIDTH 296 0
DWIDTH 7 0
BBX 1 1 0 0
BITMAP
00
ENDCHAR
STARTCHAR cid580
ENCODING -1
SWIDTH 296 0
DWIDTH 7 0
BBX 1 1 0 0
BITMAP
00
ENDCHAR
STARTCHAR cid581
ENCODING -1
SWIDTH 296 0
DWIDTH 7 0
BBX 1 1 0 0
BITMAP
00
ENDCHAR
STARTCHAR cid582
ENCODING -1
SWIDTH 296 0
DWIDTH 7 0
BBX 1 1 0 0
BITMAP
00
ENDCHAR
STARTCHAR cid583
ENCODING -1
SWIDTH 296 0
DWIDTH 7 0
BBX 1 1 0 0
BITMAP
00
ENDCHAR
STARTCHAR cid584
ENCODING -1
SWIDTH 296 0
DWIDTH 7 0
BBX 1 1 0 0
BITMAP
00
ENDCHAR
STARTCHAR cid585
ENCODING -1
SWIDTH 296 0
DWIDTH 7 0
BBX 1 1 0 0
BITMAP
00
ENDCHAR
STARTCHAR cid586
ENCODING -1
SWIDTH 296 0
DWIDTH 7 0
BBX 1 1 0 0
BITMAP
00
ENDCHAR
STARTCHAR cid587
ENCODING -1
SWIDTH 296 0
DWIDTH 7 0
BBX 1 1 0 0
BITMAP
00
ENDCHAR
STARTCHAR cid588
ENCODING -1
SWIDTH 296 0
DWIDTH 7 0
BBX 1 1 0 0
BITMAP
00
ENDCHAR
STARTCHAR cid589
ENCODING -1
SWIDTH 296 0
DWIDTH 7 0
BBX 1 1 0 0
BITMAP
00
ENDCHAR
STARTCHAR cid590
ENCODING -1
SWIDTH 296 0
DWIDTH 7 0
BBX 1 1 0 0
BITMAP
00
ENDCHAR
STARTCHAR cid591
ENCODING -1
SWIDTH 296 0
DWIDTH 7 0
BBX 1 1 0 0
BITMAP
00
ENDCHAR
STARTCHAR cid592
ENCODING -1
SWIDTH 296 0
DWIDTH 7 0
BBX 1 1 0 0
BITMAP
00
ENDCHAR
STARTCHAR cid593
ENCODING -1
SWIDTH 296 0
DWIDTH 7 0
BBX 1 1 0 0
BITMAP
00
ENDCHAR
STARTCHAR cid594
ENCODING -1
SWIDTH 296 0
DWIDTH 7 0
BBX 1 1 0 0
BITMAP
00
ENDCHAR
STARTCHAR cid595
ENCODING -1
SWIDTH 296 0
DWIDTH 7 0
BBX 1 1 0 0
BITMAP
00
ENDCHAR
STARTCHAR cid596
ENCODING -1
SWIDTH 296 0
DWIDTH 7 0
BBX 1 1 0 0
BITMAP
00
ENDCHAR
STARTCHAR cid597
ENCODING -1
SWIDTH 296 0
DWIDTH 7 0
BBX 1 1 0 0
BITMAP
00
ENDCHAR
STARTCHAR cid598
ENCODING -1
SWIDTH 296 0
DWIDTH 7 0
BBX 1 1 0 0
BITMAP
00
ENDCHAR
STARTCHAR cid599
ENCODING -1
SWIDTH 296 0
DWIDTH 7 0
BBX 1 1 0 0
BITMAP
00
ENDCHAR
STARTCHAR cid600
ENCODING -1
SWIDTH 296 0
DWIDTH 7 0
BBX 1 1 0 0
BITMAP
00
ENDCHAR
STARTCHAR cid601
ENCODING -1
SWIDTH 296 0
DWIDTH 7 0
BBX 1 1 0 0
BITMAP
00
ENDCHAR
STARTCHAR cid602
ENCODING -1
SWIDTH 296 0
DWIDTH 7 0
BBX 1 1 0 0
BITMAP
00
ENDCHAR
STARTCHAR cid603
ENCODING -1
SWIDTH 296 0
DWIDTH 7 0
BBX 1 1 0 0
BITMAP
00
ENDCHAR
STARTCHAR cid604
ENCODING -1
SWIDTH 296 0
DWIDTH 7 0
BBX 1 1 0 0
BITMAP
00
ENDCHAR
STARTCHAR cid605
ENCODING -1
SWIDTH 296 0
DWIDTH 7 0
BBX 1 1 0 0
BITMAP
00
ENDCHAR
STARTCHAR cid606
ENCODING -1
SWIDTH 296 0
DWIDTH 7 0
BBX 1 1 0 0
BITMAP
00
ENDCHAR
STARTCHAR cid607
ENCODING -1
SWIDTH 296 0
DWIDTH 7 0
BBX 1 1 0 0
BITMAP
00
ENDCHAR
STARTCHAR cid618
ENCODING -1
SWIDTH 296 0
DWIDTH 7 0
BBX 1 1 0 0
BITMAP
00
ENDCHAR
STARTCHAR cid619
ENCODING -1
SWIDTH 296 0
DWIDTH 7 0
BBX 1 1 0 0
BITMAP
00
ENDCHAR
STARTCHAR cid620
ENCODING -1
SWIDTH 296 0
DWIDTH 7 0
BBX 1 1 0 0
BITMAP
00
ENDCHAR
STARTCHAR cid621
ENCODING -1
SWIDTH 296 0
DWIDTH 7 0
BBX 1 1 0 0
BITMAP
00
ENDCHAR
STARTCHAR cid622
ENCODING -1
SWIDTH 296 0
DWIDTH 7 0
BBX 1 1 0 0
BITMAP
00
ENDCHAR
STARTCHAR cid623
ENCODING -1
SWIDTH 296 0
DWIDTH 7 0
BBX 1 1 0 0
BITMAP
00
ENDCHAR
STARTCHAR cid624
ENCODING -1
SWIDTH 296 0
DWIDTH 7 0
BBX 1 1 0 0
BITMAP
00
ENDCHAR
STARTCHAR cid625
ENCODING -1
SWIDTH 296 0
DWIDTH 7 0
BBX 1 1 0 0
BITMAP
00
ENDCHAR
STARTCHAR cid626
ENCODING -1
SWIDTH 296 0
DWIDTH 7 0
BBX 1 1 0 0
BITMAP
00
ENDCHAR
STARTCHAR cid627
ENCODING -1
SWIDTH 296 0
DWIDTH 7 0
BBX 1 1 0 0
BITMAP
00
ENDCHAR
STARTCHAR cid628
ENCODING -1
SWIDTH 296 0
DWIDTH 7 0
BBX 1 1 0 0
BITMAP
00
ENDCHAR
STARTCHAR cid629
ENCODING -1
SWIDTH 296 0
DWIDTH 7 0
BBX 1 1 0 0
BITMAP
00
ENDCHAR
STARTCHAR cid630
ENCODING -1
SWIDTH 296 0
DWIDTH 7 0
BBX 1 1 0 0
BITMAP
00
ENDCHAR
STARTCHAR cid631
ENCODING -1
SWIDTH 296 0
DWIDTH 7 0
BBX 1 1 0 0
BITMAP
00
ENDCHAR
STARTCHAR cid632
ENCODING -1
SWIDTH 296 0
DWIDTH 7 0
BBX 1 1 0 0
BITMAP
00
ENDCHAR
STARTCHAR cid662
ENCODING -1
SWIDTH 296 0
DWIDTH 7 0
BBX 1 1 0 0
BITMAP
00
ENDCHAR
STARTCHAR cid669
ENCODING -1
SWIDTH 296 0
DWIDTH 7 0
BBX 1 1 0 0
BITMAP
00
ENDCHAR
STARTCHAR cid670
ENCODING -1
SWIDTH 296 0
DWIDTH 7 0
BBX 1 1 0 0
BITMAP
00
ENDCHAR
STARTCHAR cid671
ENCODING -1
SWIDTH 296 0
DWIDTH 7 0
BBX 1 1 0 0
BITMAP
00
ENDCHAR
STARTCHAR cid672
ENCODING -1
SWIDTH 296 0
DWIDTH 7 0
BBX 1 1 0 0
BITMAP
00
ENDCHAR
STARTCHAR cid673
ENCODING -1
SWIDTH 296 0
DWIDTH 7 0
BBX 1 1 0 0
BITMAP
00
ENDCHAR
STARTCHAR cid710
ENCODING -1
SWIDTH 296 0
DWIDTH 7 0
BBX 1 1 0 0
BITMAP
00
ENDCHAR
STARTCHAR cid766
ENCODING -1
SWIDTH 296 0
DWIDTH 7 0
BBX 1 1 0 0
BITMAP
00
ENDCHAR
STARTCHAR cid767
ENCODING -1
SWIDTH 296 0
DWIDTH 7 0
BBX 1 1 0 0
BITMAP
00
ENDCHAR
STARTCHAR cid771
ENCODING -1
SWIDTH 296 0
DWIDTH 7 0
BBX 1 1 0 0
BITMAP
00
ENDCHAR
STARTCHAR cid921
ENCODING -1
SWIDTH 1143 0
DWIDTH 27 0
BBX 1 1 0 0
BITMAP
00
ENDCHAR
STARTCHAR cid922
ENCODING -1
SWIDTH 1143 0
DWIDTH 27 0
BBX 1 1 0 0
BITMAP
00
ENDCHAR
STARTCHAR cid1004
ENCODING -1
SWIDTH 342 0
DWIDTH 8 0
BBX 1 1 0 0
BITMAP
00
ENDCHAR
STARTCHAR cid1005
ENCODING -1
SWIDTH 342 0
DWIDTH 8 0
BBX 1 1 0 0
BITMAP
00
ENDCHAR
STARTCHAR cid1065
ENCODING -1
SWIDTH 296 0
DWIDTH 7 0
BBX 1 1 0 0
BITMAP
00
ENDCHAR
STARTCHAR cid1098
ENCODING -1
SWIDTH 296 0
DWIDTH 7 0
BBX 1 1 0 0
BITMAP
00
ENDCHAR
STARTCHAR cid1125
ENCODING -1
SWIDTH 296 0
DWIDTH 7 0
BBX 1 1 0 0
BITMAP
00
ENDCHAR
STARTCHAR cid1126
ENCODING -1
SWIDTH 296 0
DWIDTH 7 0
BBX 1 1 0 0
BITMAP
00
ENDCHAR
STARTCHAR cid1127
ENCODING -1
SWIDTH 296 0
DWIDTH 7 0
BBX 1 1 0 0
BITMAP
00
ENDCHAR
STARTCHAR cid1128
ENCODING -1
SWIDTH 296 0
DWIDTH 7 0
BBX 1 1 0 0
BITMAP
00
ENDCHAR
STARTCHAR cid1129
ENCODING -1
SWIDTH 296 0
DWIDTH 7 0
BBX 1 1 0 0
BITMAP
00
ENDCHAR
STARTCHAR cid1130
ENCODING -1
SWIDTH 296 0
DWIDTH 7 0
BBX 1 1 0 0
BITMAP
00
ENDCHAR
STARTCHAR cid1131
ENCODING -1
SWIDTH 296 0
DWIDTH 7 0
BBX 1 1 0 0
BITMAP
00
ENDCHAR
STARTCHAR cid1132
ENCODING -1
SWIDTH 296 0
DWIDTH 7 0
BBX 1 1 0 0
BITMAP
00
ENDCHAR
STARTCHAR cid1133
ENCODING -1
SWIDTH 296 0
DWIDTH 7 0
BBX 1 1 0 0
BITMAP
00
ENDCHAR
STARTCHAR cid1134
ENCODING -1
SWIDTH 296 0
DWIDTH 7 0
BBX 1 1 0 0
BITMAP
00
ENDCHAR
STARTCHAR cid1135
ENCODING -1
SWIDTH 296 0
DWIDTH 7 0
BBX 1 1 0 0
BITMAP
00
ENDCHAR
STARTCHAR cid1136
ENCODING -1
SWIDTH 296 0
DWIDTH 7 0
BBX 1 1 0 0
BITMAP
00
ENDCHAR
STARTCHAR cid1137
ENCODING -1
SWIDTH 296 0
DWIDTH 7 0
BBX 1 1 0 0
BITMAP
00
ENDCHAR
STARTCHAR cid1138
ENCODING -1
SWIDTH 296 0
DWIDTH 7 0
BBX 1 1 0 0
BITMAP
00
ENDCHAR
STARTCHAR cid1139
ENCODING -1
SWIDTH 296 0
DWIDTH 7 0
BBX 1 1 0 0
BITMAP
00
ENDCHAR
STARTCHAR cid1140
ENCODING -1
SWIDTH 296 0
DWIDTH 7 0
BBX 1 1 0 0
BITMAP
00
ENDCHAR
STARTCHAR cid1141
ENCODING -1
SWIDTH 296 0
DWIDTH 7 0
BBX 1 1 0 0
BITMAP
00
ENDCHAR
STARTCHAR cid1142
ENCODING -1
SWIDTH 296 0
DWIDTH 7 0
BBX 1 1 0 0
BITMAP
00
ENDCHAR
STARTCHAR cid1143
ENCODING -1
SWIDTH 296 0
DWIDTH 7 0
BBX 1 1 0 0
BITMAP
00
ENDCHAR
STARTCHAR cid1144
ENCODING -1
SWIDTH 296 0
DWIDTH 7 0
BBX 1 1 0 0
BITMAP
00
ENDCHAR
STARTCHAR cid1145
ENCODING -1
SWIDTH 296 0
DWIDTH 7 0
BBX 1 1 0 0
BITMAP
00
ENDCHAR
STARTCHAR cid1146
ENCODING -1
SWIDTH 296 0
DWIDTH 7 0
BBX 1 1 0 0
BITMAP
00
ENDCHAR
STARTCHAR cid1147
ENCODING -1
SWIDTH 296 0
DWIDTH 7 0
BBX 1 1 0 0
BITMAP
00
ENDCHAR
STARTCHAR cid1148
ENCODING -1
SWIDTH 296 0
DWIDTH 7 0
BBX 1 1 0 0
BITMAP
00
ENDCHAR
STARTCHAR cid1149
ENCODING -1
SWIDTH 296 0
DWIDTH 7 0
BBX 1 1 0 0
BITMAP
00
ENDCHAR
STARTCHAR cid1150
ENCODING -1
SWIDTH 296 0
DWIDTH 7 0
BBX 1 1 0 0
BITMAP
00
ENDCHAR
STARTCHAR cid1151
ENCODING -1
SWIDTH 296 0
DWIDTH 7 0
BBX 1 1 0 0
BITMAP
00
ENDCHAR
STARTCHAR cid1152
ENCODING -1
SWIDTH 296 0
DWIDTH 7 0
BBX 1 1 0 0
BITMAP
00
ENDCHAR
STARTCHAR cid1153
ENCODING -1
SWIDTH 296 0
DWIDTH 7 0
BBX 1 1 0 0
BITMAP
00
ENDCHAR
STARTCHAR cid1154
ENCODING -1
SWIDTH 296 0
DWIDTH 7 0
BBX 1 1 0 0
BITMAP
00
ENDCHAR
STARTCHAR cid1155
ENCODING -1
SWIDTH 296 0
DWIDTH 7 0
BBX 1 1 0 0
BITMAP
00
ENDCHAR
STARTCHAR cid1156
ENCODING -1
SWIDTH 296 0
DWIDTH 7 0
BBX 1 1 0 0
BITMAP
00
ENDCHAR
STARTCHAR cid1157
ENCODING -1
SWIDTH 296 0
DWIDTH 7 0
BBX 1 1 0 0
BITMAP
00
ENDCHAR
STARTCHAR cid1158
ENCODING -1
SWIDTH 296 0
DWIDTH 7 0
BBX 1 1 0 0
BITMAP
00
ENDCHAR
STARTCHAR cid1159
ENCODING -1
SWIDTH 296 0
DWIDTH 7 0
BBX 1 1 0 0
BITMAP
00
ENDCHAR
STARTCHAR cid1160
ENCODING -1
SWIDTH 296 0
DWIDTH 7 0
BBX 1 1 0 0
BITMAP
00
ENDCHAR
STARTCHAR cid1161
ENCODING -1
SWIDTH 296 0
DWIDTH 7 0
BBX 1 1 0 0
BITMAP
00
ENDCHAR
STARTCHAR cid1162
ENCODING -1
SWIDTH 296 0
DWIDTH 7 0
BBX 1 1 0 0
BITMAP
00
ENDCHAR
STARTCHAR cid1163
ENCODING -1
SWIDTH 296 0
DWIDTH 7 0
BBX 1 1 0 0
BITMAP
00
ENDCHAR
STARTCHAR cid1164
ENCODING -1
SWIDTH 296 0
DWIDTH 7 0
BBX 1 1 0 0
BITMAP
00
ENDCHAR
STARTCHAR cid1165
ENCODING -1
SWIDTH 296 0
DWIDTH 7 0
BBX 1 1 0 0
BITMAP
00
ENDCHAR
STARTCHAR cid1166
ENCODING -1
SWIDTH 296 0
DWIDTH 7 0
BBX 1 1 0 0
BITMAP
00
ENDCHAR
STARTCHAR cid1167
ENCODING -1
SWIDTH 296 0
DWIDTH 7 0
BBX 1 1 0 0
BITMAP
00
ENDCHAR
STARTCHAR cid1168
ENCODING -1
SWIDTH 296 0
DWIDTH 7 0
BBX 1 1 0 0
BITMAP
00
ENDCHAR
STARTCHAR cid1169
ENCODING -1
SWIDTH 296 0
DWIDTH 7 0
BBX 1 1 0 0
BITMAP
00
ENDCHAR
STARTCHAR cid1170
ENCODING -1
SWIDTH 296 0
DWIDTH 7 0
BBX 1 1 0 0
BITMAP
00
ENDCHAR
STARTCHAR cid1171
ENCODING -1
SWIDTH 296 0
DWIDTH 7 0
BBX 1 1 0 0
BITMAP
00
ENDCHAR
STARTCHAR cid1172
ENCODING -1
SWIDTH 296 0
DWIDTH 7 0
BBX 1 1 0 0
BITMAP
00
ENDCHAR
STARTCHAR cid1173
ENCODING -1
SWIDTH 296 0
DWIDTH 7 0
BBX 1 1 0 0
BITMAP
00
ENDCHAR
STARTCHAR cid7608
ENCODING -1
SWIDTH 296 0
DWIDTH 7 0
BBX 1 1 0 0
BITMAP
00
ENDCHAR
STARTCHAR cid7609
ENCODING -1
SWIDTH 296 0
DWIDTH 7 0
BBX 1 1 0 0
BITMAP
00
ENDCHAR
STARTCHAR cid7610
ENCODING -1
SWIDTH 296 0
DWIDTH 7 0
BBX 1 1 0 0
BITMAP
00
ENDCHAR
STARTCHAR cid7958
ENCODING -1
SWIDTH 296 0
DWIDTH 7 0
BBX 1 1 0 0
BITMAP
00
ENDCHAR
STARTCHAR cid7959
ENCODING -1
SWIDTH 296 0
DWIDTH 7 0
BBX 1 1 0 0
BITMAP
00
ENDCHAR
STARTCHAR cid7960
ENCODING -1
SWIDTH 296 0
DWIDTH 7 0
BBX 1 1 0 0
BITMAP
00
ENDCHAR
STARTCHAR cid8722
ENCODING -1
SWIDTH 296 0
DWIDTH 7 0
BBX 1 1 0 0
BITMAP
00
ENDCHAR
STARTCHAR cid8723
ENCODING -1
SWIDTH 296 0
DWIDTH 7 0
BBX 1 1 0 0
BITMAP
00
ENDCHAR
STARTCHAR cid8724
ENCODING -1
SWIDTH 296 0
DWIDTH 7 0
BBX 1 1 0 0
BITMAP
00
ENDCHAR
STARTCHAR cid1200
ENCODING -1
SWIDTH 296 0
DWIDTH 7 0
BBX 1 1 0 0
BITMAP
00
ENDCHAR
STARTCHAR cid1201
ENCODING -1
SWIDTH 296 0
DWIDTH 7 0
BBX 1 1 0 0
BITMAP
00
ENDCHAR
STARTCHAR cid1202
ENCODING -1
SWIDTH 296 0
DWIDTH 7 0
BBX 1 1 0 0
BITMAP
00
ENDCHAR
STARTCHAR cid1203
ENCODING -1
SWIDTH 296 0
DWIDTH 7 0
BBX 1 1 0 0
BITMAP
00
ENDCHAR
STARTCHAR cid1204
ENCODING -1
SWIDTH 296 0
DWIDTH 7 0
BBX 1 1 0 0
BITMAP
00
ENDCHAR
STARTCHAR cid1205
ENCODING -1
SWIDTH 296 0
DWIDTH 7 0
BBX 1 1 0 0
BITMAP
00
ENDCHAR
STARTCHAR cid1206
ENCODING -1
SWIDTH 296 0
DWIDTH 7 0
BBX 1 1 0 0
BITMAP
00
ENDCHAR
STARTCHAR cid1207
ENCODING -1
SWIDTH 296 0
DWIDTH 7 0
BBX 1 1 0 0
BITMAP
00
ENDCHAR
STARTCHAR cid1208
ENCODING -1
SWIDTH 296 0
DWIDTH 7 0
BBX 1 1 0 0
BITMAP
00
ENDCHAR
STARTCHAR cid1209
ENCODING -1
SWIDTH 296 0
DWIDTH 7 0
BBX 1 1 0 0
BITMAP
00
ENDCHAR
STARTCHAR cid1210
ENCODING -1
SWIDTH 296 0
DWIDTH 7 0
BBX 1 1 0 0
BITMAP
00
ENDCHAR
STARTCHAR cid1211
ENCODING -1
SWIDTH 296 0
DWIDTH 7 0
BBX 1 1 0 0
BITMAP
00
ENDCHAR
STARTCHAR cid1212
ENCODING -1
SWIDTH 296 0
DWIDTH 7 0
BBX 1 1 0 0
BITMAP
00
ENDCHAR
STARTCHAR cid1213
ENCODING -1
SWIDTH 296 0
DWIDTH 7 0
BBX 1 1 0 0
BITMAP
00
ENDCHAR
STARTCHAR cid1214
ENCODING -1
SWIDTH 296 0
DWIDTH 7 0
BBX 1 1 0 0
BITMAP
00
ENDCHAR
STARTCHAR cid1215
ENCODING -1
SWIDTH 296 0
DWIDTH 7 0
BBX 1 1 0 0
BITMAP
00
ENDCHAR
STARTCHAR cid1216
ENCODING -1
SWIDTH 296 0
DWIDTH 7 0
BBX 1 1 0 0
BITMAP
00
ENDCHAR
STARTCHAR cid1217
ENCODING -1
SWIDTH 296 0
DWIDTH 7 0
BBX 1 1 0 0
BITMAP
00
ENDCHAR
STARTCHAR cid1218
ENCODING -1
SWIDTH 296 0
DWIDTH 7 0
BBX 1 1 0 0
BITMAP
00
ENDCHAR
STARTCHAR cid1219
ENCODING -1
SWIDTH 296 0
DWIDTH 7 0
BBX 1 1 0 0
BITMAP
00
ENDCHAR
STARTCHAR cid1220
ENCODING -1
SWIDTH 296 0
DWIDTH 7 0
BBX 1 1 0 0
BITMAP
00
ENDCHAR
STARTCHAR cid1221
ENCODING -1
SWIDTH 296 0
DWIDTH 7 0
BBX 1 1 0 0
BITMAP
00
ENDCHAR
STARTCHAR cid1222
ENCODING -1
SWIDTH 296 0
DWIDTH 7 0
BBX 1 1 0 0
BITMAP
00
ENDCHAR
STARTCHAR cid1223
ENCODING -1
SWIDTH 296 0
DWIDTH 7 0
BBX 1 1 0 0
BITMAP
00
ENDCHAR
STARTCHAR cid1224
ENCODING -1
SWIDTH 296 0
DWIDTH 7 0
BBX 1 1 0 0
BITMAP
00
ENDCHAR
STARTCHAR cid1225
ENCODING -1
SWIDTH 296 0
DWIDTH 7 0
BBX 1 1 0 0
BITMAP
00
ENDCHAR
STARTCHAR cid1226
ENCODING -1
SWIDTH 296 0
DWIDTH 7 0
BBX 1 1 0 0
BITMAP
00
ENDCHAR
STARTCHAR cid1227
ENCODING -1
SWIDTH 296 0
DWIDTH 7 0
BBX 1 1 0 0
BITMAP
00
ENDCHAR
STARTCHAR cid1228
ENCODING -1
SWIDTH 296 0
DWIDTH 7 0
BBX 1 1 0 0
BITMAP
00
ENDCHAR
STARTCHAR cid1229
ENCODING -1
SWIDTH 296 0
DWIDTH 7 0
BBX 1 1 0 0
BITMAP
00
ENDCHAR
STARTCHAR cid1230
ENCODING -1
SWIDTH 296 0
DWIDTH 7 0
BBX 1 1 0 0
BITMAP
00
ENDCHAR
STARTCHAR cid1231
ENCODING -1
SWIDTH 296 0
DWIDTH 7 0
BBX 1 1 0 0
BITMAP
00
ENDCHAR
STARTCHAR cid1232
ENCODING -1
SWIDTH 296 0
DWIDTH 7 0
BBX 1 1 0 0
BITMAP
00
ENDCHAR
STARTCHAR cid1233
ENCODING -1
SWIDTH 296 0
DWIDTH 7 0
BBX 1 1 0 0
BITMAP
00
ENDCHAR
STARTCHAR cid1234
ENCODING -1
SWIDTH 296 0
DWIDTH 7 0
BBX 1 1 0 0
BITMAP
00
ENDCHAR
STARTCHAR cid1235
ENCODING -1
SWIDTH 296 0
DWIDTH 7 0
BBX 1 1 0 0
BITMAP
00
ENDCHAR
STARTCHAR cid1236
ENCODING -1
SWIDTH 296 0
DWIDTH 7 0
BBX 1 1 0 0
BITMAP
00
ENDCHAR
STARTCHAR cid1237
ENCODING -1
SWIDTH 296 0
DWIDTH 7 0
BBX 1 1 0 0
BITMAP
00
ENDCHAR
STARTCHAR cid1259
ENCODING -1
SWIDTH 296 0
DWIDTH 7 0
BBX 1 1 0 0
BITMAP
00
ENDCHAR
STARTCHAR cid1260
ENCODING -1
SWIDTH 296 0
DWIDTH 7 0
BBX 1 1 0 0
BITMAP
00
ENDCHAR
STARTCHAR cid1261
ENCODING -1
SWIDTH 296 0
DWIDTH 7 0
BBX 1 1 0 0
BITMAP
00
ENDCHAR
STARTCHAR cid1262
ENCODING -1
SWIDTH 296 0
DWIDTH 7 0
BBX 1 1 0 0
BITMAP
00
ENDCHAR
STARTCHAR cid1263
ENCODING -1
SWIDTH 296 0
DWIDTH 7 0
BBX 1 1 0 0
BITMAP
00
ENDCHAR
STARTCHAR cid1264
ENCODING -1
SWIDTH 296 0
DWIDTH 7 0
BBX 1 1 0 0
BITMAP
00
ENDCHAR
STARTCHAR cid1265
ENCODING -1
SWIDTH 296 0
DWIDTH 7 0
BBX 1 1 0 0
BITMAP
00
ENDCHAR
STARTCHAR cid1266
ENCODING -1
SWIDTH 296 0
DWIDTH 7 0
BBX 1 1 0 0
BITMAP
00
ENDCHAR
STARTCHAR cid1267
ENCODING -1
SWIDTH 296 0
DWIDTH 7 0
BBX 1 1 0 0
BITMAP
00
ENDCHAR
STARTCHAR cid1268
ENCODING -1
SWIDTH 296 0
DWIDTH 7 0
BBX 1 1 0 0
BITMAP
00
ENDCHAR
STARTCHAR cid1269
ENCODING -1
SWIDTH 296 0
DWIDTH 7 0
BBX 1 1 0 0
BITMAP
00
ENDCHAR
STARTCHAR cid1270
ENCODING -1
SWIDTH 296 0
DWIDTH 7 0
BBX 1 1 0 0
BITMAP
00
ENDCHAR
STARTCHAR cid1271
ENCODING -1
SWIDTH 296 0
DWIDTH 7 0
BBX 1 1 0 0
BITMAP
00
ENDCHAR
STARTCHAR cid1272
ENCODING -1
SWIDTH 296 0
DWIDTH 7 0
BBX 1 1 0 0
BITMAP
00
ENDCHAR
STARTCHAR cid1273
ENCODING -1
SWIDTH 296 0
DWIDTH 7 0
BBX 1 1 0 0
BITMAP
00
ENDCHAR
STARTCHAR cid1274
ENCODING -1
SWIDTH 296 0
DWIDTH 7 0
BBX 1 1 0 0
BITMAP
00
ENDCHAR
STARTCHAR cid1275
ENCODING -1
SWIDTH 296 0
DWIDTH 7 0
BBX 1 1 0 0
BITMAP
00
ENDCHAR
STARTCHAR cid1276
ENCODING -1
SWIDTH 296 0
DWIDTH 7 0
BBX 1 1 0 0
BITMAP
00
ENDCHAR
STARTCHAR cid1277
ENCODING -1
SWIDTH 296 0
DWIDTH 7 0
BBX 1 1 0 0
BITMAP
00
ENDCHAR
STARTCHAR cid1278
ENCODING -1
SWIDTH 296 0
DWIDTH 7 0
BBX 1 1 0 0
BITMAP
00
ENDCHAR
STARTCHAR cid1279
ENCODING -1
SWIDTH 296 0
DWIDTH 7 0
BBX 1 1 0 0
BITMAP
00
ENDCHAR
STARTCHAR cid1280
ENCODING -1
SWIDTH 296 0
DWIDTH 7 0
BBX 1 1 0 0
BITMAP
00
ENDCHAR
STARTCHAR cid1281
ENCODING -1
SWIDTH 296 0
DWIDTH 7 0
BBX 1 1 0 0
BITMAP
00
ENDCHAR
STARTCHAR cid1282
ENCODING -1
SWIDTH 296 0
DWIDTH 7 0
BBX 1 1 0 0
BITMAP
00
ENDCHAR
STARTCHAR cid1283
ENCODING -1
SWIDTH 296 0
DWIDTH 7 0
BBX 1 1 0 0
BITMAP
00
ENDCHAR
STARTCHAR cid1284
ENCODING -1
SWIDTH 296 0
DWIDTH 7 0
BBX 1 1 0 0
BITMAP
00
ENDCHAR
STARTCHAR cid1285
ENCODING -1
SWIDTH 296 0
DWIDTH 7 0
BBX 1 1 0 0
BITMAP
00
ENDCHAR
STARTCHAR cid1286
ENCODING -1
SWIDTH 296 0
DWIDTH 7 0
BBX 1 1 0 0
BITMAP
00
ENDCHAR
STARTCHAR cid1287
ENCODING -1
SWIDTH 296 0
DWIDTH 7 0
BBX 1 1 0 0
BITMAP
00
ENDCHAR
STARTCHAR cid1288
ENCODING -1
SWIDTH 296 0
DWIDTH 7 0
BBX 1 1 0 0
BITMAP
00
ENDCHAR
STARTCHAR cid1289
ENCODING -1
SWIDTH 296 0
DWIDTH 7 0
BBX 1 1 0 0
BITMAP
00
ENDCHAR
STARTCHAR cid1290
ENCODING -1
SWIDTH 296 0
DWIDTH 7 0
BBX 1 1 0 0
BITMAP
00
ENDCHAR
STARTCHAR cid1291
ENCODING -1
SWIDTH 296 0
DWIDTH 7 0
BBX 1 1 0 0
BITMAP
00
ENDCHAR
STARTCHAR cid1292
ENCODING -1
SWIDTH 296 0
DWIDTH 7 0
BBX 1 1 0 0
BITMAP
00
ENDCHAR
STARTCHAR cid1293
ENCODING -1
SWIDTH 296 0
DWIDTH 7 0
BBX 1 1 0 0
BITMAP
00
ENDCHAR
STARTCHAR cid1294
ENCODING -1
SWIDTH 296 0
DWIDTH 7 0
BBX 1 1 0 0
BITMAP
00
ENDCHAR
STARTCHAR cid1295
ENCODING -1
SWIDTH 296 0
DWIDTH 7 0
BBX 1 1 0 0
BITMAP
00
ENDCHAR
STARTCHAR cid1296
ENCODING -1
SWIDTH 296 0
DWIDTH 7 0
BBX 1 1 0 0
BITMAP
00
ENDCHAR
STARTCHAR cid1297
ENCODING -1
SWIDTH 296 0
DWIDTH 7 0
BBX 1 1 0 0
BITMAP
00
ENDCHAR
STARTCHAR cid1298
ENCODING -1
SWIDTH 296 0
DWIDTH 7 0
BBX 1 1 0 0
BITMAP
00
ENDCHAR
STARTCHAR cid1299
ENCODING -1
SWIDTH 296 0
DWIDTH 7 0
BBX 1 1 0 0
BITMAP
00
ENDCHAR
STARTCHAR cid1300
ENCODING -1
SWIDTH 296 0
DWIDTH 7 0
BBX 1 1 0 0
BITMAP
00
ENDCHAR
STARTCHAR cid1301
ENCODING -1
SWIDTH 296 0
DWIDTH 7 0
BBX 1 1 0 0
BITMAP
00
ENDCHAR
STARTCHAR cid1302
ENCODING -1
SWIDTH 296 0
DWIDTH 7 0
BBX 1 1 0 0
BITMAP
00
ENDCHAR
STARTCHAR cid1303
ENCODING -1
SWIDTH 296 0
DWIDTH 7 0
BBX 1 1 0 0
BITMAP
00
ENDCHAR
STARTCHAR cid1304
ENCODING -1
SWIDTH 296 0
DWIDTH 7 0
BBX 1 1 0 0
BITMAP
00
ENDCHAR
STARTCHAR cid1305
ENCODING -1
SWIDTH 296 0
DWIDTH 7 0
BBX 1 1 0 0
BITMAP
00
ENDCHAR
STARTCHAR cid1306
ENCODING -1
SWIDTH 296 0
DWIDTH 7 0
BBX 1 1 0 0
BITMAP
00
ENDCHAR
STARTCHAR cid1307
ENCODING -1
SWIDTH 296 0
DWIDTH 7 0
BBX 1 1 0 0
BITMAP
00
ENDCHAR
STARTCHAR cid1308
ENCODING -1
SWIDTH 296 0
DWIDTH 7 0
BBX 1 1 0 0
BITMAP
00
ENDCHAR
STARTCHAR cid1309
ENCODING -1
SWIDTH 296 0
DWIDTH 7 0
BBX 1 1 0 0
BITMAP
00
ENDCHAR
STARTCHAR cid1310
ENCODING -1
SWIDTH 296 0
DWIDTH 7 0
BBX 1 1 0 0
BITMAP
00
ENDCHAR
STARTCHAR cid1311
ENCODING -1
SWIDTH 296 0
DWIDTH 7 0
BBX 1 1 0 0
BITMAP
00
ENDCHAR
STARTCHAR cid1312
ENCODING -1
SWIDTH 296 0
DWIDTH 7 0
BBX 1 1 0 0
BITMAP
00
ENDCHAR
STARTCHAR cid1313
ENCODING -1
SWIDTH 296 0
DWIDTH 7 0
BBX 1 1 0 0
BITMAP
00
ENDCHAR
ENDFONT
